G75*
%MOIN*%
%OFA0B0*%
%FSLAX25Y25*%
%IPPOS*%
%LPD*%
%AMOC8*
5,1,8,0,0,1.08239X$1,22.5*
%
%ADD10C,0.01600*%
%ADD11C,0.01250*%
%ADD12C,0.00875*%
%ADD13R,0.05000X0.05000*%
%ADD14R,0.05906X0.05906*%
%ADD15R,0.12000X0.05000*%
%ADD16R,0.05906X0.01969*%
%ADD17R,0.01969X0.05906*%
%ADD18R,0.04724X0.02717*%
%ADD19C,0.01000*%
%ADD20R,0.05000X0.10000*%
%ADD21R,0.07000X0.08000*%
%ADD22R,0.00984X0.02953*%
%ADD23R,0.02953X0.00984*%
%ADD24R,0.07100X0.02100*%
%ADD25R,0.08000X0.01600*%
D10*
X0030744Y0008834D02*
X0030744Y0328834D01*
X0423244Y0328834D01*
X0423244Y0008834D01*
X0030744Y0008834D01*
D11*
X0195119Y0021459D02*
X0195119Y0022709D01*
X0196369Y0022709D01*
X0196369Y0021459D01*
X0195119Y0021459D01*
X0195119Y0022708D02*
X0196369Y0022708D01*
X0195119Y0024959D02*
X0195119Y0026209D01*
X0196369Y0026209D01*
X0196369Y0024959D01*
X0195119Y0024959D01*
X0195119Y0026208D02*
X0196369Y0026208D01*
X0245119Y0026209D02*
X0245119Y0024959D01*
X0245119Y0026209D02*
X0246369Y0026209D01*
X0246369Y0024959D01*
X0245119Y0024959D01*
X0245119Y0026208D02*
X0246369Y0026208D01*
X0245119Y0022709D02*
X0245119Y0021459D01*
X0245119Y0022709D02*
X0246369Y0022709D01*
X0246369Y0021459D01*
X0245119Y0021459D01*
X0245119Y0022708D02*
X0246369Y0022708D01*
X0295119Y0022709D02*
X0295119Y0021459D01*
X0295119Y0022709D02*
X0296369Y0022709D01*
X0296369Y0021459D01*
X0295119Y0021459D01*
X0295119Y0022708D02*
X0296369Y0022708D01*
X0295119Y0024959D02*
X0295119Y0026209D01*
X0296369Y0026209D01*
X0296369Y0024959D01*
X0295119Y0024959D01*
X0295119Y0026208D02*
X0296369Y0026208D01*
X0345119Y0026209D02*
X0345119Y0024959D01*
X0345119Y0026209D02*
X0346369Y0026209D01*
X0346369Y0024959D01*
X0345119Y0024959D01*
X0345119Y0026208D02*
X0346369Y0026208D01*
X0345119Y0022709D02*
X0345119Y0021459D01*
X0345119Y0022709D02*
X0346369Y0022709D01*
X0346369Y0021459D01*
X0345119Y0021459D01*
X0345119Y0022708D02*
X0346369Y0022708D01*
X0395119Y0022709D02*
X0395119Y0021459D01*
X0395119Y0022709D02*
X0396369Y0022709D01*
X0396369Y0021459D01*
X0395119Y0021459D01*
X0395119Y0022708D02*
X0396369Y0022708D01*
X0395119Y0024959D02*
X0395119Y0026209D01*
X0396369Y0026209D01*
X0396369Y0024959D01*
X0395119Y0024959D01*
X0395119Y0026208D02*
X0396369Y0026208D01*
X0395119Y0061459D02*
X0395119Y0062709D01*
X0396369Y0062709D01*
X0396369Y0061459D01*
X0395119Y0061459D01*
X0395119Y0062708D02*
X0396369Y0062708D01*
X0395119Y0064959D02*
X0395119Y0066209D01*
X0396369Y0066209D01*
X0396369Y0064959D01*
X0395119Y0064959D01*
X0395119Y0066208D02*
X0396369Y0066208D01*
X0395119Y0101459D02*
X0395119Y0102709D01*
X0396369Y0102709D01*
X0396369Y0101459D01*
X0395119Y0101459D01*
X0395119Y0102708D02*
X0396369Y0102708D01*
X0395119Y0104959D02*
X0395119Y0106209D01*
X0396369Y0106209D01*
X0396369Y0104959D01*
X0395119Y0104959D01*
X0395119Y0106208D02*
X0396369Y0106208D01*
X0395119Y0141459D02*
X0395119Y0142709D01*
X0396369Y0142709D01*
X0396369Y0141459D01*
X0395119Y0141459D01*
X0395119Y0142708D02*
X0396369Y0142708D01*
X0395119Y0144959D02*
X0395119Y0146209D01*
X0396369Y0146209D01*
X0396369Y0144959D01*
X0395119Y0144959D01*
X0395119Y0146208D02*
X0396369Y0146208D01*
X0345119Y0146209D02*
X0345119Y0144959D01*
X0345119Y0146209D02*
X0346369Y0146209D01*
X0346369Y0144959D01*
X0345119Y0144959D01*
X0345119Y0146208D02*
X0346369Y0146208D01*
X0345119Y0142709D02*
X0345119Y0141459D01*
X0345119Y0142709D02*
X0346369Y0142709D01*
X0346369Y0141459D01*
X0345119Y0141459D01*
X0345119Y0142708D02*
X0346369Y0142708D01*
X0295119Y0142709D02*
X0295119Y0141459D01*
X0295119Y0142709D02*
X0296369Y0142709D01*
X0296369Y0141459D01*
X0295119Y0141459D01*
X0295119Y0142708D02*
X0296369Y0142708D01*
X0295119Y0144959D02*
X0295119Y0146209D01*
X0296369Y0146209D01*
X0296369Y0144959D01*
X0295119Y0144959D01*
X0295119Y0146208D02*
X0296369Y0146208D01*
X0245119Y0146209D02*
X0245119Y0144959D01*
X0245119Y0146209D02*
X0246369Y0146209D01*
X0246369Y0144959D01*
X0245119Y0144959D01*
X0245119Y0146208D02*
X0246369Y0146208D01*
X0245119Y0142709D02*
X0245119Y0141459D01*
X0245119Y0142709D02*
X0246369Y0142709D01*
X0246369Y0141459D01*
X0245119Y0141459D01*
X0245119Y0142708D02*
X0246369Y0142708D01*
X0195119Y0142709D02*
X0195119Y0141459D01*
X0195119Y0142709D02*
X0196369Y0142709D01*
X0196369Y0141459D01*
X0195119Y0141459D01*
X0195119Y0142708D02*
X0196369Y0142708D01*
X0195119Y0144959D02*
X0195119Y0146209D01*
X0196369Y0146209D01*
X0196369Y0144959D01*
X0195119Y0144959D01*
X0195119Y0146208D02*
X0196369Y0146208D01*
X0195119Y0106209D02*
X0195119Y0104959D01*
X0195119Y0106209D02*
X0196369Y0106209D01*
X0196369Y0104959D01*
X0195119Y0104959D01*
X0195119Y0106208D02*
X0196369Y0106208D01*
X0195119Y0102709D02*
X0195119Y0101459D01*
X0195119Y0102709D02*
X0196369Y0102709D01*
X0196369Y0101459D01*
X0195119Y0101459D01*
X0195119Y0102708D02*
X0196369Y0102708D01*
X0245119Y0102709D02*
X0245119Y0101459D01*
X0245119Y0102709D02*
X0246369Y0102709D01*
X0246369Y0101459D01*
X0245119Y0101459D01*
X0245119Y0102708D02*
X0246369Y0102708D01*
X0245119Y0104959D02*
X0245119Y0106209D01*
X0246369Y0106209D01*
X0246369Y0104959D01*
X0245119Y0104959D01*
X0245119Y0106208D02*
X0246369Y0106208D01*
X0295119Y0106209D02*
X0295119Y0104959D01*
X0295119Y0106209D02*
X0296369Y0106209D01*
X0296369Y0104959D01*
X0295119Y0104959D01*
X0295119Y0106208D02*
X0296369Y0106208D01*
X0295119Y0102709D02*
X0295119Y0101459D01*
X0295119Y0102709D02*
X0296369Y0102709D01*
X0296369Y0101459D01*
X0295119Y0101459D01*
X0295119Y0102708D02*
X0296369Y0102708D01*
X0345119Y0102709D02*
X0345119Y0101459D01*
X0345119Y0102709D02*
X0346369Y0102709D01*
X0346369Y0101459D01*
X0345119Y0101459D01*
X0345119Y0102708D02*
X0346369Y0102708D01*
X0345119Y0104959D02*
X0345119Y0106209D01*
X0346369Y0106209D01*
X0346369Y0104959D01*
X0345119Y0104959D01*
X0345119Y0106208D02*
X0346369Y0106208D01*
X0345119Y0066209D02*
X0345119Y0064959D01*
X0345119Y0066209D02*
X0346369Y0066209D01*
X0346369Y0064959D01*
X0345119Y0064959D01*
X0345119Y0066208D02*
X0346369Y0066208D01*
X0345119Y0062709D02*
X0345119Y0061459D01*
X0345119Y0062709D02*
X0346369Y0062709D01*
X0346369Y0061459D01*
X0345119Y0061459D01*
X0345119Y0062708D02*
X0346369Y0062708D01*
X0295119Y0062709D02*
X0295119Y0061459D01*
X0295119Y0062709D02*
X0296369Y0062709D01*
X0296369Y0061459D01*
X0295119Y0061459D01*
X0295119Y0062708D02*
X0296369Y0062708D01*
X0295119Y0064959D02*
X0295119Y0066209D01*
X0296369Y0066209D01*
X0296369Y0064959D01*
X0295119Y0064959D01*
X0295119Y0066208D02*
X0296369Y0066208D01*
X0245119Y0066209D02*
X0245119Y0064959D01*
X0245119Y0066209D02*
X0246369Y0066209D01*
X0246369Y0064959D01*
X0245119Y0064959D01*
X0245119Y0066208D02*
X0246369Y0066208D01*
X0245119Y0062709D02*
X0245119Y0061459D01*
X0245119Y0062709D02*
X0246369Y0062709D01*
X0246369Y0061459D01*
X0245119Y0061459D01*
X0245119Y0062708D02*
X0246369Y0062708D01*
X0195119Y0062709D02*
X0195119Y0061459D01*
X0195119Y0062709D02*
X0196369Y0062709D01*
X0196369Y0061459D01*
X0195119Y0061459D01*
X0195119Y0062708D02*
X0196369Y0062708D01*
X0195119Y0064959D02*
X0195119Y0066209D01*
X0196369Y0066209D01*
X0196369Y0064959D01*
X0195119Y0064959D01*
X0195119Y0066208D02*
X0196369Y0066208D01*
X0088119Y0185709D02*
X0086869Y0185709D01*
X0086869Y0186959D01*
X0088119Y0186959D01*
X0088119Y0185709D01*
X0088119Y0186958D02*
X0086869Y0186958D01*
X0084619Y0185709D02*
X0083369Y0185709D01*
X0083369Y0186959D01*
X0084619Y0186959D01*
X0084619Y0185709D01*
X0084619Y0186958D02*
X0083369Y0186958D01*
X0153869Y0250459D02*
X0153869Y0251709D01*
X0153869Y0250459D02*
X0152619Y0250459D01*
X0152619Y0251709D01*
X0153869Y0251709D01*
X0153869Y0251708D02*
X0152619Y0251708D01*
X0153869Y0253959D02*
X0153869Y0255209D01*
X0153869Y0253959D02*
X0152619Y0253959D01*
X0152619Y0255209D01*
X0153869Y0255209D01*
X0153869Y0255208D02*
X0152619Y0255208D01*
X0152119Y0268209D02*
X0150869Y0268209D01*
X0150869Y0269459D01*
X0152119Y0269459D01*
X0152119Y0268209D01*
X0152119Y0269458D02*
X0150869Y0269458D01*
X0154369Y0268209D02*
X0155619Y0268209D01*
X0154369Y0268209D02*
X0154369Y0269459D01*
X0155619Y0269459D01*
X0155619Y0268209D01*
X0155619Y0269458D02*
X0154369Y0269458D01*
X0145119Y0281459D02*
X0145119Y0282709D01*
X0146369Y0282709D01*
X0146369Y0281459D01*
X0145119Y0281459D01*
X0145119Y0282708D02*
X0146369Y0282708D01*
X0145119Y0284959D02*
X0145119Y0286209D01*
X0146369Y0286209D01*
X0146369Y0284959D01*
X0145119Y0284959D01*
X0145119Y0286208D02*
X0146369Y0286208D01*
X0137119Y0286959D02*
X0135869Y0286959D01*
X0137119Y0286959D02*
X0137119Y0285709D01*
X0135869Y0285709D01*
X0135869Y0286959D01*
X0135869Y0286958D02*
X0137119Y0286958D01*
X0133619Y0286959D02*
X0132369Y0286959D01*
X0133619Y0286959D02*
X0133619Y0285709D01*
X0132369Y0285709D01*
X0132369Y0286959D01*
X0132369Y0286958D02*
X0133619Y0286958D01*
X0112119Y0287959D02*
X0110869Y0287959D01*
X0112119Y0287959D02*
X0112119Y0286709D01*
X0110869Y0286709D01*
X0110869Y0287959D01*
X0110869Y0287958D02*
X0112119Y0287958D01*
X0108619Y0287959D02*
X0107369Y0287959D01*
X0108619Y0287959D02*
X0108619Y0286709D01*
X0107369Y0286709D01*
X0107369Y0287959D01*
X0107369Y0287958D02*
X0108619Y0287958D01*
X0099869Y0287709D02*
X0099869Y0286459D01*
X0098619Y0286459D01*
X0098619Y0287709D01*
X0099869Y0287709D01*
X0099869Y0287708D02*
X0098619Y0287708D01*
X0099869Y0289959D02*
X0099869Y0291209D01*
X0099869Y0289959D02*
X0098619Y0289959D01*
X0098619Y0291209D01*
X0099869Y0291209D01*
X0099869Y0291208D02*
X0098619Y0291208D01*
X0078119Y0298209D02*
X0076869Y0298209D01*
X0076869Y0299459D01*
X0078119Y0299459D01*
X0078119Y0298209D01*
X0078119Y0299458D02*
X0076869Y0299458D01*
X0074619Y0298209D02*
X0073369Y0298209D01*
X0073369Y0299459D01*
X0074619Y0299459D01*
X0074619Y0298209D01*
X0074619Y0299458D02*
X0073369Y0299458D01*
X0073369Y0306959D02*
X0074619Y0306959D01*
X0074619Y0305709D01*
X0073369Y0305709D01*
X0073369Y0306959D01*
X0073369Y0306958D02*
X0074619Y0306958D01*
X0076869Y0306959D02*
X0078119Y0306959D01*
X0078119Y0305709D01*
X0076869Y0305709D01*
X0076869Y0306959D01*
X0076869Y0306958D02*
X0078119Y0306958D01*
X0078119Y0313209D02*
X0076869Y0313209D01*
X0076869Y0314459D01*
X0078119Y0314459D01*
X0078119Y0313209D01*
X0078119Y0314458D02*
X0076869Y0314458D01*
X0074619Y0313209D02*
X0073369Y0313209D01*
X0073369Y0314459D01*
X0074619Y0314459D01*
X0074619Y0313209D01*
X0074619Y0314458D02*
X0073369Y0314458D01*
X0150119Y0306209D02*
X0150119Y0304959D01*
X0150119Y0306209D02*
X0151369Y0306209D01*
X0151369Y0304959D01*
X0150119Y0304959D01*
X0150119Y0306208D02*
X0151369Y0306208D01*
X0150119Y0302709D02*
X0150119Y0301459D01*
X0150119Y0302709D02*
X0151369Y0302709D01*
X0151369Y0301459D01*
X0150119Y0301459D01*
X0150119Y0302708D02*
X0151369Y0302708D01*
X0198369Y0260709D02*
X0199619Y0260709D01*
X0198369Y0260709D02*
X0198369Y0261959D01*
X0199619Y0261959D01*
X0199619Y0260709D01*
X0199619Y0261958D02*
X0198369Y0261958D01*
X0201869Y0260709D02*
X0203119Y0260709D01*
X0201869Y0260709D02*
X0201869Y0261959D01*
X0203119Y0261959D01*
X0203119Y0260709D01*
X0203119Y0261958D02*
X0201869Y0261958D01*
X0298369Y0260709D02*
X0299619Y0260709D01*
X0298369Y0260709D02*
X0298369Y0261959D01*
X0299619Y0261959D01*
X0299619Y0260709D01*
X0299619Y0261958D02*
X0298369Y0261958D01*
X0301869Y0260709D02*
X0303119Y0260709D01*
X0301869Y0260709D02*
X0301869Y0261959D01*
X0303119Y0261959D01*
X0303119Y0260709D01*
X0303119Y0261958D02*
X0301869Y0261958D01*
X0393369Y0260709D02*
X0394619Y0260709D01*
X0393369Y0260709D02*
X0393369Y0261959D01*
X0394619Y0261959D01*
X0394619Y0260709D01*
X0394619Y0261958D02*
X0393369Y0261958D01*
X0396869Y0260709D02*
X0398119Y0260709D01*
X0396869Y0260709D02*
X0396869Y0261959D01*
X0398119Y0261959D01*
X0398119Y0260709D01*
X0398119Y0261958D02*
X0396869Y0261958D01*
X0079119Y0251959D02*
X0077869Y0251959D01*
X0079119Y0251959D02*
X0079119Y0250709D01*
X0077869Y0250709D01*
X0077869Y0251959D01*
X0077869Y0251958D02*
X0079119Y0251958D01*
X0075619Y0251959D02*
X0074369Y0251959D01*
X0075619Y0251959D02*
X0075619Y0250709D01*
X0074369Y0250709D01*
X0074369Y0251959D01*
X0074369Y0251958D02*
X0075619Y0251958D01*
D12*
X0066931Y0252147D02*
X0066931Y0249521D01*
X0066931Y0252147D02*
X0069557Y0252147D01*
X0069557Y0249521D01*
X0066931Y0249521D01*
X0066931Y0250395D02*
X0069557Y0250395D01*
X0069557Y0251269D02*
X0066931Y0251269D01*
X0066931Y0252143D02*
X0069557Y0252143D01*
X0066931Y0255521D02*
X0066931Y0258147D01*
X0069557Y0258147D01*
X0069557Y0255521D01*
X0066931Y0255521D01*
X0066931Y0256395D02*
X0069557Y0256395D01*
X0069557Y0257269D02*
X0066931Y0257269D01*
X0066931Y0258143D02*
X0069557Y0258143D01*
X0073931Y0257521D02*
X0076557Y0257521D01*
X0073931Y0257521D02*
X0073931Y0260147D01*
X0076557Y0260147D01*
X0076557Y0257521D01*
X0076557Y0258395D02*
X0073931Y0258395D01*
X0073931Y0259269D02*
X0076557Y0259269D01*
X0076557Y0260143D02*
X0073931Y0260143D01*
X0079931Y0257521D02*
X0082557Y0257521D01*
X0079931Y0257521D02*
X0079931Y0260147D01*
X0082557Y0260147D01*
X0082557Y0257521D01*
X0082557Y0258395D02*
X0079931Y0258395D01*
X0079931Y0259269D02*
X0082557Y0259269D01*
X0082557Y0260143D02*
X0079931Y0260143D01*
X0079931Y0270021D02*
X0082557Y0270021D01*
X0079931Y0270021D02*
X0079931Y0272647D01*
X0082557Y0272647D01*
X0082557Y0270021D01*
X0082557Y0270895D02*
X0079931Y0270895D01*
X0079931Y0271769D02*
X0082557Y0271769D01*
X0082557Y0272643D02*
X0079931Y0272643D01*
X0076557Y0270021D02*
X0073931Y0270021D01*
X0073931Y0272647D01*
X0076557Y0272647D01*
X0076557Y0270021D01*
X0076557Y0270895D02*
X0073931Y0270895D01*
X0073931Y0271769D02*
X0076557Y0271769D01*
X0076557Y0272643D02*
X0073931Y0272643D01*
X0069557Y0272021D02*
X0069557Y0274647D01*
X0069557Y0272021D02*
X0066931Y0272021D01*
X0066931Y0274647D01*
X0069557Y0274647D01*
X0069557Y0272895D02*
X0066931Y0272895D01*
X0066931Y0273769D02*
X0069557Y0273769D01*
X0069557Y0274643D02*
X0066931Y0274643D01*
X0069557Y0278021D02*
X0069557Y0280647D01*
X0069557Y0278021D02*
X0066931Y0278021D01*
X0066931Y0280647D01*
X0069557Y0280647D01*
X0069557Y0278895D02*
X0066931Y0278895D01*
X0066931Y0279769D02*
X0069557Y0279769D01*
X0069557Y0280643D02*
X0066931Y0280643D01*
X0085931Y0311771D02*
X0088557Y0311771D01*
X0085931Y0311771D02*
X0085931Y0315897D01*
X0088557Y0315897D01*
X0088557Y0311771D01*
X0088557Y0312645D02*
X0085931Y0312645D01*
X0085931Y0313519D02*
X0088557Y0313519D01*
X0088557Y0314393D02*
X0085931Y0314393D01*
X0085931Y0315267D02*
X0088557Y0315267D01*
X0092931Y0311771D02*
X0095557Y0311771D01*
X0092931Y0311771D02*
X0092931Y0315897D01*
X0095557Y0315897D01*
X0095557Y0311771D01*
X0095557Y0312645D02*
X0092931Y0312645D01*
X0092931Y0313519D02*
X0095557Y0313519D01*
X0095557Y0314393D02*
X0092931Y0314393D01*
X0092931Y0315267D02*
X0095557Y0315267D01*
X0166181Y0270147D02*
X0166181Y0267521D01*
X0166181Y0270147D02*
X0170307Y0270147D01*
X0170307Y0267521D01*
X0166181Y0267521D01*
X0166181Y0268395D02*
X0170307Y0268395D01*
X0170307Y0269269D02*
X0166181Y0269269D01*
X0166181Y0270143D02*
X0170307Y0270143D01*
X0166181Y0263147D02*
X0166181Y0260521D01*
X0166181Y0263147D02*
X0170307Y0263147D01*
X0170307Y0260521D01*
X0166181Y0260521D01*
X0166181Y0261395D02*
X0170307Y0261395D01*
X0170307Y0262269D02*
X0166181Y0262269D01*
X0166181Y0263143D02*
X0170307Y0263143D01*
X0162057Y0253147D02*
X0162057Y0250521D01*
X0159431Y0250521D01*
X0159431Y0253147D01*
X0162057Y0253147D01*
X0162057Y0251395D02*
X0159431Y0251395D01*
X0159431Y0252269D02*
X0162057Y0252269D01*
X0162057Y0253143D02*
X0159431Y0253143D01*
X0162057Y0247147D02*
X0162057Y0244521D01*
X0159431Y0244521D01*
X0159431Y0247147D01*
X0162057Y0247147D01*
X0162057Y0245395D02*
X0159431Y0245395D01*
X0159431Y0246269D02*
X0162057Y0246269D01*
X0162057Y0247143D02*
X0159431Y0247143D01*
X0147057Y0233147D02*
X0147057Y0230521D01*
X0144431Y0230521D01*
X0144431Y0233147D01*
X0147057Y0233147D01*
X0147057Y0231395D02*
X0144431Y0231395D01*
X0144431Y0232269D02*
X0147057Y0232269D01*
X0147057Y0233143D02*
X0144431Y0233143D01*
X0147057Y0227147D02*
X0147057Y0224521D01*
X0144431Y0224521D01*
X0144431Y0227147D01*
X0147057Y0227147D01*
X0147057Y0225395D02*
X0144431Y0225395D01*
X0144431Y0226269D02*
X0147057Y0226269D01*
X0147057Y0227143D02*
X0144431Y0227143D01*
X0132557Y0220147D02*
X0129931Y0220147D01*
X0132557Y0220147D02*
X0132557Y0217521D01*
X0129931Y0217521D01*
X0129931Y0220147D01*
X0129931Y0218395D02*
X0132557Y0218395D01*
X0132557Y0219269D02*
X0129931Y0219269D01*
X0129931Y0220143D02*
X0132557Y0220143D01*
X0126557Y0220147D02*
X0123931Y0220147D01*
X0126557Y0220147D02*
X0126557Y0217521D01*
X0123931Y0217521D01*
X0123931Y0220147D01*
X0123931Y0218395D02*
X0126557Y0218395D01*
X0126557Y0219269D02*
X0123931Y0219269D01*
X0123931Y0220143D02*
X0126557Y0220143D01*
X0115057Y0217521D02*
X0112431Y0217521D01*
X0112431Y0220147D01*
X0115057Y0220147D01*
X0115057Y0217521D01*
X0115057Y0218395D02*
X0112431Y0218395D01*
X0112431Y0219269D02*
X0115057Y0219269D01*
X0115057Y0220143D02*
X0112431Y0220143D01*
X0109057Y0217521D02*
X0106431Y0217521D01*
X0106431Y0220147D01*
X0109057Y0220147D01*
X0109057Y0217521D01*
X0109057Y0218395D02*
X0106431Y0218395D01*
X0106431Y0219269D02*
X0109057Y0219269D01*
X0109057Y0220143D02*
X0106431Y0220143D01*
X0199431Y0163147D02*
X0199431Y0160521D01*
X0199431Y0163147D02*
X0202057Y0163147D01*
X0202057Y0160521D01*
X0199431Y0160521D01*
X0199431Y0161395D02*
X0202057Y0161395D01*
X0202057Y0162269D02*
X0199431Y0162269D01*
X0199431Y0163143D02*
X0202057Y0163143D01*
X0199431Y0157147D02*
X0199431Y0154521D01*
X0199431Y0157147D02*
X0202057Y0157147D01*
X0202057Y0154521D01*
X0199431Y0154521D01*
X0199431Y0155395D02*
X0202057Y0155395D01*
X0202057Y0156269D02*
X0199431Y0156269D01*
X0199431Y0157143D02*
X0202057Y0157143D01*
X0209431Y0157147D02*
X0209431Y0154521D01*
X0209431Y0157147D02*
X0212057Y0157147D01*
X0212057Y0154521D01*
X0209431Y0154521D01*
X0209431Y0155395D02*
X0212057Y0155395D01*
X0212057Y0156269D02*
X0209431Y0156269D01*
X0209431Y0157143D02*
X0212057Y0157143D01*
X0209431Y0160521D02*
X0209431Y0163147D01*
X0212057Y0163147D01*
X0212057Y0160521D01*
X0209431Y0160521D01*
X0209431Y0161395D02*
X0212057Y0161395D01*
X0212057Y0162269D02*
X0209431Y0162269D01*
X0209431Y0163143D02*
X0212057Y0163143D01*
X0249431Y0163147D02*
X0249431Y0160521D01*
X0249431Y0163147D02*
X0252057Y0163147D01*
X0252057Y0160521D01*
X0249431Y0160521D01*
X0249431Y0161395D02*
X0252057Y0161395D01*
X0252057Y0162269D02*
X0249431Y0162269D01*
X0249431Y0163143D02*
X0252057Y0163143D01*
X0249431Y0157147D02*
X0249431Y0154521D01*
X0249431Y0157147D02*
X0252057Y0157147D01*
X0252057Y0154521D01*
X0249431Y0154521D01*
X0249431Y0155395D02*
X0252057Y0155395D01*
X0252057Y0156269D02*
X0249431Y0156269D01*
X0249431Y0157143D02*
X0252057Y0157143D01*
X0259431Y0157147D02*
X0259431Y0154521D01*
X0259431Y0157147D02*
X0262057Y0157147D01*
X0262057Y0154521D01*
X0259431Y0154521D01*
X0259431Y0155395D02*
X0262057Y0155395D01*
X0262057Y0156269D02*
X0259431Y0156269D01*
X0259431Y0157143D02*
X0262057Y0157143D01*
X0259431Y0160521D02*
X0259431Y0163147D01*
X0262057Y0163147D01*
X0262057Y0160521D01*
X0259431Y0160521D01*
X0259431Y0161395D02*
X0262057Y0161395D01*
X0262057Y0162269D02*
X0259431Y0162269D01*
X0259431Y0163143D02*
X0262057Y0163143D01*
X0299431Y0163147D02*
X0299431Y0160521D01*
X0299431Y0163147D02*
X0302057Y0163147D01*
X0302057Y0160521D01*
X0299431Y0160521D01*
X0299431Y0161395D02*
X0302057Y0161395D01*
X0302057Y0162269D02*
X0299431Y0162269D01*
X0299431Y0163143D02*
X0302057Y0163143D01*
X0299431Y0157147D02*
X0299431Y0154521D01*
X0299431Y0157147D02*
X0302057Y0157147D01*
X0302057Y0154521D01*
X0299431Y0154521D01*
X0299431Y0155395D02*
X0302057Y0155395D01*
X0302057Y0156269D02*
X0299431Y0156269D01*
X0299431Y0157143D02*
X0302057Y0157143D01*
X0309431Y0157147D02*
X0309431Y0154521D01*
X0309431Y0157147D02*
X0312057Y0157147D01*
X0312057Y0154521D01*
X0309431Y0154521D01*
X0309431Y0155395D02*
X0312057Y0155395D01*
X0312057Y0156269D02*
X0309431Y0156269D01*
X0309431Y0157143D02*
X0312057Y0157143D01*
X0309431Y0160521D02*
X0309431Y0163147D01*
X0312057Y0163147D01*
X0312057Y0160521D01*
X0309431Y0160521D01*
X0309431Y0161395D02*
X0312057Y0161395D01*
X0312057Y0162269D02*
X0309431Y0162269D01*
X0309431Y0163143D02*
X0312057Y0163143D01*
X0349431Y0163147D02*
X0349431Y0160521D01*
X0349431Y0163147D02*
X0352057Y0163147D01*
X0352057Y0160521D01*
X0349431Y0160521D01*
X0349431Y0161395D02*
X0352057Y0161395D01*
X0352057Y0162269D02*
X0349431Y0162269D01*
X0349431Y0163143D02*
X0352057Y0163143D01*
X0349431Y0157147D02*
X0349431Y0154521D01*
X0349431Y0157147D02*
X0352057Y0157147D01*
X0352057Y0154521D01*
X0349431Y0154521D01*
X0349431Y0155395D02*
X0352057Y0155395D01*
X0352057Y0156269D02*
X0349431Y0156269D01*
X0349431Y0157143D02*
X0352057Y0157143D01*
X0359431Y0157147D02*
X0359431Y0154521D01*
X0359431Y0157147D02*
X0362057Y0157147D01*
X0362057Y0154521D01*
X0359431Y0154521D01*
X0359431Y0155395D02*
X0362057Y0155395D01*
X0362057Y0156269D02*
X0359431Y0156269D01*
X0359431Y0157143D02*
X0362057Y0157143D01*
X0359431Y0160521D02*
X0359431Y0163147D01*
X0362057Y0163147D01*
X0362057Y0160521D01*
X0359431Y0160521D01*
X0359431Y0161395D02*
X0362057Y0161395D01*
X0362057Y0162269D02*
X0359431Y0162269D01*
X0359431Y0163143D02*
X0362057Y0163143D01*
X0399431Y0163147D02*
X0399431Y0160521D01*
X0399431Y0163147D02*
X0402057Y0163147D01*
X0402057Y0160521D01*
X0399431Y0160521D01*
X0399431Y0161395D02*
X0402057Y0161395D01*
X0402057Y0162269D02*
X0399431Y0162269D01*
X0399431Y0163143D02*
X0402057Y0163143D01*
X0399431Y0157147D02*
X0399431Y0154521D01*
X0399431Y0157147D02*
X0402057Y0157147D01*
X0402057Y0154521D01*
X0399431Y0154521D01*
X0399431Y0155395D02*
X0402057Y0155395D01*
X0402057Y0156269D02*
X0399431Y0156269D01*
X0399431Y0157143D02*
X0402057Y0157143D01*
X0409431Y0157147D02*
X0409431Y0154521D01*
X0409431Y0157147D02*
X0412057Y0157147D01*
X0412057Y0154521D01*
X0409431Y0154521D01*
X0409431Y0155395D02*
X0412057Y0155395D01*
X0412057Y0156269D02*
X0409431Y0156269D01*
X0409431Y0157143D02*
X0412057Y0157143D01*
X0409431Y0160521D02*
X0409431Y0163147D01*
X0412057Y0163147D01*
X0412057Y0160521D01*
X0409431Y0160521D01*
X0409431Y0161395D02*
X0412057Y0161395D01*
X0412057Y0162269D02*
X0409431Y0162269D01*
X0409431Y0163143D02*
X0412057Y0163143D01*
X0409431Y0123147D02*
X0409431Y0120521D01*
X0409431Y0123147D02*
X0412057Y0123147D01*
X0412057Y0120521D01*
X0409431Y0120521D01*
X0409431Y0121395D02*
X0412057Y0121395D01*
X0412057Y0122269D02*
X0409431Y0122269D01*
X0409431Y0123143D02*
X0412057Y0123143D01*
X0409431Y0117147D02*
X0409431Y0114521D01*
X0409431Y0117147D02*
X0412057Y0117147D01*
X0412057Y0114521D01*
X0409431Y0114521D01*
X0409431Y0115395D02*
X0412057Y0115395D01*
X0412057Y0116269D02*
X0409431Y0116269D01*
X0409431Y0117143D02*
X0412057Y0117143D01*
X0399431Y0117147D02*
X0399431Y0114521D01*
X0399431Y0117147D02*
X0402057Y0117147D01*
X0402057Y0114521D01*
X0399431Y0114521D01*
X0399431Y0115395D02*
X0402057Y0115395D01*
X0402057Y0116269D02*
X0399431Y0116269D01*
X0399431Y0117143D02*
X0402057Y0117143D01*
X0399431Y0120521D02*
X0399431Y0123147D01*
X0402057Y0123147D01*
X0402057Y0120521D01*
X0399431Y0120521D01*
X0399431Y0121395D02*
X0402057Y0121395D01*
X0402057Y0122269D02*
X0399431Y0122269D01*
X0399431Y0123143D02*
X0402057Y0123143D01*
X0359431Y0123147D02*
X0359431Y0120521D01*
X0359431Y0123147D02*
X0362057Y0123147D01*
X0362057Y0120521D01*
X0359431Y0120521D01*
X0359431Y0121395D02*
X0362057Y0121395D01*
X0362057Y0122269D02*
X0359431Y0122269D01*
X0359431Y0123143D02*
X0362057Y0123143D01*
X0359431Y0117147D02*
X0359431Y0114521D01*
X0359431Y0117147D02*
X0362057Y0117147D01*
X0362057Y0114521D01*
X0359431Y0114521D01*
X0359431Y0115395D02*
X0362057Y0115395D01*
X0362057Y0116269D02*
X0359431Y0116269D01*
X0359431Y0117143D02*
X0362057Y0117143D01*
X0349431Y0117147D02*
X0349431Y0114521D01*
X0349431Y0117147D02*
X0352057Y0117147D01*
X0352057Y0114521D01*
X0349431Y0114521D01*
X0349431Y0115395D02*
X0352057Y0115395D01*
X0352057Y0116269D02*
X0349431Y0116269D01*
X0349431Y0117143D02*
X0352057Y0117143D01*
X0349431Y0120521D02*
X0349431Y0123147D01*
X0352057Y0123147D01*
X0352057Y0120521D01*
X0349431Y0120521D01*
X0349431Y0121395D02*
X0352057Y0121395D01*
X0352057Y0122269D02*
X0349431Y0122269D01*
X0349431Y0123143D02*
X0352057Y0123143D01*
X0309431Y0123147D02*
X0309431Y0120521D01*
X0309431Y0123147D02*
X0312057Y0123147D01*
X0312057Y0120521D01*
X0309431Y0120521D01*
X0309431Y0121395D02*
X0312057Y0121395D01*
X0312057Y0122269D02*
X0309431Y0122269D01*
X0309431Y0123143D02*
X0312057Y0123143D01*
X0309431Y0117147D02*
X0309431Y0114521D01*
X0309431Y0117147D02*
X0312057Y0117147D01*
X0312057Y0114521D01*
X0309431Y0114521D01*
X0309431Y0115395D02*
X0312057Y0115395D01*
X0312057Y0116269D02*
X0309431Y0116269D01*
X0309431Y0117143D02*
X0312057Y0117143D01*
X0299431Y0117147D02*
X0299431Y0114521D01*
X0299431Y0117147D02*
X0302057Y0117147D01*
X0302057Y0114521D01*
X0299431Y0114521D01*
X0299431Y0115395D02*
X0302057Y0115395D01*
X0302057Y0116269D02*
X0299431Y0116269D01*
X0299431Y0117143D02*
X0302057Y0117143D01*
X0299431Y0120521D02*
X0299431Y0123147D01*
X0302057Y0123147D01*
X0302057Y0120521D01*
X0299431Y0120521D01*
X0299431Y0121395D02*
X0302057Y0121395D01*
X0302057Y0122269D02*
X0299431Y0122269D01*
X0299431Y0123143D02*
X0302057Y0123143D01*
X0259431Y0123147D02*
X0259431Y0120521D01*
X0259431Y0123147D02*
X0262057Y0123147D01*
X0262057Y0120521D01*
X0259431Y0120521D01*
X0259431Y0121395D02*
X0262057Y0121395D01*
X0262057Y0122269D02*
X0259431Y0122269D01*
X0259431Y0123143D02*
X0262057Y0123143D01*
X0259431Y0117147D02*
X0259431Y0114521D01*
X0259431Y0117147D02*
X0262057Y0117147D01*
X0262057Y0114521D01*
X0259431Y0114521D01*
X0259431Y0115395D02*
X0262057Y0115395D01*
X0262057Y0116269D02*
X0259431Y0116269D01*
X0259431Y0117143D02*
X0262057Y0117143D01*
X0249431Y0117147D02*
X0249431Y0114521D01*
X0249431Y0117147D02*
X0252057Y0117147D01*
X0252057Y0114521D01*
X0249431Y0114521D01*
X0249431Y0115395D02*
X0252057Y0115395D01*
X0252057Y0116269D02*
X0249431Y0116269D01*
X0249431Y0117143D02*
X0252057Y0117143D01*
X0249431Y0120521D02*
X0249431Y0123147D01*
X0252057Y0123147D01*
X0252057Y0120521D01*
X0249431Y0120521D01*
X0249431Y0121395D02*
X0252057Y0121395D01*
X0252057Y0122269D02*
X0249431Y0122269D01*
X0249431Y0123143D02*
X0252057Y0123143D01*
X0209431Y0123147D02*
X0209431Y0120521D01*
X0209431Y0123147D02*
X0212057Y0123147D01*
X0212057Y0120521D01*
X0209431Y0120521D01*
X0209431Y0121395D02*
X0212057Y0121395D01*
X0212057Y0122269D02*
X0209431Y0122269D01*
X0209431Y0123143D02*
X0212057Y0123143D01*
X0209431Y0117147D02*
X0209431Y0114521D01*
X0209431Y0117147D02*
X0212057Y0117147D01*
X0212057Y0114521D01*
X0209431Y0114521D01*
X0209431Y0115395D02*
X0212057Y0115395D01*
X0212057Y0116269D02*
X0209431Y0116269D01*
X0209431Y0117143D02*
X0212057Y0117143D01*
X0199431Y0117147D02*
X0199431Y0114521D01*
X0199431Y0117147D02*
X0202057Y0117147D01*
X0202057Y0114521D01*
X0199431Y0114521D01*
X0199431Y0115395D02*
X0202057Y0115395D01*
X0202057Y0116269D02*
X0199431Y0116269D01*
X0199431Y0117143D02*
X0202057Y0117143D01*
X0199431Y0120521D02*
X0199431Y0123147D01*
X0202057Y0123147D01*
X0202057Y0120521D01*
X0199431Y0120521D01*
X0199431Y0121395D02*
X0202057Y0121395D01*
X0202057Y0122269D02*
X0199431Y0122269D01*
X0199431Y0123143D02*
X0202057Y0123143D01*
X0199431Y0083147D02*
X0199431Y0080521D01*
X0199431Y0083147D02*
X0202057Y0083147D01*
X0202057Y0080521D01*
X0199431Y0080521D01*
X0199431Y0081395D02*
X0202057Y0081395D01*
X0202057Y0082269D02*
X0199431Y0082269D01*
X0199431Y0083143D02*
X0202057Y0083143D01*
X0209431Y0083147D02*
X0209431Y0080521D01*
X0209431Y0083147D02*
X0212057Y0083147D01*
X0212057Y0080521D01*
X0209431Y0080521D01*
X0209431Y0081395D02*
X0212057Y0081395D01*
X0212057Y0082269D02*
X0209431Y0082269D01*
X0209431Y0083143D02*
X0212057Y0083143D01*
X0209431Y0077147D02*
X0209431Y0074521D01*
X0209431Y0077147D02*
X0212057Y0077147D01*
X0212057Y0074521D01*
X0209431Y0074521D01*
X0209431Y0075395D02*
X0212057Y0075395D01*
X0212057Y0076269D02*
X0209431Y0076269D01*
X0209431Y0077143D02*
X0212057Y0077143D01*
X0199431Y0077147D02*
X0199431Y0074521D01*
X0199431Y0077147D02*
X0202057Y0077147D01*
X0202057Y0074521D01*
X0199431Y0074521D01*
X0199431Y0075395D02*
X0202057Y0075395D01*
X0202057Y0076269D02*
X0199431Y0076269D01*
X0199431Y0077143D02*
X0202057Y0077143D01*
X0249431Y0077147D02*
X0249431Y0074521D01*
X0249431Y0077147D02*
X0252057Y0077147D01*
X0252057Y0074521D01*
X0249431Y0074521D01*
X0249431Y0075395D02*
X0252057Y0075395D01*
X0252057Y0076269D02*
X0249431Y0076269D01*
X0249431Y0077143D02*
X0252057Y0077143D01*
X0249431Y0080521D02*
X0249431Y0083147D01*
X0252057Y0083147D01*
X0252057Y0080521D01*
X0249431Y0080521D01*
X0249431Y0081395D02*
X0252057Y0081395D01*
X0252057Y0082269D02*
X0249431Y0082269D01*
X0249431Y0083143D02*
X0252057Y0083143D01*
X0259431Y0083147D02*
X0259431Y0080521D01*
X0259431Y0083147D02*
X0262057Y0083147D01*
X0262057Y0080521D01*
X0259431Y0080521D01*
X0259431Y0081395D02*
X0262057Y0081395D01*
X0262057Y0082269D02*
X0259431Y0082269D01*
X0259431Y0083143D02*
X0262057Y0083143D01*
X0259431Y0077147D02*
X0259431Y0074521D01*
X0259431Y0077147D02*
X0262057Y0077147D01*
X0262057Y0074521D01*
X0259431Y0074521D01*
X0259431Y0075395D02*
X0262057Y0075395D01*
X0262057Y0076269D02*
X0259431Y0076269D01*
X0259431Y0077143D02*
X0262057Y0077143D01*
X0299431Y0077147D02*
X0299431Y0074521D01*
X0299431Y0077147D02*
X0302057Y0077147D01*
X0302057Y0074521D01*
X0299431Y0074521D01*
X0299431Y0075395D02*
X0302057Y0075395D01*
X0302057Y0076269D02*
X0299431Y0076269D01*
X0299431Y0077143D02*
X0302057Y0077143D01*
X0299431Y0080521D02*
X0299431Y0083147D01*
X0302057Y0083147D01*
X0302057Y0080521D01*
X0299431Y0080521D01*
X0299431Y0081395D02*
X0302057Y0081395D01*
X0302057Y0082269D02*
X0299431Y0082269D01*
X0299431Y0083143D02*
X0302057Y0083143D01*
X0309431Y0083147D02*
X0309431Y0080521D01*
X0309431Y0083147D02*
X0312057Y0083147D01*
X0312057Y0080521D01*
X0309431Y0080521D01*
X0309431Y0081395D02*
X0312057Y0081395D01*
X0312057Y0082269D02*
X0309431Y0082269D01*
X0309431Y0083143D02*
X0312057Y0083143D01*
X0309431Y0077147D02*
X0309431Y0074521D01*
X0309431Y0077147D02*
X0312057Y0077147D01*
X0312057Y0074521D01*
X0309431Y0074521D01*
X0309431Y0075395D02*
X0312057Y0075395D01*
X0312057Y0076269D02*
X0309431Y0076269D01*
X0309431Y0077143D02*
X0312057Y0077143D01*
X0349431Y0077147D02*
X0349431Y0074521D01*
X0349431Y0077147D02*
X0352057Y0077147D01*
X0352057Y0074521D01*
X0349431Y0074521D01*
X0349431Y0075395D02*
X0352057Y0075395D01*
X0352057Y0076269D02*
X0349431Y0076269D01*
X0349431Y0077143D02*
X0352057Y0077143D01*
X0349431Y0080521D02*
X0349431Y0083147D01*
X0352057Y0083147D01*
X0352057Y0080521D01*
X0349431Y0080521D01*
X0349431Y0081395D02*
X0352057Y0081395D01*
X0352057Y0082269D02*
X0349431Y0082269D01*
X0349431Y0083143D02*
X0352057Y0083143D01*
X0359431Y0083147D02*
X0359431Y0080521D01*
X0359431Y0083147D02*
X0362057Y0083147D01*
X0362057Y0080521D01*
X0359431Y0080521D01*
X0359431Y0081395D02*
X0362057Y0081395D01*
X0362057Y0082269D02*
X0359431Y0082269D01*
X0359431Y0083143D02*
X0362057Y0083143D01*
X0359431Y0077147D02*
X0359431Y0074521D01*
X0359431Y0077147D02*
X0362057Y0077147D01*
X0362057Y0074521D01*
X0359431Y0074521D01*
X0359431Y0075395D02*
X0362057Y0075395D01*
X0362057Y0076269D02*
X0359431Y0076269D01*
X0359431Y0077143D02*
X0362057Y0077143D01*
X0399431Y0077147D02*
X0399431Y0074521D01*
X0399431Y0077147D02*
X0402057Y0077147D01*
X0402057Y0074521D01*
X0399431Y0074521D01*
X0399431Y0075395D02*
X0402057Y0075395D01*
X0402057Y0076269D02*
X0399431Y0076269D01*
X0399431Y0077143D02*
X0402057Y0077143D01*
X0399431Y0080521D02*
X0399431Y0083147D01*
X0402057Y0083147D01*
X0402057Y0080521D01*
X0399431Y0080521D01*
X0399431Y0081395D02*
X0402057Y0081395D01*
X0402057Y0082269D02*
X0399431Y0082269D01*
X0399431Y0083143D02*
X0402057Y0083143D01*
X0409431Y0083147D02*
X0409431Y0080521D01*
X0409431Y0083147D02*
X0412057Y0083147D01*
X0412057Y0080521D01*
X0409431Y0080521D01*
X0409431Y0081395D02*
X0412057Y0081395D01*
X0412057Y0082269D02*
X0409431Y0082269D01*
X0409431Y0083143D02*
X0412057Y0083143D01*
X0409431Y0077147D02*
X0409431Y0074521D01*
X0409431Y0077147D02*
X0412057Y0077147D01*
X0412057Y0074521D01*
X0409431Y0074521D01*
X0409431Y0075395D02*
X0412057Y0075395D01*
X0412057Y0076269D02*
X0409431Y0076269D01*
X0409431Y0077143D02*
X0412057Y0077143D01*
X0409431Y0043147D02*
X0409431Y0040521D01*
X0409431Y0043147D02*
X0412057Y0043147D01*
X0412057Y0040521D01*
X0409431Y0040521D01*
X0409431Y0041395D02*
X0412057Y0041395D01*
X0412057Y0042269D02*
X0409431Y0042269D01*
X0409431Y0043143D02*
X0412057Y0043143D01*
X0399431Y0043147D02*
X0399431Y0040521D01*
X0399431Y0043147D02*
X0402057Y0043147D01*
X0402057Y0040521D01*
X0399431Y0040521D01*
X0399431Y0041395D02*
X0402057Y0041395D01*
X0402057Y0042269D02*
X0399431Y0042269D01*
X0399431Y0043143D02*
X0402057Y0043143D01*
X0399431Y0037147D02*
X0399431Y0034521D01*
X0399431Y0037147D02*
X0402057Y0037147D01*
X0402057Y0034521D01*
X0399431Y0034521D01*
X0399431Y0035395D02*
X0402057Y0035395D01*
X0402057Y0036269D02*
X0399431Y0036269D01*
X0399431Y0037143D02*
X0402057Y0037143D01*
X0409431Y0037147D02*
X0409431Y0034521D01*
X0409431Y0037147D02*
X0412057Y0037147D01*
X0412057Y0034521D01*
X0409431Y0034521D01*
X0409431Y0035395D02*
X0412057Y0035395D01*
X0412057Y0036269D02*
X0409431Y0036269D01*
X0409431Y0037143D02*
X0412057Y0037143D01*
X0359431Y0037147D02*
X0359431Y0034521D01*
X0359431Y0037147D02*
X0362057Y0037147D01*
X0362057Y0034521D01*
X0359431Y0034521D01*
X0359431Y0035395D02*
X0362057Y0035395D01*
X0362057Y0036269D02*
X0359431Y0036269D01*
X0359431Y0037143D02*
X0362057Y0037143D01*
X0359431Y0040521D02*
X0359431Y0043147D01*
X0362057Y0043147D01*
X0362057Y0040521D01*
X0359431Y0040521D01*
X0359431Y0041395D02*
X0362057Y0041395D01*
X0362057Y0042269D02*
X0359431Y0042269D01*
X0359431Y0043143D02*
X0362057Y0043143D01*
X0349431Y0043147D02*
X0349431Y0040521D01*
X0349431Y0043147D02*
X0352057Y0043147D01*
X0352057Y0040521D01*
X0349431Y0040521D01*
X0349431Y0041395D02*
X0352057Y0041395D01*
X0352057Y0042269D02*
X0349431Y0042269D01*
X0349431Y0043143D02*
X0352057Y0043143D01*
X0349431Y0037147D02*
X0349431Y0034521D01*
X0349431Y0037147D02*
X0352057Y0037147D01*
X0352057Y0034521D01*
X0349431Y0034521D01*
X0349431Y0035395D02*
X0352057Y0035395D01*
X0352057Y0036269D02*
X0349431Y0036269D01*
X0349431Y0037143D02*
X0352057Y0037143D01*
X0309431Y0037147D02*
X0309431Y0034521D01*
X0309431Y0037147D02*
X0312057Y0037147D01*
X0312057Y0034521D01*
X0309431Y0034521D01*
X0309431Y0035395D02*
X0312057Y0035395D01*
X0312057Y0036269D02*
X0309431Y0036269D01*
X0309431Y0037143D02*
X0312057Y0037143D01*
X0309431Y0040521D02*
X0309431Y0043147D01*
X0312057Y0043147D01*
X0312057Y0040521D01*
X0309431Y0040521D01*
X0309431Y0041395D02*
X0312057Y0041395D01*
X0312057Y0042269D02*
X0309431Y0042269D01*
X0309431Y0043143D02*
X0312057Y0043143D01*
X0299431Y0043147D02*
X0299431Y0040521D01*
X0299431Y0043147D02*
X0302057Y0043147D01*
X0302057Y0040521D01*
X0299431Y0040521D01*
X0299431Y0041395D02*
X0302057Y0041395D01*
X0302057Y0042269D02*
X0299431Y0042269D01*
X0299431Y0043143D02*
X0302057Y0043143D01*
X0299431Y0037147D02*
X0299431Y0034521D01*
X0299431Y0037147D02*
X0302057Y0037147D01*
X0302057Y0034521D01*
X0299431Y0034521D01*
X0299431Y0035395D02*
X0302057Y0035395D01*
X0302057Y0036269D02*
X0299431Y0036269D01*
X0299431Y0037143D02*
X0302057Y0037143D01*
X0259431Y0037147D02*
X0259431Y0034521D01*
X0259431Y0037147D02*
X0262057Y0037147D01*
X0262057Y0034521D01*
X0259431Y0034521D01*
X0259431Y0035395D02*
X0262057Y0035395D01*
X0262057Y0036269D02*
X0259431Y0036269D01*
X0259431Y0037143D02*
X0262057Y0037143D01*
X0259431Y0040521D02*
X0259431Y0043147D01*
X0262057Y0043147D01*
X0262057Y0040521D01*
X0259431Y0040521D01*
X0259431Y0041395D02*
X0262057Y0041395D01*
X0262057Y0042269D02*
X0259431Y0042269D01*
X0259431Y0043143D02*
X0262057Y0043143D01*
X0249431Y0043147D02*
X0249431Y0040521D01*
X0249431Y0043147D02*
X0252057Y0043147D01*
X0252057Y0040521D01*
X0249431Y0040521D01*
X0249431Y0041395D02*
X0252057Y0041395D01*
X0252057Y0042269D02*
X0249431Y0042269D01*
X0249431Y0043143D02*
X0252057Y0043143D01*
X0249431Y0037147D02*
X0249431Y0034521D01*
X0249431Y0037147D02*
X0252057Y0037147D01*
X0252057Y0034521D01*
X0249431Y0034521D01*
X0249431Y0035395D02*
X0252057Y0035395D01*
X0252057Y0036269D02*
X0249431Y0036269D01*
X0249431Y0037143D02*
X0252057Y0037143D01*
X0209431Y0037147D02*
X0209431Y0034521D01*
X0209431Y0037147D02*
X0212057Y0037147D01*
X0212057Y0034521D01*
X0209431Y0034521D01*
X0209431Y0035395D02*
X0212057Y0035395D01*
X0212057Y0036269D02*
X0209431Y0036269D01*
X0209431Y0037143D02*
X0212057Y0037143D01*
X0209431Y0040521D02*
X0209431Y0043147D01*
X0212057Y0043147D01*
X0212057Y0040521D01*
X0209431Y0040521D01*
X0209431Y0041395D02*
X0212057Y0041395D01*
X0212057Y0042269D02*
X0209431Y0042269D01*
X0209431Y0043143D02*
X0212057Y0043143D01*
X0199431Y0043147D02*
X0199431Y0040521D01*
X0199431Y0043147D02*
X0202057Y0043147D01*
X0202057Y0040521D01*
X0199431Y0040521D01*
X0199431Y0041395D02*
X0202057Y0041395D01*
X0202057Y0042269D02*
X0199431Y0042269D01*
X0199431Y0043143D02*
X0202057Y0043143D01*
X0199431Y0037147D02*
X0199431Y0034521D01*
X0199431Y0037147D02*
X0202057Y0037147D01*
X0202057Y0034521D01*
X0199431Y0034521D01*
X0199431Y0035395D02*
X0202057Y0035395D01*
X0202057Y0036269D02*
X0199431Y0036269D01*
X0199431Y0037143D02*
X0202057Y0037143D01*
D13*
X0045744Y0290334D03*
X0045744Y0300334D03*
D14*
X0079445Y0196334D03*
X0092043Y0196334D03*
D15*
X0061244Y0290834D03*
X0061244Y0307834D03*
D16*
X0097909Y0272082D03*
X0097909Y0268933D03*
X0097909Y0265783D03*
X0097909Y0262634D03*
X0097909Y0259484D03*
X0097909Y0256334D03*
X0097909Y0253185D03*
X0097909Y0250035D03*
X0097909Y0246886D03*
X0097909Y0243736D03*
X0097909Y0240586D03*
X0143579Y0240586D03*
X0143579Y0243736D03*
X0143579Y0246886D03*
X0143579Y0250035D03*
X0143579Y0253185D03*
X0143579Y0256334D03*
X0143579Y0259484D03*
X0143579Y0262634D03*
X0143579Y0265783D03*
X0143579Y0268933D03*
X0143579Y0272082D03*
D17*
X0136492Y0279169D03*
X0133342Y0279169D03*
X0130193Y0279169D03*
X0127043Y0279169D03*
X0123894Y0279169D03*
X0120744Y0279169D03*
X0117594Y0279169D03*
X0114445Y0279169D03*
X0111295Y0279169D03*
X0108146Y0279169D03*
X0104996Y0279169D03*
X0104996Y0233500D03*
X0108146Y0233500D03*
X0111295Y0233500D03*
X0114445Y0233500D03*
X0117594Y0233500D03*
X0120744Y0233500D03*
X0123894Y0233500D03*
X0127043Y0233500D03*
X0130193Y0233500D03*
X0133342Y0233500D03*
X0136492Y0233500D03*
D18*
X0140862Y0300094D03*
X0130625Y0300094D03*
X0130625Y0303834D03*
X0130625Y0307575D03*
X0140862Y0307575D03*
D19*
X0090494Y0293834D02*
X0090494Y0290834D01*
X0085994Y0290834D01*
X0085994Y0293834D01*
X0090494Y0293834D01*
X0090494Y0291833D02*
X0085994Y0291833D01*
X0085994Y0292832D02*
X0090494Y0292832D01*
X0090494Y0293831D02*
X0085994Y0293831D01*
X0090494Y0286834D02*
X0090494Y0283834D01*
X0085994Y0283834D01*
X0085994Y0286834D01*
X0090494Y0286834D01*
X0090494Y0284833D02*
X0085994Y0284833D01*
X0085994Y0285832D02*
X0090494Y0285832D01*
X0090494Y0286831D02*
X0085994Y0286831D01*
D20*
X0056744Y0225090D03*
X0039744Y0225090D03*
X0039744Y0192578D03*
X0056744Y0192578D03*
D21*
X0111244Y0201334D03*
X0128244Y0201334D03*
D22*
X0202791Y0147378D03*
X0204760Y0147378D03*
X0206728Y0147378D03*
X0208697Y0147378D03*
X0208697Y0140291D03*
X0206728Y0140291D03*
X0204760Y0140291D03*
X0202791Y0140291D03*
X0202791Y0107378D03*
X0204760Y0107378D03*
X0206728Y0107378D03*
X0208697Y0107378D03*
X0208697Y0100291D03*
X0206728Y0100291D03*
X0204760Y0100291D03*
X0202791Y0100291D03*
X0202791Y0067378D03*
X0204760Y0067378D03*
X0206728Y0067378D03*
X0208697Y0067378D03*
X0208697Y0060291D03*
X0206728Y0060291D03*
X0204760Y0060291D03*
X0202791Y0060291D03*
X0202791Y0027378D03*
X0204760Y0027378D03*
X0206728Y0027378D03*
X0208697Y0027378D03*
X0208697Y0020291D03*
X0206728Y0020291D03*
X0204760Y0020291D03*
X0202791Y0020291D03*
X0252791Y0020291D03*
X0254760Y0020291D03*
X0256728Y0020291D03*
X0258697Y0020291D03*
X0258697Y0027378D03*
X0256728Y0027378D03*
X0254760Y0027378D03*
X0252791Y0027378D03*
X0252791Y0060291D03*
X0254760Y0060291D03*
X0256728Y0060291D03*
X0258697Y0060291D03*
X0258697Y0067378D03*
X0256728Y0067378D03*
X0254760Y0067378D03*
X0252791Y0067378D03*
X0252791Y0100291D03*
X0254760Y0100291D03*
X0256728Y0100291D03*
X0258697Y0100291D03*
X0258697Y0107378D03*
X0256728Y0107378D03*
X0254760Y0107378D03*
X0252791Y0107378D03*
X0252791Y0140291D03*
X0254760Y0140291D03*
X0256728Y0140291D03*
X0258697Y0140291D03*
X0258697Y0147378D03*
X0256728Y0147378D03*
X0254760Y0147378D03*
X0252791Y0147378D03*
X0302791Y0147378D03*
X0304760Y0147378D03*
X0306728Y0147378D03*
X0308697Y0147378D03*
X0308697Y0140291D03*
X0306728Y0140291D03*
X0304760Y0140291D03*
X0302791Y0140291D03*
X0302791Y0107378D03*
X0304760Y0107378D03*
X0306728Y0107378D03*
X0308697Y0107378D03*
X0308697Y0100291D03*
X0306728Y0100291D03*
X0304760Y0100291D03*
X0302791Y0100291D03*
X0302791Y0067378D03*
X0304760Y0067378D03*
X0306728Y0067378D03*
X0308697Y0067378D03*
X0308697Y0060291D03*
X0306728Y0060291D03*
X0304760Y0060291D03*
X0302791Y0060291D03*
X0302791Y0027378D03*
X0304760Y0027378D03*
X0306728Y0027378D03*
X0308697Y0027378D03*
X0308697Y0020291D03*
X0306728Y0020291D03*
X0304760Y0020291D03*
X0302791Y0020291D03*
X0352791Y0020291D03*
X0354760Y0020291D03*
X0356728Y0020291D03*
X0358697Y0020291D03*
X0358697Y0027378D03*
X0356728Y0027378D03*
X0354760Y0027378D03*
X0352791Y0027378D03*
X0352791Y0060291D03*
X0354760Y0060291D03*
X0356728Y0060291D03*
X0358697Y0060291D03*
X0358697Y0067378D03*
X0356728Y0067378D03*
X0354760Y0067378D03*
X0352791Y0067378D03*
X0352791Y0100291D03*
X0354760Y0100291D03*
X0356728Y0100291D03*
X0358697Y0100291D03*
X0358697Y0107378D03*
X0356728Y0107378D03*
X0354760Y0107378D03*
X0352791Y0107378D03*
X0352791Y0140291D03*
X0354760Y0140291D03*
X0356728Y0140291D03*
X0358697Y0140291D03*
X0358697Y0147378D03*
X0356728Y0147378D03*
X0354760Y0147378D03*
X0352791Y0147378D03*
X0402791Y0147378D03*
X0404760Y0147378D03*
X0406728Y0147378D03*
X0408697Y0147378D03*
X0408697Y0140291D03*
X0406728Y0140291D03*
X0404760Y0140291D03*
X0402791Y0140291D03*
X0402791Y0107378D03*
X0404760Y0107378D03*
X0406728Y0107378D03*
X0408697Y0107378D03*
X0408697Y0100291D03*
X0406728Y0100291D03*
X0404760Y0100291D03*
X0402791Y0100291D03*
X0402791Y0067378D03*
X0404760Y0067378D03*
X0406728Y0067378D03*
X0408697Y0067378D03*
X0408697Y0060291D03*
X0406728Y0060291D03*
X0404760Y0060291D03*
X0402791Y0060291D03*
X0402791Y0027378D03*
X0404760Y0027378D03*
X0406728Y0027378D03*
X0408697Y0027378D03*
X0408697Y0020291D03*
X0406728Y0020291D03*
X0404760Y0020291D03*
X0402791Y0020291D03*
D23*
X0402201Y0023834D03*
X0409287Y0023834D03*
X0359287Y0023834D03*
X0352201Y0023834D03*
X0309287Y0023834D03*
X0302201Y0023834D03*
X0259287Y0023834D03*
X0252201Y0023834D03*
X0209287Y0023834D03*
X0202201Y0023834D03*
X0202201Y0063834D03*
X0209287Y0063834D03*
X0252201Y0063834D03*
X0259287Y0063834D03*
X0302201Y0063834D03*
X0309287Y0063834D03*
X0352201Y0063834D03*
X0359287Y0063834D03*
X0402201Y0063834D03*
X0409287Y0063834D03*
X0409287Y0103834D03*
X0402201Y0103834D03*
X0359287Y0103834D03*
X0352201Y0103834D03*
X0309287Y0103834D03*
X0302201Y0103834D03*
X0259287Y0103834D03*
X0252201Y0103834D03*
X0209287Y0103834D03*
X0202201Y0103834D03*
X0202201Y0143834D03*
X0209287Y0143834D03*
X0252201Y0143834D03*
X0259287Y0143834D03*
X0302201Y0143834D03*
X0309287Y0143834D03*
X0352201Y0143834D03*
X0359287Y0143834D03*
X0402201Y0143834D03*
X0409287Y0143834D03*
D24*
X0414544Y0196334D03*
X0414544Y0201334D03*
X0414544Y0206334D03*
X0414544Y0211334D03*
X0414544Y0216334D03*
X0414544Y0221334D03*
X0414544Y0226334D03*
X0414544Y0231334D03*
X0414544Y0236334D03*
X0414544Y0241334D03*
X0414544Y0246334D03*
X0414544Y0251334D03*
X0376944Y0251334D03*
X0376944Y0246334D03*
X0376944Y0241334D03*
X0376944Y0236334D03*
X0376944Y0231334D03*
X0376944Y0226334D03*
X0376944Y0221334D03*
X0376944Y0216334D03*
X0376944Y0211334D03*
X0376944Y0206334D03*
X0376944Y0201334D03*
X0376944Y0196334D03*
X0319544Y0196334D03*
X0319544Y0201334D03*
X0319544Y0206334D03*
X0319544Y0211334D03*
X0319544Y0216334D03*
X0319544Y0221334D03*
X0319544Y0226334D03*
X0319544Y0231334D03*
X0319544Y0236334D03*
X0319544Y0241334D03*
X0319544Y0246334D03*
X0319544Y0251334D03*
X0281944Y0251334D03*
X0281944Y0246334D03*
X0281944Y0241334D03*
X0281944Y0236334D03*
X0281944Y0231334D03*
X0281944Y0226334D03*
X0281944Y0221334D03*
X0281944Y0216334D03*
X0281944Y0211334D03*
X0281944Y0206334D03*
X0281944Y0201334D03*
X0281944Y0196334D03*
X0219544Y0196334D03*
X0219544Y0201334D03*
X0219544Y0206334D03*
X0219544Y0211334D03*
X0219544Y0216334D03*
X0219544Y0221334D03*
X0219544Y0226334D03*
X0219544Y0231334D03*
X0219544Y0236334D03*
X0219544Y0241334D03*
X0219544Y0246334D03*
X0219544Y0251334D03*
X0181944Y0251334D03*
X0181944Y0246334D03*
X0181944Y0241334D03*
X0181944Y0236334D03*
X0181944Y0231334D03*
X0181944Y0226334D03*
X0181944Y0221334D03*
X0181944Y0216334D03*
X0181944Y0211334D03*
X0181944Y0206334D03*
X0181944Y0201334D03*
X0181944Y0196334D03*
D25*
X0059244Y0257634D03*
X0059244Y0260734D03*
X0059244Y0263834D03*
X0059244Y0266934D03*
X0059244Y0270034D03*
M02*
