%
M48
M72
T01C0.01969
T02C0.02362
T03C0.02500
T04C0.03500
%
T01
X255744Y233834
X269744Y245334
X293244Y261334
X295744Y253834
X295744Y238834
X350744Y233834
X364744Y245334
X388244Y261334
X390744Y253834
X390744Y238834
X380744Y191334
X213244Y251334
X198244Y238834
X170744Y243834
X181744Y258834
X120744Y271334
X105744Y258834
X115744Y243834
X123244Y301334
X85744Y306334
X45744Y308834
T02
X200744Y48834
X210744Y48834
X215744Y58834
X250744Y48834
X260744Y48834
X265744Y58834
X300744Y48834
X310744Y48834
X315744Y58834
X350744Y48834
X360744Y48834
X365744Y58834
X400744Y48834
X410744Y48834
X415744Y58834
X410744Y88834
X400744Y88834
X415744Y98834
X410744Y128834
X400744Y128834
X415744Y138834
X410744Y168834
X400744Y168834
X360744Y168834
X350744Y168834
X310744Y168834
X300744Y168834
X285744Y191334
X260744Y168834
X250744Y168834
X210744Y168834
X200744Y168834
X185744Y191334
X131244Y211334
X107744Y211334
X215744Y138834
X210744Y128834
X200744Y128834
X215744Y98834
X210744Y88834
X200744Y88834
X250744Y88834
X260744Y88834
X265744Y98834
X300744Y88834
X310744Y88834
X315744Y98834
X350744Y88834
X360744Y88834
X365744Y98834
X360744Y128834
X350744Y128834
X365744Y138834
X315744Y138834
X310744Y128834
X300744Y128834
X265744Y138834
X260744Y128834
X250744Y128834
X265744Y18834
X315744Y18834
X365744Y18834
X415744Y18834
X215744Y18834
T03
X39744Y248834
X58244Y248834
X58244Y278834
X39744Y278834
T04
X75744Y208834
X85744Y208834
X95744Y208834
X95744Y218834
X85744Y218834
X75744Y218834
M30
