G75*
%MOIN*%
%OFA0B0*%
%FSLAX25Y25*%
%IPPOS*%
%LPD*%
%AMOC8*
5,1,8,0,0,1.08239X$1,22.5*
%
%ADD10C,0.01600*%
%ADD11C,0.01450*%
%ADD12C,0.00975*%
%ADD13R,0.05400X0.05400*%
%ADD14R,0.06306X0.06306*%
%ADD15R,0.12400X0.05400*%
%ADD16R,0.06900X0.06900*%
%ADD17C,0.06900*%
%ADD18R,0.06306X0.02369*%
%ADD19R,0.02369X0.06306*%
%ADD20R,0.05124X0.03117*%
%ADD21C,0.01100*%
%ADD22R,0.05400X0.10400*%
%ADD23R,0.07400X0.08400*%
%ADD24R,0.01378X0.03445*%
%ADD25R,0.03445X0.01378*%
%ADD26R,0.07500X0.02500*%
%ADD27C,0.05400*%
%ADD28R,0.08400X0.02000*%
D10*
X0030744Y0008834D02*
X0030744Y0328834D01*
X0423244Y0328834D01*
X0423244Y0008834D01*
X0030744Y0008834D01*
D11*
X0195019Y0021359D02*
X0195019Y0022809D01*
X0196469Y0022809D01*
X0196469Y0021359D01*
X0195019Y0021359D01*
X0195019Y0022808D02*
X0196469Y0022808D01*
X0195019Y0024859D02*
X0195019Y0026309D01*
X0196469Y0026309D01*
X0196469Y0024859D01*
X0195019Y0024859D01*
X0195019Y0026308D02*
X0196469Y0026308D01*
X0245019Y0026309D02*
X0245019Y0024859D01*
X0245019Y0026309D02*
X0246469Y0026309D01*
X0246469Y0024859D01*
X0245019Y0024859D01*
X0245019Y0026308D02*
X0246469Y0026308D01*
X0245019Y0022809D02*
X0245019Y0021359D01*
X0245019Y0022809D02*
X0246469Y0022809D01*
X0246469Y0021359D01*
X0245019Y0021359D01*
X0245019Y0022808D02*
X0246469Y0022808D01*
X0295019Y0022809D02*
X0295019Y0021359D01*
X0295019Y0022809D02*
X0296469Y0022809D01*
X0296469Y0021359D01*
X0295019Y0021359D01*
X0295019Y0022808D02*
X0296469Y0022808D01*
X0295019Y0024859D02*
X0295019Y0026309D01*
X0296469Y0026309D01*
X0296469Y0024859D01*
X0295019Y0024859D01*
X0295019Y0026308D02*
X0296469Y0026308D01*
X0345019Y0026309D02*
X0345019Y0024859D01*
X0345019Y0026309D02*
X0346469Y0026309D01*
X0346469Y0024859D01*
X0345019Y0024859D01*
X0345019Y0026308D02*
X0346469Y0026308D01*
X0345019Y0022809D02*
X0345019Y0021359D01*
X0345019Y0022809D02*
X0346469Y0022809D01*
X0346469Y0021359D01*
X0345019Y0021359D01*
X0345019Y0022808D02*
X0346469Y0022808D01*
X0395019Y0022809D02*
X0395019Y0021359D01*
X0395019Y0022809D02*
X0396469Y0022809D01*
X0396469Y0021359D01*
X0395019Y0021359D01*
X0395019Y0022808D02*
X0396469Y0022808D01*
X0395019Y0024859D02*
X0395019Y0026309D01*
X0396469Y0026309D01*
X0396469Y0024859D01*
X0395019Y0024859D01*
X0395019Y0026308D02*
X0396469Y0026308D01*
X0395019Y0061359D02*
X0395019Y0062809D01*
X0396469Y0062809D01*
X0396469Y0061359D01*
X0395019Y0061359D01*
X0395019Y0062808D02*
X0396469Y0062808D01*
X0395019Y0064859D02*
X0395019Y0066309D01*
X0396469Y0066309D01*
X0396469Y0064859D01*
X0395019Y0064859D01*
X0395019Y0066308D02*
X0396469Y0066308D01*
X0395019Y0101359D02*
X0395019Y0102809D01*
X0396469Y0102809D01*
X0396469Y0101359D01*
X0395019Y0101359D01*
X0395019Y0102808D02*
X0396469Y0102808D01*
X0395019Y0104859D02*
X0395019Y0106309D01*
X0396469Y0106309D01*
X0396469Y0104859D01*
X0395019Y0104859D01*
X0395019Y0106308D02*
X0396469Y0106308D01*
X0395019Y0141359D02*
X0395019Y0142809D01*
X0396469Y0142809D01*
X0396469Y0141359D01*
X0395019Y0141359D01*
X0395019Y0142808D02*
X0396469Y0142808D01*
X0395019Y0144859D02*
X0395019Y0146309D01*
X0396469Y0146309D01*
X0396469Y0144859D01*
X0395019Y0144859D01*
X0395019Y0146308D02*
X0396469Y0146308D01*
X0345019Y0146309D02*
X0345019Y0144859D01*
X0345019Y0146309D02*
X0346469Y0146309D01*
X0346469Y0144859D01*
X0345019Y0144859D01*
X0345019Y0146308D02*
X0346469Y0146308D01*
X0345019Y0142809D02*
X0345019Y0141359D01*
X0345019Y0142809D02*
X0346469Y0142809D01*
X0346469Y0141359D01*
X0345019Y0141359D01*
X0345019Y0142808D02*
X0346469Y0142808D01*
X0295019Y0142809D02*
X0295019Y0141359D01*
X0295019Y0142809D02*
X0296469Y0142809D01*
X0296469Y0141359D01*
X0295019Y0141359D01*
X0295019Y0142808D02*
X0296469Y0142808D01*
X0295019Y0144859D02*
X0295019Y0146309D01*
X0296469Y0146309D01*
X0296469Y0144859D01*
X0295019Y0144859D01*
X0295019Y0146308D02*
X0296469Y0146308D01*
X0245019Y0146309D02*
X0245019Y0144859D01*
X0245019Y0146309D02*
X0246469Y0146309D01*
X0246469Y0144859D01*
X0245019Y0144859D01*
X0245019Y0146308D02*
X0246469Y0146308D01*
X0245019Y0142809D02*
X0245019Y0141359D01*
X0245019Y0142809D02*
X0246469Y0142809D01*
X0246469Y0141359D01*
X0245019Y0141359D01*
X0245019Y0142808D02*
X0246469Y0142808D01*
X0195019Y0142809D02*
X0195019Y0141359D01*
X0195019Y0142809D02*
X0196469Y0142809D01*
X0196469Y0141359D01*
X0195019Y0141359D01*
X0195019Y0142808D02*
X0196469Y0142808D01*
X0195019Y0144859D02*
X0195019Y0146309D01*
X0196469Y0146309D01*
X0196469Y0144859D01*
X0195019Y0144859D01*
X0195019Y0146308D02*
X0196469Y0146308D01*
X0195019Y0106309D02*
X0195019Y0104859D01*
X0195019Y0106309D02*
X0196469Y0106309D01*
X0196469Y0104859D01*
X0195019Y0104859D01*
X0195019Y0106308D02*
X0196469Y0106308D01*
X0195019Y0102809D02*
X0195019Y0101359D01*
X0195019Y0102809D02*
X0196469Y0102809D01*
X0196469Y0101359D01*
X0195019Y0101359D01*
X0195019Y0102808D02*
X0196469Y0102808D01*
X0245019Y0102809D02*
X0245019Y0101359D01*
X0245019Y0102809D02*
X0246469Y0102809D01*
X0246469Y0101359D01*
X0245019Y0101359D01*
X0245019Y0102808D02*
X0246469Y0102808D01*
X0245019Y0104859D02*
X0245019Y0106309D01*
X0246469Y0106309D01*
X0246469Y0104859D01*
X0245019Y0104859D01*
X0245019Y0106308D02*
X0246469Y0106308D01*
X0295019Y0106309D02*
X0295019Y0104859D01*
X0295019Y0106309D02*
X0296469Y0106309D01*
X0296469Y0104859D01*
X0295019Y0104859D01*
X0295019Y0106308D02*
X0296469Y0106308D01*
X0295019Y0102809D02*
X0295019Y0101359D01*
X0295019Y0102809D02*
X0296469Y0102809D01*
X0296469Y0101359D01*
X0295019Y0101359D01*
X0295019Y0102808D02*
X0296469Y0102808D01*
X0345019Y0102809D02*
X0345019Y0101359D01*
X0345019Y0102809D02*
X0346469Y0102809D01*
X0346469Y0101359D01*
X0345019Y0101359D01*
X0345019Y0102808D02*
X0346469Y0102808D01*
X0345019Y0104859D02*
X0345019Y0106309D01*
X0346469Y0106309D01*
X0346469Y0104859D01*
X0345019Y0104859D01*
X0345019Y0106308D02*
X0346469Y0106308D01*
X0345019Y0066309D02*
X0345019Y0064859D01*
X0345019Y0066309D02*
X0346469Y0066309D01*
X0346469Y0064859D01*
X0345019Y0064859D01*
X0345019Y0066308D02*
X0346469Y0066308D01*
X0345019Y0062809D02*
X0345019Y0061359D01*
X0345019Y0062809D02*
X0346469Y0062809D01*
X0346469Y0061359D01*
X0345019Y0061359D01*
X0345019Y0062808D02*
X0346469Y0062808D01*
X0295019Y0062809D02*
X0295019Y0061359D01*
X0295019Y0062809D02*
X0296469Y0062809D01*
X0296469Y0061359D01*
X0295019Y0061359D01*
X0295019Y0062808D02*
X0296469Y0062808D01*
X0295019Y0064859D02*
X0295019Y0066309D01*
X0296469Y0066309D01*
X0296469Y0064859D01*
X0295019Y0064859D01*
X0295019Y0066308D02*
X0296469Y0066308D01*
X0245019Y0066309D02*
X0245019Y0064859D01*
X0245019Y0066309D02*
X0246469Y0066309D01*
X0246469Y0064859D01*
X0245019Y0064859D01*
X0245019Y0066308D02*
X0246469Y0066308D01*
X0245019Y0062809D02*
X0245019Y0061359D01*
X0245019Y0062809D02*
X0246469Y0062809D01*
X0246469Y0061359D01*
X0245019Y0061359D01*
X0245019Y0062808D02*
X0246469Y0062808D01*
X0195019Y0062809D02*
X0195019Y0061359D01*
X0195019Y0062809D02*
X0196469Y0062809D01*
X0196469Y0061359D01*
X0195019Y0061359D01*
X0195019Y0062808D02*
X0196469Y0062808D01*
X0195019Y0064859D02*
X0195019Y0066309D01*
X0196469Y0066309D01*
X0196469Y0064859D01*
X0195019Y0064859D01*
X0195019Y0066308D02*
X0196469Y0066308D01*
X0088219Y0185609D02*
X0086769Y0185609D01*
X0086769Y0187059D01*
X0088219Y0187059D01*
X0088219Y0185609D01*
X0088219Y0187058D02*
X0086769Y0187058D01*
X0084719Y0185609D02*
X0083269Y0185609D01*
X0083269Y0187059D01*
X0084719Y0187059D01*
X0084719Y0185609D01*
X0084719Y0187058D02*
X0083269Y0187058D01*
X0153969Y0250359D02*
X0153969Y0251809D01*
X0153969Y0250359D02*
X0152519Y0250359D01*
X0152519Y0251809D01*
X0153969Y0251809D01*
X0153969Y0251808D02*
X0152519Y0251808D01*
X0153969Y0253859D02*
X0153969Y0255309D01*
X0153969Y0253859D02*
X0152519Y0253859D01*
X0152519Y0255309D01*
X0153969Y0255309D01*
X0153969Y0255308D02*
X0152519Y0255308D01*
X0152219Y0268109D02*
X0150769Y0268109D01*
X0150769Y0269559D01*
X0152219Y0269559D01*
X0152219Y0268109D01*
X0152219Y0269558D02*
X0150769Y0269558D01*
X0154269Y0268109D02*
X0155719Y0268109D01*
X0154269Y0268109D02*
X0154269Y0269559D01*
X0155719Y0269559D01*
X0155719Y0268109D01*
X0155719Y0269558D02*
X0154269Y0269558D01*
X0145019Y0281359D02*
X0145019Y0282809D01*
X0146469Y0282809D01*
X0146469Y0281359D01*
X0145019Y0281359D01*
X0145019Y0282808D02*
X0146469Y0282808D01*
X0145019Y0284859D02*
X0145019Y0286309D01*
X0146469Y0286309D01*
X0146469Y0284859D01*
X0145019Y0284859D01*
X0145019Y0286308D02*
X0146469Y0286308D01*
X0137219Y0287059D02*
X0135769Y0287059D01*
X0137219Y0287059D02*
X0137219Y0285609D01*
X0135769Y0285609D01*
X0135769Y0287059D01*
X0135769Y0287058D02*
X0137219Y0287058D01*
X0133719Y0287059D02*
X0132269Y0287059D01*
X0133719Y0287059D02*
X0133719Y0285609D01*
X0132269Y0285609D01*
X0132269Y0287059D01*
X0132269Y0287058D02*
X0133719Y0287058D01*
X0112219Y0288059D02*
X0110769Y0288059D01*
X0112219Y0288059D02*
X0112219Y0286609D01*
X0110769Y0286609D01*
X0110769Y0288059D01*
X0110769Y0288058D02*
X0112219Y0288058D01*
X0108719Y0288059D02*
X0107269Y0288059D01*
X0108719Y0288059D02*
X0108719Y0286609D01*
X0107269Y0286609D01*
X0107269Y0288059D01*
X0107269Y0288058D02*
X0108719Y0288058D01*
X0099969Y0287809D02*
X0099969Y0286359D01*
X0098519Y0286359D01*
X0098519Y0287809D01*
X0099969Y0287809D01*
X0099969Y0287808D02*
X0098519Y0287808D01*
X0099969Y0289859D02*
X0099969Y0291309D01*
X0099969Y0289859D02*
X0098519Y0289859D01*
X0098519Y0291309D01*
X0099969Y0291309D01*
X0099969Y0291308D02*
X0098519Y0291308D01*
X0078219Y0298109D02*
X0076769Y0298109D01*
X0076769Y0299559D01*
X0078219Y0299559D01*
X0078219Y0298109D01*
X0078219Y0299558D02*
X0076769Y0299558D01*
X0074719Y0298109D02*
X0073269Y0298109D01*
X0073269Y0299559D01*
X0074719Y0299559D01*
X0074719Y0298109D01*
X0074719Y0299558D02*
X0073269Y0299558D01*
X0073269Y0307059D02*
X0074719Y0307059D01*
X0074719Y0305609D01*
X0073269Y0305609D01*
X0073269Y0307059D01*
X0073269Y0307058D02*
X0074719Y0307058D01*
X0076769Y0307059D02*
X0078219Y0307059D01*
X0078219Y0305609D01*
X0076769Y0305609D01*
X0076769Y0307059D01*
X0076769Y0307058D02*
X0078219Y0307058D01*
X0078219Y0313109D02*
X0076769Y0313109D01*
X0076769Y0314559D01*
X0078219Y0314559D01*
X0078219Y0313109D01*
X0078219Y0314558D02*
X0076769Y0314558D01*
X0074719Y0313109D02*
X0073269Y0313109D01*
X0073269Y0314559D01*
X0074719Y0314559D01*
X0074719Y0313109D01*
X0074719Y0314558D02*
X0073269Y0314558D01*
X0150019Y0306309D02*
X0150019Y0304859D01*
X0150019Y0306309D02*
X0151469Y0306309D01*
X0151469Y0304859D01*
X0150019Y0304859D01*
X0150019Y0306308D02*
X0151469Y0306308D01*
X0150019Y0302809D02*
X0150019Y0301359D01*
X0150019Y0302809D02*
X0151469Y0302809D01*
X0151469Y0301359D01*
X0150019Y0301359D01*
X0150019Y0302808D02*
X0151469Y0302808D01*
X0198269Y0260609D02*
X0199719Y0260609D01*
X0198269Y0260609D02*
X0198269Y0262059D01*
X0199719Y0262059D01*
X0199719Y0260609D01*
X0199719Y0262058D02*
X0198269Y0262058D01*
X0201769Y0260609D02*
X0203219Y0260609D01*
X0201769Y0260609D02*
X0201769Y0262059D01*
X0203219Y0262059D01*
X0203219Y0260609D01*
X0203219Y0262058D02*
X0201769Y0262058D01*
X0298269Y0260609D02*
X0299719Y0260609D01*
X0298269Y0260609D02*
X0298269Y0262059D01*
X0299719Y0262059D01*
X0299719Y0260609D01*
X0299719Y0262058D02*
X0298269Y0262058D01*
X0301769Y0260609D02*
X0303219Y0260609D01*
X0301769Y0260609D02*
X0301769Y0262059D01*
X0303219Y0262059D01*
X0303219Y0260609D01*
X0303219Y0262058D02*
X0301769Y0262058D01*
X0393269Y0260609D02*
X0394719Y0260609D01*
X0393269Y0260609D02*
X0393269Y0262059D01*
X0394719Y0262059D01*
X0394719Y0260609D01*
X0394719Y0262058D02*
X0393269Y0262058D01*
X0396769Y0260609D02*
X0398219Y0260609D01*
X0396769Y0260609D02*
X0396769Y0262059D01*
X0398219Y0262059D01*
X0398219Y0260609D01*
X0398219Y0262058D02*
X0396769Y0262058D01*
X0079219Y0252059D02*
X0077769Y0252059D01*
X0079219Y0252059D02*
X0079219Y0250609D01*
X0077769Y0250609D01*
X0077769Y0252059D01*
X0077769Y0252058D02*
X0079219Y0252058D01*
X0075719Y0252059D02*
X0074269Y0252059D01*
X0075719Y0252059D02*
X0075719Y0250609D01*
X0074269Y0250609D01*
X0074269Y0252059D01*
X0074269Y0252058D02*
X0075719Y0252058D01*
D12*
X0066781Y0252297D02*
X0066781Y0249371D01*
X0066781Y0252297D02*
X0069707Y0252297D01*
X0069707Y0249371D01*
X0066781Y0249371D01*
X0066781Y0250345D02*
X0069707Y0250345D01*
X0069707Y0251319D02*
X0066781Y0251319D01*
X0066781Y0252293D02*
X0069707Y0252293D01*
X0066781Y0255371D02*
X0066781Y0258297D01*
X0069707Y0258297D01*
X0069707Y0255371D01*
X0066781Y0255371D01*
X0066781Y0256345D02*
X0069707Y0256345D01*
X0069707Y0257319D02*
X0066781Y0257319D01*
X0066781Y0258293D02*
X0069707Y0258293D01*
X0073781Y0257371D02*
X0076707Y0257371D01*
X0073781Y0257371D02*
X0073781Y0260297D01*
X0076707Y0260297D01*
X0076707Y0257371D01*
X0076707Y0258345D02*
X0073781Y0258345D01*
X0073781Y0259319D02*
X0076707Y0259319D01*
X0076707Y0260293D02*
X0073781Y0260293D01*
X0079781Y0257371D02*
X0082707Y0257371D01*
X0079781Y0257371D02*
X0079781Y0260297D01*
X0082707Y0260297D01*
X0082707Y0257371D01*
X0082707Y0258345D02*
X0079781Y0258345D01*
X0079781Y0259319D02*
X0082707Y0259319D01*
X0082707Y0260293D02*
X0079781Y0260293D01*
X0079781Y0269871D02*
X0082707Y0269871D01*
X0079781Y0269871D02*
X0079781Y0272797D01*
X0082707Y0272797D01*
X0082707Y0269871D01*
X0082707Y0270845D02*
X0079781Y0270845D01*
X0079781Y0271819D02*
X0082707Y0271819D01*
X0082707Y0272793D02*
X0079781Y0272793D01*
X0076707Y0269871D02*
X0073781Y0269871D01*
X0073781Y0272797D01*
X0076707Y0272797D01*
X0076707Y0269871D01*
X0076707Y0270845D02*
X0073781Y0270845D01*
X0073781Y0271819D02*
X0076707Y0271819D01*
X0076707Y0272793D02*
X0073781Y0272793D01*
X0069707Y0271871D02*
X0069707Y0274797D01*
X0069707Y0271871D02*
X0066781Y0271871D01*
X0066781Y0274797D01*
X0069707Y0274797D01*
X0069707Y0272845D02*
X0066781Y0272845D01*
X0066781Y0273819D02*
X0069707Y0273819D01*
X0069707Y0274793D02*
X0066781Y0274793D01*
X0069707Y0277871D02*
X0069707Y0280797D01*
X0069707Y0277871D02*
X0066781Y0277871D01*
X0066781Y0280797D01*
X0069707Y0280797D01*
X0069707Y0278845D02*
X0066781Y0278845D01*
X0066781Y0279819D02*
X0069707Y0279819D01*
X0069707Y0280793D02*
X0066781Y0280793D01*
X0085781Y0311621D02*
X0088707Y0311621D01*
X0085781Y0311621D02*
X0085781Y0316047D01*
X0088707Y0316047D01*
X0088707Y0311621D01*
X0088707Y0312595D02*
X0085781Y0312595D01*
X0085781Y0313569D02*
X0088707Y0313569D01*
X0088707Y0314543D02*
X0085781Y0314543D01*
X0085781Y0315517D02*
X0088707Y0315517D01*
X0092781Y0311621D02*
X0095707Y0311621D01*
X0092781Y0311621D02*
X0092781Y0316047D01*
X0095707Y0316047D01*
X0095707Y0311621D01*
X0095707Y0312595D02*
X0092781Y0312595D01*
X0092781Y0313569D02*
X0095707Y0313569D01*
X0095707Y0314543D02*
X0092781Y0314543D01*
X0092781Y0315517D02*
X0095707Y0315517D01*
X0166031Y0270297D02*
X0166031Y0267371D01*
X0166031Y0270297D02*
X0170457Y0270297D01*
X0170457Y0267371D01*
X0166031Y0267371D01*
X0166031Y0268345D02*
X0170457Y0268345D01*
X0170457Y0269319D02*
X0166031Y0269319D01*
X0166031Y0270293D02*
X0170457Y0270293D01*
X0166031Y0263297D02*
X0166031Y0260371D01*
X0166031Y0263297D02*
X0170457Y0263297D01*
X0170457Y0260371D01*
X0166031Y0260371D01*
X0166031Y0261345D02*
X0170457Y0261345D01*
X0170457Y0262319D02*
X0166031Y0262319D01*
X0166031Y0263293D02*
X0170457Y0263293D01*
X0162207Y0253297D02*
X0162207Y0250371D01*
X0159281Y0250371D01*
X0159281Y0253297D01*
X0162207Y0253297D01*
X0162207Y0251345D02*
X0159281Y0251345D01*
X0159281Y0252319D02*
X0162207Y0252319D01*
X0162207Y0253293D02*
X0159281Y0253293D01*
X0162207Y0247297D02*
X0162207Y0244371D01*
X0159281Y0244371D01*
X0159281Y0247297D01*
X0162207Y0247297D01*
X0162207Y0245345D02*
X0159281Y0245345D01*
X0159281Y0246319D02*
X0162207Y0246319D01*
X0162207Y0247293D02*
X0159281Y0247293D01*
X0147207Y0233297D02*
X0147207Y0230371D01*
X0144281Y0230371D01*
X0144281Y0233297D01*
X0147207Y0233297D01*
X0147207Y0231345D02*
X0144281Y0231345D01*
X0144281Y0232319D02*
X0147207Y0232319D01*
X0147207Y0233293D02*
X0144281Y0233293D01*
X0147207Y0227297D02*
X0147207Y0224371D01*
X0144281Y0224371D01*
X0144281Y0227297D01*
X0147207Y0227297D01*
X0147207Y0225345D02*
X0144281Y0225345D01*
X0144281Y0226319D02*
X0147207Y0226319D01*
X0147207Y0227293D02*
X0144281Y0227293D01*
X0132707Y0220297D02*
X0129781Y0220297D01*
X0132707Y0220297D02*
X0132707Y0217371D01*
X0129781Y0217371D01*
X0129781Y0220297D01*
X0129781Y0218345D02*
X0132707Y0218345D01*
X0132707Y0219319D02*
X0129781Y0219319D01*
X0129781Y0220293D02*
X0132707Y0220293D01*
X0126707Y0220297D02*
X0123781Y0220297D01*
X0126707Y0220297D02*
X0126707Y0217371D01*
X0123781Y0217371D01*
X0123781Y0220297D01*
X0123781Y0218345D02*
X0126707Y0218345D01*
X0126707Y0219319D02*
X0123781Y0219319D01*
X0123781Y0220293D02*
X0126707Y0220293D01*
X0115207Y0217371D02*
X0112281Y0217371D01*
X0112281Y0220297D01*
X0115207Y0220297D01*
X0115207Y0217371D01*
X0115207Y0218345D02*
X0112281Y0218345D01*
X0112281Y0219319D02*
X0115207Y0219319D01*
X0115207Y0220293D02*
X0112281Y0220293D01*
X0109207Y0217371D02*
X0106281Y0217371D01*
X0106281Y0220297D01*
X0109207Y0220297D01*
X0109207Y0217371D01*
X0109207Y0218345D02*
X0106281Y0218345D01*
X0106281Y0219319D02*
X0109207Y0219319D01*
X0109207Y0220293D02*
X0106281Y0220293D01*
X0199281Y0163297D02*
X0199281Y0160371D01*
X0199281Y0163297D02*
X0202207Y0163297D01*
X0202207Y0160371D01*
X0199281Y0160371D01*
X0199281Y0161345D02*
X0202207Y0161345D01*
X0202207Y0162319D02*
X0199281Y0162319D01*
X0199281Y0163293D02*
X0202207Y0163293D01*
X0199281Y0157297D02*
X0199281Y0154371D01*
X0199281Y0157297D02*
X0202207Y0157297D01*
X0202207Y0154371D01*
X0199281Y0154371D01*
X0199281Y0155345D02*
X0202207Y0155345D01*
X0202207Y0156319D02*
X0199281Y0156319D01*
X0199281Y0157293D02*
X0202207Y0157293D01*
X0209281Y0157297D02*
X0209281Y0154371D01*
X0209281Y0157297D02*
X0212207Y0157297D01*
X0212207Y0154371D01*
X0209281Y0154371D01*
X0209281Y0155345D02*
X0212207Y0155345D01*
X0212207Y0156319D02*
X0209281Y0156319D01*
X0209281Y0157293D02*
X0212207Y0157293D01*
X0209281Y0160371D02*
X0209281Y0163297D01*
X0212207Y0163297D01*
X0212207Y0160371D01*
X0209281Y0160371D01*
X0209281Y0161345D02*
X0212207Y0161345D01*
X0212207Y0162319D02*
X0209281Y0162319D01*
X0209281Y0163293D02*
X0212207Y0163293D01*
X0249281Y0163297D02*
X0249281Y0160371D01*
X0249281Y0163297D02*
X0252207Y0163297D01*
X0252207Y0160371D01*
X0249281Y0160371D01*
X0249281Y0161345D02*
X0252207Y0161345D01*
X0252207Y0162319D02*
X0249281Y0162319D01*
X0249281Y0163293D02*
X0252207Y0163293D01*
X0249281Y0157297D02*
X0249281Y0154371D01*
X0249281Y0157297D02*
X0252207Y0157297D01*
X0252207Y0154371D01*
X0249281Y0154371D01*
X0249281Y0155345D02*
X0252207Y0155345D01*
X0252207Y0156319D02*
X0249281Y0156319D01*
X0249281Y0157293D02*
X0252207Y0157293D01*
X0259281Y0157297D02*
X0259281Y0154371D01*
X0259281Y0157297D02*
X0262207Y0157297D01*
X0262207Y0154371D01*
X0259281Y0154371D01*
X0259281Y0155345D02*
X0262207Y0155345D01*
X0262207Y0156319D02*
X0259281Y0156319D01*
X0259281Y0157293D02*
X0262207Y0157293D01*
X0259281Y0160371D02*
X0259281Y0163297D01*
X0262207Y0163297D01*
X0262207Y0160371D01*
X0259281Y0160371D01*
X0259281Y0161345D02*
X0262207Y0161345D01*
X0262207Y0162319D02*
X0259281Y0162319D01*
X0259281Y0163293D02*
X0262207Y0163293D01*
X0299281Y0163297D02*
X0299281Y0160371D01*
X0299281Y0163297D02*
X0302207Y0163297D01*
X0302207Y0160371D01*
X0299281Y0160371D01*
X0299281Y0161345D02*
X0302207Y0161345D01*
X0302207Y0162319D02*
X0299281Y0162319D01*
X0299281Y0163293D02*
X0302207Y0163293D01*
X0299281Y0157297D02*
X0299281Y0154371D01*
X0299281Y0157297D02*
X0302207Y0157297D01*
X0302207Y0154371D01*
X0299281Y0154371D01*
X0299281Y0155345D02*
X0302207Y0155345D01*
X0302207Y0156319D02*
X0299281Y0156319D01*
X0299281Y0157293D02*
X0302207Y0157293D01*
X0309281Y0157297D02*
X0309281Y0154371D01*
X0309281Y0157297D02*
X0312207Y0157297D01*
X0312207Y0154371D01*
X0309281Y0154371D01*
X0309281Y0155345D02*
X0312207Y0155345D01*
X0312207Y0156319D02*
X0309281Y0156319D01*
X0309281Y0157293D02*
X0312207Y0157293D01*
X0309281Y0160371D02*
X0309281Y0163297D01*
X0312207Y0163297D01*
X0312207Y0160371D01*
X0309281Y0160371D01*
X0309281Y0161345D02*
X0312207Y0161345D01*
X0312207Y0162319D02*
X0309281Y0162319D01*
X0309281Y0163293D02*
X0312207Y0163293D01*
X0349281Y0163297D02*
X0349281Y0160371D01*
X0349281Y0163297D02*
X0352207Y0163297D01*
X0352207Y0160371D01*
X0349281Y0160371D01*
X0349281Y0161345D02*
X0352207Y0161345D01*
X0352207Y0162319D02*
X0349281Y0162319D01*
X0349281Y0163293D02*
X0352207Y0163293D01*
X0349281Y0157297D02*
X0349281Y0154371D01*
X0349281Y0157297D02*
X0352207Y0157297D01*
X0352207Y0154371D01*
X0349281Y0154371D01*
X0349281Y0155345D02*
X0352207Y0155345D01*
X0352207Y0156319D02*
X0349281Y0156319D01*
X0349281Y0157293D02*
X0352207Y0157293D01*
X0359281Y0157297D02*
X0359281Y0154371D01*
X0359281Y0157297D02*
X0362207Y0157297D01*
X0362207Y0154371D01*
X0359281Y0154371D01*
X0359281Y0155345D02*
X0362207Y0155345D01*
X0362207Y0156319D02*
X0359281Y0156319D01*
X0359281Y0157293D02*
X0362207Y0157293D01*
X0359281Y0160371D02*
X0359281Y0163297D01*
X0362207Y0163297D01*
X0362207Y0160371D01*
X0359281Y0160371D01*
X0359281Y0161345D02*
X0362207Y0161345D01*
X0362207Y0162319D02*
X0359281Y0162319D01*
X0359281Y0163293D02*
X0362207Y0163293D01*
X0399281Y0163297D02*
X0399281Y0160371D01*
X0399281Y0163297D02*
X0402207Y0163297D01*
X0402207Y0160371D01*
X0399281Y0160371D01*
X0399281Y0161345D02*
X0402207Y0161345D01*
X0402207Y0162319D02*
X0399281Y0162319D01*
X0399281Y0163293D02*
X0402207Y0163293D01*
X0399281Y0157297D02*
X0399281Y0154371D01*
X0399281Y0157297D02*
X0402207Y0157297D01*
X0402207Y0154371D01*
X0399281Y0154371D01*
X0399281Y0155345D02*
X0402207Y0155345D01*
X0402207Y0156319D02*
X0399281Y0156319D01*
X0399281Y0157293D02*
X0402207Y0157293D01*
X0409281Y0157297D02*
X0409281Y0154371D01*
X0409281Y0157297D02*
X0412207Y0157297D01*
X0412207Y0154371D01*
X0409281Y0154371D01*
X0409281Y0155345D02*
X0412207Y0155345D01*
X0412207Y0156319D02*
X0409281Y0156319D01*
X0409281Y0157293D02*
X0412207Y0157293D01*
X0409281Y0160371D02*
X0409281Y0163297D01*
X0412207Y0163297D01*
X0412207Y0160371D01*
X0409281Y0160371D01*
X0409281Y0161345D02*
X0412207Y0161345D01*
X0412207Y0162319D02*
X0409281Y0162319D01*
X0409281Y0163293D02*
X0412207Y0163293D01*
X0409281Y0123297D02*
X0409281Y0120371D01*
X0409281Y0123297D02*
X0412207Y0123297D01*
X0412207Y0120371D01*
X0409281Y0120371D01*
X0409281Y0121345D02*
X0412207Y0121345D01*
X0412207Y0122319D02*
X0409281Y0122319D01*
X0409281Y0123293D02*
X0412207Y0123293D01*
X0409281Y0117297D02*
X0409281Y0114371D01*
X0409281Y0117297D02*
X0412207Y0117297D01*
X0412207Y0114371D01*
X0409281Y0114371D01*
X0409281Y0115345D02*
X0412207Y0115345D01*
X0412207Y0116319D02*
X0409281Y0116319D01*
X0409281Y0117293D02*
X0412207Y0117293D01*
X0399281Y0117297D02*
X0399281Y0114371D01*
X0399281Y0117297D02*
X0402207Y0117297D01*
X0402207Y0114371D01*
X0399281Y0114371D01*
X0399281Y0115345D02*
X0402207Y0115345D01*
X0402207Y0116319D02*
X0399281Y0116319D01*
X0399281Y0117293D02*
X0402207Y0117293D01*
X0399281Y0120371D02*
X0399281Y0123297D01*
X0402207Y0123297D01*
X0402207Y0120371D01*
X0399281Y0120371D01*
X0399281Y0121345D02*
X0402207Y0121345D01*
X0402207Y0122319D02*
X0399281Y0122319D01*
X0399281Y0123293D02*
X0402207Y0123293D01*
X0359281Y0123297D02*
X0359281Y0120371D01*
X0359281Y0123297D02*
X0362207Y0123297D01*
X0362207Y0120371D01*
X0359281Y0120371D01*
X0359281Y0121345D02*
X0362207Y0121345D01*
X0362207Y0122319D02*
X0359281Y0122319D01*
X0359281Y0123293D02*
X0362207Y0123293D01*
X0359281Y0117297D02*
X0359281Y0114371D01*
X0359281Y0117297D02*
X0362207Y0117297D01*
X0362207Y0114371D01*
X0359281Y0114371D01*
X0359281Y0115345D02*
X0362207Y0115345D01*
X0362207Y0116319D02*
X0359281Y0116319D01*
X0359281Y0117293D02*
X0362207Y0117293D01*
X0349281Y0117297D02*
X0349281Y0114371D01*
X0349281Y0117297D02*
X0352207Y0117297D01*
X0352207Y0114371D01*
X0349281Y0114371D01*
X0349281Y0115345D02*
X0352207Y0115345D01*
X0352207Y0116319D02*
X0349281Y0116319D01*
X0349281Y0117293D02*
X0352207Y0117293D01*
X0349281Y0120371D02*
X0349281Y0123297D01*
X0352207Y0123297D01*
X0352207Y0120371D01*
X0349281Y0120371D01*
X0349281Y0121345D02*
X0352207Y0121345D01*
X0352207Y0122319D02*
X0349281Y0122319D01*
X0349281Y0123293D02*
X0352207Y0123293D01*
X0309281Y0123297D02*
X0309281Y0120371D01*
X0309281Y0123297D02*
X0312207Y0123297D01*
X0312207Y0120371D01*
X0309281Y0120371D01*
X0309281Y0121345D02*
X0312207Y0121345D01*
X0312207Y0122319D02*
X0309281Y0122319D01*
X0309281Y0123293D02*
X0312207Y0123293D01*
X0309281Y0117297D02*
X0309281Y0114371D01*
X0309281Y0117297D02*
X0312207Y0117297D01*
X0312207Y0114371D01*
X0309281Y0114371D01*
X0309281Y0115345D02*
X0312207Y0115345D01*
X0312207Y0116319D02*
X0309281Y0116319D01*
X0309281Y0117293D02*
X0312207Y0117293D01*
X0299281Y0117297D02*
X0299281Y0114371D01*
X0299281Y0117297D02*
X0302207Y0117297D01*
X0302207Y0114371D01*
X0299281Y0114371D01*
X0299281Y0115345D02*
X0302207Y0115345D01*
X0302207Y0116319D02*
X0299281Y0116319D01*
X0299281Y0117293D02*
X0302207Y0117293D01*
X0299281Y0120371D02*
X0299281Y0123297D01*
X0302207Y0123297D01*
X0302207Y0120371D01*
X0299281Y0120371D01*
X0299281Y0121345D02*
X0302207Y0121345D01*
X0302207Y0122319D02*
X0299281Y0122319D01*
X0299281Y0123293D02*
X0302207Y0123293D01*
X0259281Y0123297D02*
X0259281Y0120371D01*
X0259281Y0123297D02*
X0262207Y0123297D01*
X0262207Y0120371D01*
X0259281Y0120371D01*
X0259281Y0121345D02*
X0262207Y0121345D01*
X0262207Y0122319D02*
X0259281Y0122319D01*
X0259281Y0123293D02*
X0262207Y0123293D01*
X0259281Y0117297D02*
X0259281Y0114371D01*
X0259281Y0117297D02*
X0262207Y0117297D01*
X0262207Y0114371D01*
X0259281Y0114371D01*
X0259281Y0115345D02*
X0262207Y0115345D01*
X0262207Y0116319D02*
X0259281Y0116319D01*
X0259281Y0117293D02*
X0262207Y0117293D01*
X0249281Y0117297D02*
X0249281Y0114371D01*
X0249281Y0117297D02*
X0252207Y0117297D01*
X0252207Y0114371D01*
X0249281Y0114371D01*
X0249281Y0115345D02*
X0252207Y0115345D01*
X0252207Y0116319D02*
X0249281Y0116319D01*
X0249281Y0117293D02*
X0252207Y0117293D01*
X0249281Y0120371D02*
X0249281Y0123297D01*
X0252207Y0123297D01*
X0252207Y0120371D01*
X0249281Y0120371D01*
X0249281Y0121345D02*
X0252207Y0121345D01*
X0252207Y0122319D02*
X0249281Y0122319D01*
X0249281Y0123293D02*
X0252207Y0123293D01*
X0209281Y0123297D02*
X0209281Y0120371D01*
X0209281Y0123297D02*
X0212207Y0123297D01*
X0212207Y0120371D01*
X0209281Y0120371D01*
X0209281Y0121345D02*
X0212207Y0121345D01*
X0212207Y0122319D02*
X0209281Y0122319D01*
X0209281Y0123293D02*
X0212207Y0123293D01*
X0209281Y0117297D02*
X0209281Y0114371D01*
X0209281Y0117297D02*
X0212207Y0117297D01*
X0212207Y0114371D01*
X0209281Y0114371D01*
X0209281Y0115345D02*
X0212207Y0115345D01*
X0212207Y0116319D02*
X0209281Y0116319D01*
X0209281Y0117293D02*
X0212207Y0117293D01*
X0199281Y0117297D02*
X0199281Y0114371D01*
X0199281Y0117297D02*
X0202207Y0117297D01*
X0202207Y0114371D01*
X0199281Y0114371D01*
X0199281Y0115345D02*
X0202207Y0115345D01*
X0202207Y0116319D02*
X0199281Y0116319D01*
X0199281Y0117293D02*
X0202207Y0117293D01*
X0199281Y0120371D02*
X0199281Y0123297D01*
X0202207Y0123297D01*
X0202207Y0120371D01*
X0199281Y0120371D01*
X0199281Y0121345D02*
X0202207Y0121345D01*
X0202207Y0122319D02*
X0199281Y0122319D01*
X0199281Y0123293D02*
X0202207Y0123293D01*
X0199281Y0083297D02*
X0199281Y0080371D01*
X0199281Y0083297D02*
X0202207Y0083297D01*
X0202207Y0080371D01*
X0199281Y0080371D01*
X0199281Y0081345D02*
X0202207Y0081345D01*
X0202207Y0082319D02*
X0199281Y0082319D01*
X0199281Y0083293D02*
X0202207Y0083293D01*
X0209281Y0083297D02*
X0209281Y0080371D01*
X0209281Y0083297D02*
X0212207Y0083297D01*
X0212207Y0080371D01*
X0209281Y0080371D01*
X0209281Y0081345D02*
X0212207Y0081345D01*
X0212207Y0082319D02*
X0209281Y0082319D01*
X0209281Y0083293D02*
X0212207Y0083293D01*
X0209281Y0077297D02*
X0209281Y0074371D01*
X0209281Y0077297D02*
X0212207Y0077297D01*
X0212207Y0074371D01*
X0209281Y0074371D01*
X0209281Y0075345D02*
X0212207Y0075345D01*
X0212207Y0076319D02*
X0209281Y0076319D01*
X0209281Y0077293D02*
X0212207Y0077293D01*
X0199281Y0077297D02*
X0199281Y0074371D01*
X0199281Y0077297D02*
X0202207Y0077297D01*
X0202207Y0074371D01*
X0199281Y0074371D01*
X0199281Y0075345D02*
X0202207Y0075345D01*
X0202207Y0076319D02*
X0199281Y0076319D01*
X0199281Y0077293D02*
X0202207Y0077293D01*
X0249281Y0077297D02*
X0249281Y0074371D01*
X0249281Y0077297D02*
X0252207Y0077297D01*
X0252207Y0074371D01*
X0249281Y0074371D01*
X0249281Y0075345D02*
X0252207Y0075345D01*
X0252207Y0076319D02*
X0249281Y0076319D01*
X0249281Y0077293D02*
X0252207Y0077293D01*
X0249281Y0080371D02*
X0249281Y0083297D01*
X0252207Y0083297D01*
X0252207Y0080371D01*
X0249281Y0080371D01*
X0249281Y0081345D02*
X0252207Y0081345D01*
X0252207Y0082319D02*
X0249281Y0082319D01*
X0249281Y0083293D02*
X0252207Y0083293D01*
X0259281Y0083297D02*
X0259281Y0080371D01*
X0259281Y0083297D02*
X0262207Y0083297D01*
X0262207Y0080371D01*
X0259281Y0080371D01*
X0259281Y0081345D02*
X0262207Y0081345D01*
X0262207Y0082319D02*
X0259281Y0082319D01*
X0259281Y0083293D02*
X0262207Y0083293D01*
X0259281Y0077297D02*
X0259281Y0074371D01*
X0259281Y0077297D02*
X0262207Y0077297D01*
X0262207Y0074371D01*
X0259281Y0074371D01*
X0259281Y0075345D02*
X0262207Y0075345D01*
X0262207Y0076319D02*
X0259281Y0076319D01*
X0259281Y0077293D02*
X0262207Y0077293D01*
X0299281Y0077297D02*
X0299281Y0074371D01*
X0299281Y0077297D02*
X0302207Y0077297D01*
X0302207Y0074371D01*
X0299281Y0074371D01*
X0299281Y0075345D02*
X0302207Y0075345D01*
X0302207Y0076319D02*
X0299281Y0076319D01*
X0299281Y0077293D02*
X0302207Y0077293D01*
X0299281Y0080371D02*
X0299281Y0083297D01*
X0302207Y0083297D01*
X0302207Y0080371D01*
X0299281Y0080371D01*
X0299281Y0081345D02*
X0302207Y0081345D01*
X0302207Y0082319D02*
X0299281Y0082319D01*
X0299281Y0083293D02*
X0302207Y0083293D01*
X0309281Y0083297D02*
X0309281Y0080371D01*
X0309281Y0083297D02*
X0312207Y0083297D01*
X0312207Y0080371D01*
X0309281Y0080371D01*
X0309281Y0081345D02*
X0312207Y0081345D01*
X0312207Y0082319D02*
X0309281Y0082319D01*
X0309281Y0083293D02*
X0312207Y0083293D01*
X0309281Y0077297D02*
X0309281Y0074371D01*
X0309281Y0077297D02*
X0312207Y0077297D01*
X0312207Y0074371D01*
X0309281Y0074371D01*
X0309281Y0075345D02*
X0312207Y0075345D01*
X0312207Y0076319D02*
X0309281Y0076319D01*
X0309281Y0077293D02*
X0312207Y0077293D01*
X0349281Y0077297D02*
X0349281Y0074371D01*
X0349281Y0077297D02*
X0352207Y0077297D01*
X0352207Y0074371D01*
X0349281Y0074371D01*
X0349281Y0075345D02*
X0352207Y0075345D01*
X0352207Y0076319D02*
X0349281Y0076319D01*
X0349281Y0077293D02*
X0352207Y0077293D01*
X0349281Y0080371D02*
X0349281Y0083297D01*
X0352207Y0083297D01*
X0352207Y0080371D01*
X0349281Y0080371D01*
X0349281Y0081345D02*
X0352207Y0081345D01*
X0352207Y0082319D02*
X0349281Y0082319D01*
X0349281Y0083293D02*
X0352207Y0083293D01*
X0359281Y0083297D02*
X0359281Y0080371D01*
X0359281Y0083297D02*
X0362207Y0083297D01*
X0362207Y0080371D01*
X0359281Y0080371D01*
X0359281Y0081345D02*
X0362207Y0081345D01*
X0362207Y0082319D02*
X0359281Y0082319D01*
X0359281Y0083293D02*
X0362207Y0083293D01*
X0359281Y0077297D02*
X0359281Y0074371D01*
X0359281Y0077297D02*
X0362207Y0077297D01*
X0362207Y0074371D01*
X0359281Y0074371D01*
X0359281Y0075345D02*
X0362207Y0075345D01*
X0362207Y0076319D02*
X0359281Y0076319D01*
X0359281Y0077293D02*
X0362207Y0077293D01*
X0399281Y0077297D02*
X0399281Y0074371D01*
X0399281Y0077297D02*
X0402207Y0077297D01*
X0402207Y0074371D01*
X0399281Y0074371D01*
X0399281Y0075345D02*
X0402207Y0075345D01*
X0402207Y0076319D02*
X0399281Y0076319D01*
X0399281Y0077293D02*
X0402207Y0077293D01*
X0399281Y0080371D02*
X0399281Y0083297D01*
X0402207Y0083297D01*
X0402207Y0080371D01*
X0399281Y0080371D01*
X0399281Y0081345D02*
X0402207Y0081345D01*
X0402207Y0082319D02*
X0399281Y0082319D01*
X0399281Y0083293D02*
X0402207Y0083293D01*
X0409281Y0083297D02*
X0409281Y0080371D01*
X0409281Y0083297D02*
X0412207Y0083297D01*
X0412207Y0080371D01*
X0409281Y0080371D01*
X0409281Y0081345D02*
X0412207Y0081345D01*
X0412207Y0082319D02*
X0409281Y0082319D01*
X0409281Y0083293D02*
X0412207Y0083293D01*
X0409281Y0077297D02*
X0409281Y0074371D01*
X0409281Y0077297D02*
X0412207Y0077297D01*
X0412207Y0074371D01*
X0409281Y0074371D01*
X0409281Y0075345D02*
X0412207Y0075345D01*
X0412207Y0076319D02*
X0409281Y0076319D01*
X0409281Y0077293D02*
X0412207Y0077293D01*
X0409281Y0043297D02*
X0409281Y0040371D01*
X0409281Y0043297D02*
X0412207Y0043297D01*
X0412207Y0040371D01*
X0409281Y0040371D01*
X0409281Y0041345D02*
X0412207Y0041345D01*
X0412207Y0042319D02*
X0409281Y0042319D01*
X0409281Y0043293D02*
X0412207Y0043293D01*
X0399281Y0043297D02*
X0399281Y0040371D01*
X0399281Y0043297D02*
X0402207Y0043297D01*
X0402207Y0040371D01*
X0399281Y0040371D01*
X0399281Y0041345D02*
X0402207Y0041345D01*
X0402207Y0042319D02*
X0399281Y0042319D01*
X0399281Y0043293D02*
X0402207Y0043293D01*
X0399281Y0037297D02*
X0399281Y0034371D01*
X0399281Y0037297D02*
X0402207Y0037297D01*
X0402207Y0034371D01*
X0399281Y0034371D01*
X0399281Y0035345D02*
X0402207Y0035345D01*
X0402207Y0036319D02*
X0399281Y0036319D01*
X0399281Y0037293D02*
X0402207Y0037293D01*
X0409281Y0037297D02*
X0409281Y0034371D01*
X0409281Y0037297D02*
X0412207Y0037297D01*
X0412207Y0034371D01*
X0409281Y0034371D01*
X0409281Y0035345D02*
X0412207Y0035345D01*
X0412207Y0036319D02*
X0409281Y0036319D01*
X0409281Y0037293D02*
X0412207Y0037293D01*
X0359281Y0037297D02*
X0359281Y0034371D01*
X0359281Y0037297D02*
X0362207Y0037297D01*
X0362207Y0034371D01*
X0359281Y0034371D01*
X0359281Y0035345D02*
X0362207Y0035345D01*
X0362207Y0036319D02*
X0359281Y0036319D01*
X0359281Y0037293D02*
X0362207Y0037293D01*
X0359281Y0040371D02*
X0359281Y0043297D01*
X0362207Y0043297D01*
X0362207Y0040371D01*
X0359281Y0040371D01*
X0359281Y0041345D02*
X0362207Y0041345D01*
X0362207Y0042319D02*
X0359281Y0042319D01*
X0359281Y0043293D02*
X0362207Y0043293D01*
X0349281Y0043297D02*
X0349281Y0040371D01*
X0349281Y0043297D02*
X0352207Y0043297D01*
X0352207Y0040371D01*
X0349281Y0040371D01*
X0349281Y0041345D02*
X0352207Y0041345D01*
X0352207Y0042319D02*
X0349281Y0042319D01*
X0349281Y0043293D02*
X0352207Y0043293D01*
X0349281Y0037297D02*
X0349281Y0034371D01*
X0349281Y0037297D02*
X0352207Y0037297D01*
X0352207Y0034371D01*
X0349281Y0034371D01*
X0349281Y0035345D02*
X0352207Y0035345D01*
X0352207Y0036319D02*
X0349281Y0036319D01*
X0349281Y0037293D02*
X0352207Y0037293D01*
X0309281Y0037297D02*
X0309281Y0034371D01*
X0309281Y0037297D02*
X0312207Y0037297D01*
X0312207Y0034371D01*
X0309281Y0034371D01*
X0309281Y0035345D02*
X0312207Y0035345D01*
X0312207Y0036319D02*
X0309281Y0036319D01*
X0309281Y0037293D02*
X0312207Y0037293D01*
X0309281Y0040371D02*
X0309281Y0043297D01*
X0312207Y0043297D01*
X0312207Y0040371D01*
X0309281Y0040371D01*
X0309281Y0041345D02*
X0312207Y0041345D01*
X0312207Y0042319D02*
X0309281Y0042319D01*
X0309281Y0043293D02*
X0312207Y0043293D01*
X0299281Y0043297D02*
X0299281Y0040371D01*
X0299281Y0043297D02*
X0302207Y0043297D01*
X0302207Y0040371D01*
X0299281Y0040371D01*
X0299281Y0041345D02*
X0302207Y0041345D01*
X0302207Y0042319D02*
X0299281Y0042319D01*
X0299281Y0043293D02*
X0302207Y0043293D01*
X0299281Y0037297D02*
X0299281Y0034371D01*
X0299281Y0037297D02*
X0302207Y0037297D01*
X0302207Y0034371D01*
X0299281Y0034371D01*
X0299281Y0035345D02*
X0302207Y0035345D01*
X0302207Y0036319D02*
X0299281Y0036319D01*
X0299281Y0037293D02*
X0302207Y0037293D01*
X0259281Y0037297D02*
X0259281Y0034371D01*
X0259281Y0037297D02*
X0262207Y0037297D01*
X0262207Y0034371D01*
X0259281Y0034371D01*
X0259281Y0035345D02*
X0262207Y0035345D01*
X0262207Y0036319D02*
X0259281Y0036319D01*
X0259281Y0037293D02*
X0262207Y0037293D01*
X0259281Y0040371D02*
X0259281Y0043297D01*
X0262207Y0043297D01*
X0262207Y0040371D01*
X0259281Y0040371D01*
X0259281Y0041345D02*
X0262207Y0041345D01*
X0262207Y0042319D02*
X0259281Y0042319D01*
X0259281Y0043293D02*
X0262207Y0043293D01*
X0249281Y0043297D02*
X0249281Y0040371D01*
X0249281Y0043297D02*
X0252207Y0043297D01*
X0252207Y0040371D01*
X0249281Y0040371D01*
X0249281Y0041345D02*
X0252207Y0041345D01*
X0252207Y0042319D02*
X0249281Y0042319D01*
X0249281Y0043293D02*
X0252207Y0043293D01*
X0249281Y0037297D02*
X0249281Y0034371D01*
X0249281Y0037297D02*
X0252207Y0037297D01*
X0252207Y0034371D01*
X0249281Y0034371D01*
X0249281Y0035345D02*
X0252207Y0035345D01*
X0252207Y0036319D02*
X0249281Y0036319D01*
X0249281Y0037293D02*
X0252207Y0037293D01*
X0209281Y0037297D02*
X0209281Y0034371D01*
X0209281Y0037297D02*
X0212207Y0037297D01*
X0212207Y0034371D01*
X0209281Y0034371D01*
X0209281Y0035345D02*
X0212207Y0035345D01*
X0212207Y0036319D02*
X0209281Y0036319D01*
X0209281Y0037293D02*
X0212207Y0037293D01*
X0209281Y0040371D02*
X0209281Y0043297D01*
X0212207Y0043297D01*
X0212207Y0040371D01*
X0209281Y0040371D01*
X0209281Y0041345D02*
X0212207Y0041345D01*
X0212207Y0042319D02*
X0209281Y0042319D01*
X0209281Y0043293D02*
X0212207Y0043293D01*
X0199281Y0043297D02*
X0199281Y0040371D01*
X0199281Y0043297D02*
X0202207Y0043297D01*
X0202207Y0040371D01*
X0199281Y0040371D01*
X0199281Y0041345D02*
X0202207Y0041345D01*
X0202207Y0042319D02*
X0199281Y0042319D01*
X0199281Y0043293D02*
X0202207Y0043293D01*
X0199281Y0037297D02*
X0199281Y0034371D01*
X0199281Y0037297D02*
X0202207Y0037297D01*
X0202207Y0034371D01*
X0199281Y0034371D01*
X0199281Y0035345D02*
X0202207Y0035345D01*
X0202207Y0036319D02*
X0199281Y0036319D01*
X0199281Y0037293D02*
X0202207Y0037293D01*
D13*
X0045744Y0290334D03*
X0045744Y0300334D03*
D14*
X0079445Y0196334D03*
X0092043Y0196334D03*
D15*
X0061244Y0290834D03*
X0061244Y0307834D03*
D16*
X0075744Y0208834D03*
D17*
X0085744Y0208834D03*
X0095744Y0208834D03*
X0095744Y0218834D03*
X0085744Y0218834D03*
X0075744Y0218834D03*
D18*
X0097909Y0240586D03*
X0097909Y0243736D03*
X0097909Y0246886D03*
X0097909Y0250035D03*
X0097909Y0253185D03*
X0097909Y0256334D03*
X0097909Y0259484D03*
X0097909Y0262634D03*
X0097909Y0265783D03*
X0097909Y0268933D03*
X0097909Y0272082D03*
X0143579Y0272082D03*
X0143579Y0268933D03*
X0143579Y0265783D03*
X0143579Y0262634D03*
X0143579Y0259484D03*
X0143579Y0256334D03*
X0143579Y0253185D03*
X0143579Y0250035D03*
X0143579Y0246886D03*
X0143579Y0243736D03*
X0143579Y0240586D03*
D19*
X0136492Y0233500D03*
X0133342Y0233500D03*
X0130193Y0233500D03*
X0127043Y0233500D03*
X0123894Y0233500D03*
X0120744Y0233500D03*
X0117594Y0233500D03*
X0114445Y0233500D03*
X0111295Y0233500D03*
X0108146Y0233500D03*
X0104996Y0233500D03*
X0104996Y0279169D03*
X0108146Y0279169D03*
X0111295Y0279169D03*
X0114445Y0279169D03*
X0117594Y0279169D03*
X0120744Y0279169D03*
X0123894Y0279169D03*
X0127043Y0279169D03*
X0130193Y0279169D03*
X0133342Y0279169D03*
X0136492Y0279169D03*
D20*
X0140862Y0300094D03*
X0130625Y0300094D03*
X0130625Y0303834D03*
X0130625Y0307575D03*
X0140862Y0307575D03*
D21*
X0090644Y0293984D02*
X0090644Y0290684D01*
X0085844Y0290684D01*
X0085844Y0293984D01*
X0090644Y0293984D01*
X0090644Y0291783D02*
X0085844Y0291783D01*
X0085844Y0292882D02*
X0090644Y0292882D01*
X0090644Y0293981D02*
X0085844Y0293981D01*
X0090644Y0286984D02*
X0090644Y0283684D01*
X0085844Y0283684D01*
X0085844Y0286984D01*
X0090644Y0286984D01*
X0090644Y0284783D02*
X0085844Y0284783D01*
X0085844Y0285882D02*
X0090644Y0285882D01*
X0090644Y0286981D02*
X0085844Y0286981D01*
D22*
X0056744Y0225090D03*
X0039744Y0225090D03*
X0039744Y0192578D03*
X0056744Y0192578D03*
D23*
X0111244Y0201334D03*
X0128244Y0201334D03*
D24*
X0202791Y0147427D03*
X0204760Y0147427D03*
X0206728Y0147427D03*
X0208697Y0147427D03*
X0208697Y0140242D03*
X0206728Y0140242D03*
X0204760Y0140242D03*
X0202791Y0140242D03*
X0202791Y0107427D03*
X0204760Y0107427D03*
X0206728Y0107427D03*
X0208697Y0107427D03*
X0208697Y0100242D03*
X0206728Y0100242D03*
X0204760Y0100242D03*
X0202791Y0100242D03*
X0202791Y0067427D03*
X0204760Y0067427D03*
X0206728Y0067427D03*
X0208697Y0067427D03*
X0208697Y0060242D03*
X0206728Y0060242D03*
X0204760Y0060242D03*
X0202791Y0060242D03*
X0202791Y0027427D03*
X0204760Y0027427D03*
X0206728Y0027427D03*
X0208697Y0027427D03*
X0208697Y0020242D03*
X0206728Y0020242D03*
X0204760Y0020242D03*
X0202791Y0020242D03*
X0252791Y0020242D03*
X0254760Y0020242D03*
X0256728Y0020242D03*
X0258697Y0020242D03*
X0258697Y0027427D03*
X0256728Y0027427D03*
X0254760Y0027427D03*
X0252791Y0027427D03*
X0252791Y0060242D03*
X0254760Y0060242D03*
X0256728Y0060242D03*
X0258697Y0060242D03*
X0258697Y0067427D03*
X0256728Y0067427D03*
X0254760Y0067427D03*
X0252791Y0067427D03*
X0252791Y0100242D03*
X0254760Y0100242D03*
X0256728Y0100242D03*
X0258697Y0100242D03*
X0258697Y0107427D03*
X0256728Y0107427D03*
X0254760Y0107427D03*
X0252791Y0107427D03*
X0252791Y0140242D03*
X0254760Y0140242D03*
X0256728Y0140242D03*
X0258697Y0140242D03*
X0258697Y0147427D03*
X0256728Y0147427D03*
X0254760Y0147427D03*
X0252791Y0147427D03*
X0302791Y0147427D03*
X0304760Y0147427D03*
X0306728Y0147427D03*
X0308697Y0147427D03*
X0308697Y0140242D03*
X0306728Y0140242D03*
X0304760Y0140242D03*
X0302791Y0140242D03*
X0302791Y0107427D03*
X0304760Y0107427D03*
X0306728Y0107427D03*
X0308697Y0107427D03*
X0308697Y0100242D03*
X0306728Y0100242D03*
X0304760Y0100242D03*
X0302791Y0100242D03*
X0302791Y0067427D03*
X0304760Y0067427D03*
X0306728Y0067427D03*
X0308697Y0067427D03*
X0308697Y0060242D03*
X0306728Y0060242D03*
X0304760Y0060242D03*
X0302791Y0060242D03*
X0302791Y0027427D03*
X0304760Y0027427D03*
X0306728Y0027427D03*
X0308697Y0027427D03*
X0308697Y0020242D03*
X0306728Y0020242D03*
X0304760Y0020242D03*
X0302791Y0020242D03*
X0352791Y0020242D03*
X0354760Y0020242D03*
X0356728Y0020242D03*
X0358697Y0020242D03*
X0358697Y0027427D03*
X0356728Y0027427D03*
X0354760Y0027427D03*
X0352791Y0027427D03*
X0352791Y0060242D03*
X0354760Y0060242D03*
X0356728Y0060242D03*
X0358697Y0060242D03*
X0358697Y0067427D03*
X0356728Y0067427D03*
X0354760Y0067427D03*
X0352791Y0067427D03*
X0352791Y0100242D03*
X0354760Y0100242D03*
X0356728Y0100242D03*
X0358697Y0100242D03*
X0358697Y0107427D03*
X0356728Y0107427D03*
X0354760Y0107427D03*
X0352791Y0107427D03*
X0352791Y0140242D03*
X0354760Y0140242D03*
X0356728Y0140242D03*
X0358697Y0140242D03*
X0358697Y0147427D03*
X0356728Y0147427D03*
X0354760Y0147427D03*
X0352791Y0147427D03*
X0402791Y0147427D03*
X0404760Y0147427D03*
X0406728Y0147427D03*
X0408697Y0147427D03*
X0408697Y0140242D03*
X0406728Y0140242D03*
X0404760Y0140242D03*
X0402791Y0140242D03*
X0402791Y0107427D03*
X0404760Y0107427D03*
X0406728Y0107427D03*
X0408697Y0107427D03*
X0408697Y0100242D03*
X0406728Y0100242D03*
X0404760Y0100242D03*
X0402791Y0100242D03*
X0402791Y0067427D03*
X0404760Y0067427D03*
X0406728Y0067427D03*
X0408697Y0067427D03*
X0408697Y0060242D03*
X0406728Y0060242D03*
X0404760Y0060242D03*
X0402791Y0060242D03*
X0402791Y0027427D03*
X0404760Y0027427D03*
X0406728Y0027427D03*
X0408697Y0027427D03*
X0408697Y0020242D03*
X0406728Y0020242D03*
X0404760Y0020242D03*
X0402791Y0020242D03*
D25*
X0402151Y0023834D03*
X0409336Y0023834D03*
X0359336Y0023834D03*
X0352151Y0023834D03*
X0309336Y0023834D03*
X0302151Y0023834D03*
X0259336Y0023834D03*
X0252151Y0023834D03*
X0209336Y0023834D03*
X0202151Y0023834D03*
X0202151Y0063834D03*
X0209336Y0063834D03*
X0252151Y0063834D03*
X0259336Y0063834D03*
X0302151Y0063834D03*
X0309336Y0063834D03*
X0352151Y0063834D03*
X0359336Y0063834D03*
X0402151Y0063834D03*
X0409336Y0063834D03*
X0409336Y0103834D03*
X0402151Y0103834D03*
X0359336Y0103834D03*
X0352151Y0103834D03*
X0309336Y0103834D03*
X0302151Y0103834D03*
X0259336Y0103834D03*
X0252151Y0103834D03*
X0209336Y0103834D03*
X0202151Y0103834D03*
X0202151Y0143834D03*
X0209336Y0143834D03*
X0252151Y0143834D03*
X0259336Y0143834D03*
X0302151Y0143834D03*
X0309336Y0143834D03*
X0352151Y0143834D03*
X0359336Y0143834D03*
X0402151Y0143834D03*
X0409336Y0143834D03*
D26*
X0414544Y0196334D03*
X0414544Y0201334D03*
X0414544Y0206334D03*
X0414544Y0211334D03*
X0414544Y0216334D03*
X0414544Y0221334D03*
X0414544Y0226334D03*
X0414544Y0231334D03*
X0414544Y0236334D03*
X0414544Y0241334D03*
X0414544Y0246334D03*
X0414544Y0251334D03*
X0376944Y0251334D03*
X0376944Y0246334D03*
X0376944Y0241334D03*
X0376944Y0236334D03*
X0376944Y0231334D03*
X0376944Y0226334D03*
X0376944Y0221334D03*
X0376944Y0216334D03*
X0376944Y0211334D03*
X0376944Y0206334D03*
X0376944Y0201334D03*
X0376944Y0196334D03*
X0319544Y0196334D03*
X0319544Y0201334D03*
X0319544Y0206334D03*
X0319544Y0211334D03*
X0319544Y0216334D03*
X0319544Y0221334D03*
X0319544Y0226334D03*
X0319544Y0231334D03*
X0319544Y0236334D03*
X0319544Y0241334D03*
X0319544Y0246334D03*
X0319544Y0251334D03*
X0281944Y0251334D03*
X0281944Y0246334D03*
X0281944Y0241334D03*
X0281944Y0236334D03*
X0281944Y0231334D03*
X0281944Y0226334D03*
X0281944Y0221334D03*
X0281944Y0216334D03*
X0281944Y0211334D03*
X0281944Y0206334D03*
X0281944Y0201334D03*
X0281944Y0196334D03*
X0219544Y0196334D03*
X0219544Y0201334D03*
X0219544Y0206334D03*
X0219544Y0211334D03*
X0219544Y0216334D03*
X0219544Y0221334D03*
X0219544Y0226334D03*
X0219544Y0231334D03*
X0219544Y0236334D03*
X0219544Y0241334D03*
X0219544Y0246334D03*
X0219544Y0251334D03*
X0181944Y0251334D03*
X0181944Y0246334D03*
X0181944Y0241334D03*
X0181944Y0236334D03*
X0181944Y0231334D03*
X0181944Y0226334D03*
X0181944Y0221334D03*
X0181944Y0216334D03*
X0181944Y0211334D03*
X0181944Y0206334D03*
X0181944Y0201334D03*
X0181944Y0196334D03*
D27*
X0060744Y0248834D02*
X0055744Y0248834D01*
X0042244Y0248834D02*
X0037244Y0248834D01*
X0037244Y0278834D02*
X0042244Y0278834D01*
X0055744Y0278834D02*
X0060744Y0278834D01*
D28*
X0059244Y0270034D03*
X0059244Y0266934D03*
X0059244Y0263834D03*
X0059244Y0260734D03*
X0059244Y0257634D03*
M02*
