G75*
%MOIN*%
%OFA0B0*%
%FSLAX25Y25*%
%IPPOS*%
%LPD*%
%AMOC8*
5,1,8,0,0,1.08239X$1,22.5*
%
%ADD10C,0.01600*%
%ADD11C,0.00300*%
%ADD12C,0.00400*%
%ADD13C,0.00500*%
%ADD14C,0.00800*%
%ADD15C,0.03000*%
%ADD16C,0.00600*%
%ADD17R,0.00768X0.00768*%
D10*
X0030744Y0008834D02*
X0030744Y0328834D01*
X0423244Y0328834D01*
X0423244Y0008834D01*
X0030744Y0008834D01*
D11*
X0193994Y0020834D02*
X0193994Y0026834D01*
X0193996Y0026878D01*
X0194002Y0026921D01*
X0194011Y0026963D01*
X0194024Y0027005D01*
X0194041Y0027045D01*
X0194061Y0027084D01*
X0194084Y0027121D01*
X0194111Y0027155D01*
X0194140Y0027188D01*
X0194173Y0027217D01*
X0194207Y0027244D01*
X0194244Y0027267D01*
X0194283Y0027287D01*
X0194323Y0027304D01*
X0194365Y0027317D01*
X0194407Y0027326D01*
X0194450Y0027332D01*
X0194494Y0027334D01*
X0196994Y0027334D01*
X0197038Y0027332D01*
X0197081Y0027326D01*
X0197123Y0027317D01*
X0197165Y0027304D01*
X0197205Y0027287D01*
X0197244Y0027267D01*
X0197281Y0027244D01*
X0197315Y0027217D01*
X0197348Y0027188D01*
X0197377Y0027155D01*
X0197404Y0027121D01*
X0197427Y0027084D01*
X0197447Y0027045D01*
X0197464Y0027005D01*
X0197477Y0026963D01*
X0197486Y0026921D01*
X0197492Y0026878D01*
X0197494Y0026834D01*
X0197494Y0020834D01*
X0197492Y0020790D01*
X0197486Y0020747D01*
X0197477Y0020705D01*
X0197464Y0020663D01*
X0197447Y0020623D01*
X0197427Y0020584D01*
X0197404Y0020547D01*
X0197377Y0020513D01*
X0197348Y0020480D01*
X0197315Y0020451D01*
X0197281Y0020424D01*
X0197244Y0020401D01*
X0197205Y0020381D01*
X0197165Y0020364D01*
X0197123Y0020351D01*
X0197081Y0020342D01*
X0197038Y0020336D01*
X0196994Y0020334D01*
X0194494Y0020334D01*
X0194450Y0020336D01*
X0194407Y0020342D01*
X0194365Y0020351D01*
X0194323Y0020364D01*
X0194283Y0020381D01*
X0194244Y0020401D01*
X0194207Y0020424D01*
X0194173Y0020451D01*
X0194140Y0020480D01*
X0194111Y0020513D01*
X0194084Y0020547D01*
X0194061Y0020584D01*
X0194041Y0020623D01*
X0194024Y0020663D01*
X0194011Y0020705D01*
X0194002Y0020747D01*
X0193996Y0020790D01*
X0193994Y0020834D01*
X0243994Y0020834D02*
X0243994Y0026834D01*
X0243996Y0026878D01*
X0244002Y0026921D01*
X0244011Y0026963D01*
X0244024Y0027005D01*
X0244041Y0027045D01*
X0244061Y0027084D01*
X0244084Y0027121D01*
X0244111Y0027155D01*
X0244140Y0027188D01*
X0244173Y0027217D01*
X0244207Y0027244D01*
X0244244Y0027267D01*
X0244283Y0027287D01*
X0244323Y0027304D01*
X0244365Y0027317D01*
X0244407Y0027326D01*
X0244450Y0027332D01*
X0244494Y0027334D01*
X0246994Y0027334D01*
X0247038Y0027332D01*
X0247081Y0027326D01*
X0247123Y0027317D01*
X0247165Y0027304D01*
X0247205Y0027287D01*
X0247244Y0027267D01*
X0247281Y0027244D01*
X0247315Y0027217D01*
X0247348Y0027188D01*
X0247377Y0027155D01*
X0247404Y0027121D01*
X0247427Y0027084D01*
X0247447Y0027045D01*
X0247464Y0027005D01*
X0247477Y0026963D01*
X0247486Y0026921D01*
X0247492Y0026878D01*
X0247494Y0026834D01*
X0247494Y0020834D01*
X0247492Y0020790D01*
X0247486Y0020747D01*
X0247477Y0020705D01*
X0247464Y0020663D01*
X0247447Y0020623D01*
X0247427Y0020584D01*
X0247404Y0020547D01*
X0247377Y0020513D01*
X0247348Y0020480D01*
X0247315Y0020451D01*
X0247281Y0020424D01*
X0247244Y0020401D01*
X0247205Y0020381D01*
X0247165Y0020364D01*
X0247123Y0020351D01*
X0247081Y0020342D01*
X0247038Y0020336D01*
X0246994Y0020334D01*
X0244494Y0020334D01*
X0244450Y0020336D01*
X0244407Y0020342D01*
X0244365Y0020351D01*
X0244323Y0020364D01*
X0244283Y0020381D01*
X0244244Y0020401D01*
X0244207Y0020424D01*
X0244173Y0020451D01*
X0244140Y0020480D01*
X0244111Y0020513D01*
X0244084Y0020547D01*
X0244061Y0020584D01*
X0244041Y0020623D01*
X0244024Y0020663D01*
X0244011Y0020705D01*
X0244002Y0020747D01*
X0243996Y0020790D01*
X0243994Y0020834D01*
X0293994Y0020834D02*
X0293994Y0026834D01*
X0293996Y0026878D01*
X0294002Y0026921D01*
X0294011Y0026963D01*
X0294024Y0027005D01*
X0294041Y0027045D01*
X0294061Y0027084D01*
X0294084Y0027121D01*
X0294111Y0027155D01*
X0294140Y0027188D01*
X0294173Y0027217D01*
X0294207Y0027244D01*
X0294244Y0027267D01*
X0294283Y0027287D01*
X0294323Y0027304D01*
X0294365Y0027317D01*
X0294407Y0027326D01*
X0294450Y0027332D01*
X0294494Y0027334D01*
X0296994Y0027334D01*
X0297038Y0027332D01*
X0297081Y0027326D01*
X0297123Y0027317D01*
X0297165Y0027304D01*
X0297205Y0027287D01*
X0297244Y0027267D01*
X0297281Y0027244D01*
X0297315Y0027217D01*
X0297348Y0027188D01*
X0297377Y0027155D01*
X0297404Y0027121D01*
X0297427Y0027084D01*
X0297447Y0027045D01*
X0297464Y0027005D01*
X0297477Y0026963D01*
X0297486Y0026921D01*
X0297492Y0026878D01*
X0297494Y0026834D01*
X0297494Y0020834D01*
X0297492Y0020790D01*
X0297486Y0020747D01*
X0297477Y0020705D01*
X0297464Y0020663D01*
X0297447Y0020623D01*
X0297427Y0020584D01*
X0297404Y0020547D01*
X0297377Y0020513D01*
X0297348Y0020480D01*
X0297315Y0020451D01*
X0297281Y0020424D01*
X0297244Y0020401D01*
X0297205Y0020381D01*
X0297165Y0020364D01*
X0297123Y0020351D01*
X0297081Y0020342D01*
X0297038Y0020336D01*
X0296994Y0020334D01*
X0294494Y0020334D01*
X0294450Y0020336D01*
X0294407Y0020342D01*
X0294365Y0020351D01*
X0294323Y0020364D01*
X0294283Y0020381D01*
X0294244Y0020401D01*
X0294207Y0020424D01*
X0294173Y0020451D01*
X0294140Y0020480D01*
X0294111Y0020513D01*
X0294084Y0020547D01*
X0294061Y0020584D01*
X0294041Y0020623D01*
X0294024Y0020663D01*
X0294011Y0020705D01*
X0294002Y0020747D01*
X0293996Y0020790D01*
X0293994Y0020834D01*
X0343994Y0020834D02*
X0343994Y0026834D01*
X0343996Y0026878D01*
X0344002Y0026921D01*
X0344011Y0026963D01*
X0344024Y0027005D01*
X0344041Y0027045D01*
X0344061Y0027084D01*
X0344084Y0027121D01*
X0344111Y0027155D01*
X0344140Y0027188D01*
X0344173Y0027217D01*
X0344207Y0027244D01*
X0344244Y0027267D01*
X0344283Y0027287D01*
X0344323Y0027304D01*
X0344365Y0027317D01*
X0344407Y0027326D01*
X0344450Y0027332D01*
X0344494Y0027334D01*
X0346994Y0027334D01*
X0347038Y0027332D01*
X0347081Y0027326D01*
X0347123Y0027317D01*
X0347165Y0027304D01*
X0347205Y0027287D01*
X0347244Y0027267D01*
X0347281Y0027244D01*
X0347315Y0027217D01*
X0347348Y0027188D01*
X0347377Y0027155D01*
X0347404Y0027121D01*
X0347427Y0027084D01*
X0347447Y0027045D01*
X0347464Y0027005D01*
X0347477Y0026963D01*
X0347486Y0026921D01*
X0347492Y0026878D01*
X0347494Y0026834D01*
X0347494Y0020834D01*
X0347492Y0020790D01*
X0347486Y0020747D01*
X0347477Y0020705D01*
X0347464Y0020663D01*
X0347447Y0020623D01*
X0347427Y0020584D01*
X0347404Y0020547D01*
X0347377Y0020513D01*
X0347348Y0020480D01*
X0347315Y0020451D01*
X0347281Y0020424D01*
X0347244Y0020401D01*
X0347205Y0020381D01*
X0347165Y0020364D01*
X0347123Y0020351D01*
X0347081Y0020342D01*
X0347038Y0020336D01*
X0346994Y0020334D01*
X0344494Y0020334D01*
X0344450Y0020336D01*
X0344407Y0020342D01*
X0344365Y0020351D01*
X0344323Y0020364D01*
X0344283Y0020381D01*
X0344244Y0020401D01*
X0344207Y0020424D01*
X0344173Y0020451D01*
X0344140Y0020480D01*
X0344111Y0020513D01*
X0344084Y0020547D01*
X0344061Y0020584D01*
X0344041Y0020623D01*
X0344024Y0020663D01*
X0344011Y0020705D01*
X0344002Y0020747D01*
X0343996Y0020790D01*
X0343994Y0020834D01*
X0393994Y0020834D02*
X0393994Y0026834D01*
X0393996Y0026878D01*
X0394002Y0026921D01*
X0394011Y0026963D01*
X0394024Y0027005D01*
X0394041Y0027045D01*
X0394061Y0027084D01*
X0394084Y0027121D01*
X0394111Y0027155D01*
X0394140Y0027188D01*
X0394173Y0027217D01*
X0394207Y0027244D01*
X0394244Y0027267D01*
X0394283Y0027287D01*
X0394323Y0027304D01*
X0394365Y0027317D01*
X0394407Y0027326D01*
X0394450Y0027332D01*
X0394494Y0027334D01*
X0396994Y0027334D01*
X0397038Y0027332D01*
X0397081Y0027326D01*
X0397123Y0027317D01*
X0397165Y0027304D01*
X0397205Y0027287D01*
X0397244Y0027267D01*
X0397281Y0027244D01*
X0397315Y0027217D01*
X0397348Y0027188D01*
X0397377Y0027155D01*
X0397404Y0027121D01*
X0397427Y0027084D01*
X0397447Y0027045D01*
X0397464Y0027005D01*
X0397477Y0026963D01*
X0397486Y0026921D01*
X0397492Y0026878D01*
X0397494Y0026834D01*
X0397494Y0020834D01*
X0397492Y0020790D01*
X0397486Y0020747D01*
X0397477Y0020705D01*
X0397464Y0020663D01*
X0397447Y0020623D01*
X0397427Y0020584D01*
X0397404Y0020547D01*
X0397377Y0020513D01*
X0397348Y0020480D01*
X0397315Y0020451D01*
X0397281Y0020424D01*
X0397244Y0020401D01*
X0397205Y0020381D01*
X0397165Y0020364D01*
X0397123Y0020351D01*
X0397081Y0020342D01*
X0397038Y0020336D01*
X0396994Y0020334D01*
X0394494Y0020334D01*
X0394450Y0020336D01*
X0394407Y0020342D01*
X0394365Y0020351D01*
X0394323Y0020364D01*
X0394283Y0020381D01*
X0394244Y0020401D01*
X0394207Y0020424D01*
X0394173Y0020451D01*
X0394140Y0020480D01*
X0394111Y0020513D01*
X0394084Y0020547D01*
X0394061Y0020584D01*
X0394041Y0020623D01*
X0394024Y0020663D01*
X0394011Y0020705D01*
X0394002Y0020747D01*
X0393996Y0020790D01*
X0393994Y0020834D01*
X0394494Y0060334D02*
X0396994Y0060334D01*
X0397038Y0060336D01*
X0397081Y0060342D01*
X0397123Y0060351D01*
X0397165Y0060364D01*
X0397205Y0060381D01*
X0397244Y0060401D01*
X0397281Y0060424D01*
X0397315Y0060451D01*
X0397348Y0060480D01*
X0397377Y0060513D01*
X0397404Y0060547D01*
X0397427Y0060584D01*
X0397447Y0060623D01*
X0397464Y0060663D01*
X0397477Y0060705D01*
X0397486Y0060747D01*
X0397492Y0060790D01*
X0397494Y0060834D01*
X0397494Y0066834D01*
X0397492Y0066878D01*
X0397486Y0066921D01*
X0397477Y0066963D01*
X0397464Y0067005D01*
X0397447Y0067045D01*
X0397427Y0067084D01*
X0397404Y0067121D01*
X0397377Y0067155D01*
X0397348Y0067188D01*
X0397315Y0067217D01*
X0397281Y0067244D01*
X0397244Y0067267D01*
X0397205Y0067287D01*
X0397165Y0067304D01*
X0397123Y0067317D01*
X0397081Y0067326D01*
X0397038Y0067332D01*
X0396994Y0067334D01*
X0394494Y0067334D01*
X0394450Y0067332D01*
X0394407Y0067326D01*
X0394365Y0067317D01*
X0394323Y0067304D01*
X0394283Y0067287D01*
X0394244Y0067267D01*
X0394207Y0067244D01*
X0394173Y0067217D01*
X0394140Y0067188D01*
X0394111Y0067155D01*
X0394084Y0067121D01*
X0394061Y0067084D01*
X0394041Y0067045D01*
X0394024Y0067005D01*
X0394011Y0066963D01*
X0394002Y0066921D01*
X0393996Y0066878D01*
X0393994Y0066834D01*
X0393994Y0060834D01*
X0393996Y0060790D01*
X0394002Y0060747D01*
X0394011Y0060705D01*
X0394024Y0060663D01*
X0394041Y0060623D01*
X0394061Y0060584D01*
X0394084Y0060547D01*
X0394111Y0060513D01*
X0394140Y0060480D01*
X0394173Y0060451D01*
X0394207Y0060424D01*
X0394244Y0060401D01*
X0394283Y0060381D01*
X0394323Y0060364D01*
X0394365Y0060351D01*
X0394407Y0060342D01*
X0394450Y0060336D01*
X0394494Y0060334D01*
X0347494Y0060834D02*
X0347494Y0066834D01*
X0347492Y0066878D01*
X0347486Y0066921D01*
X0347477Y0066963D01*
X0347464Y0067005D01*
X0347447Y0067045D01*
X0347427Y0067084D01*
X0347404Y0067121D01*
X0347377Y0067155D01*
X0347348Y0067188D01*
X0347315Y0067217D01*
X0347281Y0067244D01*
X0347244Y0067267D01*
X0347205Y0067287D01*
X0347165Y0067304D01*
X0347123Y0067317D01*
X0347081Y0067326D01*
X0347038Y0067332D01*
X0346994Y0067334D01*
X0344494Y0067334D01*
X0344450Y0067332D01*
X0344407Y0067326D01*
X0344365Y0067317D01*
X0344323Y0067304D01*
X0344283Y0067287D01*
X0344244Y0067267D01*
X0344207Y0067244D01*
X0344173Y0067217D01*
X0344140Y0067188D01*
X0344111Y0067155D01*
X0344084Y0067121D01*
X0344061Y0067084D01*
X0344041Y0067045D01*
X0344024Y0067005D01*
X0344011Y0066963D01*
X0344002Y0066921D01*
X0343996Y0066878D01*
X0343994Y0066834D01*
X0343994Y0060834D01*
X0343996Y0060790D01*
X0344002Y0060747D01*
X0344011Y0060705D01*
X0344024Y0060663D01*
X0344041Y0060623D01*
X0344061Y0060584D01*
X0344084Y0060547D01*
X0344111Y0060513D01*
X0344140Y0060480D01*
X0344173Y0060451D01*
X0344207Y0060424D01*
X0344244Y0060401D01*
X0344283Y0060381D01*
X0344323Y0060364D01*
X0344365Y0060351D01*
X0344407Y0060342D01*
X0344450Y0060336D01*
X0344494Y0060334D01*
X0346994Y0060334D01*
X0347038Y0060336D01*
X0347081Y0060342D01*
X0347123Y0060351D01*
X0347165Y0060364D01*
X0347205Y0060381D01*
X0347244Y0060401D01*
X0347281Y0060424D01*
X0347315Y0060451D01*
X0347348Y0060480D01*
X0347377Y0060513D01*
X0347404Y0060547D01*
X0347427Y0060584D01*
X0347447Y0060623D01*
X0347464Y0060663D01*
X0347477Y0060705D01*
X0347486Y0060747D01*
X0347492Y0060790D01*
X0347494Y0060834D01*
X0297494Y0060834D02*
X0297494Y0066834D01*
X0297492Y0066878D01*
X0297486Y0066921D01*
X0297477Y0066963D01*
X0297464Y0067005D01*
X0297447Y0067045D01*
X0297427Y0067084D01*
X0297404Y0067121D01*
X0297377Y0067155D01*
X0297348Y0067188D01*
X0297315Y0067217D01*
X0297281Y0067244D01*
X0297244Y0067267D01*
X0297205Y0067287D01*
X0297165Y0067304D01*
X0297123Y0067317D01*
X0297081Y0067326D01*
X0297038Y0067332D01*
X0296994Y0067334D01*
X0294494Y0067334D01*
X0294450Y0067332D01*
X0294407Y0067326D01*
X0294365Y0067317D01*
X0294323Y0067304D01*
X0294283Y0067287D01*
X0294244Y0067267D01*
X0294207Y0067244D01*
X0294173Y0067217D01*
X0294140Y0067188D01*
X0294111Y0067155D01*
X0294084Y0067121D01*
X0294061Y0067084D01*
X0294041Y0067045D01*
X0294024Y0067005D01*
X0294011Y0066963D01*
X0294002Y0066921D01*
X0293996Y0066878D01*
X0293994Y0066834D01*
X0293994Y0060834D01*
X0293996Y0060790D01*
X0294002Y0060747D01*
X0294011Y0060705D01*
X0294024Y0060663D01*
X0294041Y0060623D01*
X0294061Y0060584D01*
X0294084Y0060547D01*
X0294111Y0060513D01*
X0294140Y0060480D01*
X0294173Y0060451D01*
X0294207Y0060424D01*
X0294244Y0060401D01*
X0294283Y0060381D01*
X0294323Y0060364D01*
X0294365Y0060351D01*
X0294407Y0060342D01*
X0294450Y0060336D01*
X0294494Y0060334D01*
X0296994Y0060334D01*
X0297038Y0060336D01*
X0297081Y0060342D01*
X0297123Y0060351D01*
X0297165Y0060364D01*
X0297205Y0060381D01*
X0297244Y0060401D01*
X0297281Y0060424D01*
X0297315Y0060451D01*
X0297348Y0060480D01*
X0297377Y0060513D01*
X0297404Y0060547D01*
X0297427Y0060584D01*
X0297447Y0060623D01*
X0297464Y0060663D01*
X0297477Y0060705D01*
X0297486Y0060747D01*
X0297492Y0060790D01*
X0297494Y0060834D01*
X0247494Y0060834D02*
X0247494Y0066834D01*
X0247492Y0066878D01*
X0247486Y0066921D01*
X0247477Y0066963D01*
X0247464Y0067005D01*
X0247447Y0067045D01*
X0247427Y0067084D01*
X0247404Y0067121D01*
X0247377Y0067155D01*
X0247348Y0067188D01*
X0247315Y0067217D01*
X0247281Y0067244D01*
X0247244Y0067267D01*
X0247205Y0067287D01*
X0247165Y0067304D01*
X0247123Y0067317D01*
X0247081Y0067326D01*
X0247038Y0067332D01*
X0246994Y0067334D01*
X0244494Y0067334D01*
X0244450Y0067332D01*
X0244407Y0067326D01*
X0244365Y0067317D01*
X0244323Y0067304D01*
X0244283Y0067287D01*
X0244244Y0067267D01*
X0244207Y0067244D01*
X0244173Y0067217D01*
X0244140Y0067188D01*
X0244111Y0067155D01*
X0244084Y0067121D01*
X0244061Y0067084D01*
X0244041Y0067045D01*
X0244024Y0067005D01*
X0244011Y0066963D01*
X0244002Y0066921D01*
X0243996Y0066878D01*
X0243994Y0066834D01*
X0243994Y0060834D01*
X0243996Y0060790D01*
X0244002Y0060747D01*
X0244011Y0060705D01*
X0244024Y0060663D01*
X0244041Y0060623D01*
X0244061Y0060584D01*
X0244084Y0060547D01*
X0244111Y0060513D01*
X0244140Y0060480D01*
X0244173Y0060451D01*
X0244207Y0060424D01*
X0244244Y0060401D01*
X0244283Y0060381D01*
X0244323Y0060364D01*
X0244365Y0060351D01*
X0244407Y0060342D01*
X0244450Y0060336D01*
X0244494Y0060334D01*
X0246994Y0060334D01*
X0247038Y0060336D01*
X0247081Y0060342D01*
X0247123Y0060351D01*
X0247165Y0060364D01*
X0247205Y0060381D01*
X0247244Y0060401D01*
X0247281Y0060424D01*
X0247315Y0060451D01*
X0247348Y0060480D01*
X0247377Y0060513D01*
X0247404Y0060547D01*
X0247427Y0060584D01*
X0247447Y0060623D01*
X0247464Y0060663D01*
X0247477Y0060705D01*
X0247486Y0060747D01*
X0247492Y0060790D01*
X0247494Y0060834D01*
X0197494Y0060834D02*
X0197494Y0066834D01*
X0197492Y0066878D01*
X0197486Y0066921D01*
X0197477Y0066963D01*
X0197464Y0067005D01*
X0197447Y0067045D01*
X0197427Y0067084D01*
X0197404Y0067121D01*
X0197377Y0067155D01*
X0197348Y0067188D01*
X0197315Y0067217D01*
X0197281Y0067244D01*
X0197244Y0067267D01*
X0197205Y0067287D01*
X0197165Y0067304D01*
X0197123Y0067317D01*
X0197081Y0067326D01*
X0197038Y0067332D01*
X0196994Y0067334D01*
X0194494Y0067334D01*
X0194450Y0067332D01*
X0194407Y0067326D01*
X0194365Y0067317D01*
X0194323Y0067304D01*
X0194283Y0067287D01*
X0194244Y0067267D01*
X0194207Y0067244D01*
X0194173Y0067217D01*
X0194140Y0067188D01*
X0194111Y0067155D01*
X0194084Y0067121D01*
X0194061Y0067084D01*
X0194041Y0067045D01*
X0194024Y0067005D01*
X0194011Y0066963D01*
X0194002Y0066921D01*
X0193996Y0066878D01*
X0193994Y0066834D01*
X0193994Y0060834D01*
X0193996Y0060790D01*
X0194002Y0060747D01*
X0194011Y0060705D01*
X0194024Y0060663D01*
X0194041Y0060623D01*
X0194061Y0060584D01*
X0194084Y0060547D01*
X0194111Y0060513D01*
X0194140Y0060480D01*
X0194173Y0060451D01*
X0194207Y0060424D01*
X0194244Y0060401D01*
X0194283Y0060381D01*
X0194323Y0060364D01*
X0194365Y0060351D01*
X0194407Y0060342D01*
X0194450Y0060336D01*
X0194494Y0060334D01*
X0196994Y0060334D01*
X0197038Y0060336D01*
X0197081Y0060342D01*
X0197123Y0060351D01*
X0197165Y0060364D01*
X0197205Y0060381D01*
X0197244Y0060401D01*
X0197281Y0060424D01*
X0197315Y0060451D01*
X0197348Y0060480D01*
X0197377Y0060513D01*
X0197404Y0060547D01*
X0197427Y0060584D01*
X0197447Y0060623D01*
X0197464Y0060663D01*
X0197477Y0060705D01*
X0197486Y0060747D01*
X0197492Y0060790D01*
X0197494Y0060834D01*
X0196994Y0100334D02*
X0194494Y0100334D01*
X0194450Y0100336D01*
X0194407Y0100342D01*
X0194365Y0100351D01*
X0194323Y0100364D01*
X0194283Y0100381D01*
X0194244Y0100401D01*
X0194207Y0100424D01*
X0194173Y0100451D01*
X0194140Y0100480D01*
X0194111Y0100513D01*
X0194084Y0100547D01*
X0194061Y0100584D01*
X0194041Y0100623D01*
X0194024Y0100663D01*
X0194011Y0100705D01*
X0194002Y0100747D01*
X0193996Y0100790D01*
X0193994Y0100834D01*
X0193994Y0106834D01*
X0193996Y0106878D01*
X0194002Y0106921D01*
X0194011Y0106963D01*
X0194024Y0107005D01*
X0194041Y0107045D01*
X0194061Y0107084D01*
X0194084Y0107121D01*
X0194111Y0107155D01*
X0194140Y0107188D01*
X0194173Y0107217D01*
X0194207Y0107244D01*
X0194244Y0107267D01*
X0194283Y0107287D01*
X0194323Y0107304D01*
X0194365Y0107317D01*
X0194407Y0107326D01*
X0194450Y0107332D01*
X0194494Y0107334D01*
X0196994Y0107334D01*
X0197038Y0107332D01*
X0197081Y0107326D01*
X0197123Y0107317D01*
X0197165Y0107304D01*
X0197205Y0107287D01*
X0197244Y0107267D01*
X0197281Y0107244D01*
X0197315Y0107217D01*
X0197348Y0107188D01*
X0197377Y0107155D01*
X0197404Y0107121D01*
X0197427Y0107084D01*
X0197447Y0107045D01*
X0197464Y0107005D01*
X0197477Y0106963D01*
X0197486Y0106921D01*
X0197492Y0106878D01*
X0197494Y0106834D01*
X0197494Y0100834D01*
X0197492Y0100790D01*
X0197486Y0100747D01*
X0197477Y0100705D01*
X0197464Y0100663D01*
X0197447Y0100623D01*
X0197427Y0100584D01*
X0197404Y0100547D01*
X0197377Y0100513D01*
X0197348Y0100480D01*
X0197315Y0100451D01*
X0197281Y0100424D01*
X0197244Y0100401D01*
X0197205Y0100381D01*
X0197165Y0100364D01*
X0197123Y0100351D01*
X0197081Y0100342D01*
X0197038Y0100336D01*
X0196994Y0100334D01*
X0243994Y0100834D02*
X0243994Y0106834D01*
X0243996Y0106878D01*
X0244002Y0106921D01*
X0244011Y0106963D01*
X0244024Y0107005D01*
X0244041Y0107045D01*
X0244061Y0107084D01*
X0244084Y0107121D01*
X0244111Y0107155D01*
X0244140Y0107188D01*
X0244173Y0107217D01*
X0244207Y0107244D01*
X0244244Y0107267D01*
X0244283Y0107287D01*
X0244323Y0107304D01*
X0244365Y0107317D01*
X0244407Y0107326D01*
X0244450Y0107332D01*
X0244494Y0107334D01*
X0246994Y0107334D01*
X0247038Y0107332D01*
X0247081Y0107326D01*
X0247123Y0107317D01*
X0247165Y0107304D01*
X0247205Y0107287D01*
X0247244Y0107267D01*
X0247281Y0107244D01*
X0247315Y0107217D01*
X0247348Y0107188D01*
X0247377Y0107155D01*
X0247404Y0107121D01*
X0247427Y0107084D01*
X0247447Y0107045D01*
X0247464Y0107005D01*
X0247477Y0106963D01*
X0247486Y0106921D01*
X0247492Y0106878D01*
X0247494Y0106834D01*
X0247494Y0100834D01*
X0247492Y0100790D01*
X0247486Y0100747D01*
X0247477Y0100705D01*
X0247464Y0100663D01*
X0247447Y0100623D01*
X0247427Y0100584D01*
X0247404Y0100547D01*
X0247377Y0100513D01*
X0247348Y0100480D01*
X0247315Y0100451D01*
X0247281Y0100424D01*
X0247244Y0100401D01*
X0247205Y0100381D01*
X0247165Y0100364D01*
X0247123Y0100351D01*
X0247081Y0100342D01*
X0247038Y0100336D01*
X0246994Y0100334D01*
X0244494Y0100334D01*
X0244450Y0100336D01*
X0244407Y0100342D01*
X0244365Y0100351D01*
X0244323Y0100364D01*
X0244283Y0100381D01*
X0244244Y0100401D01*
X0244207Y0100424D01*
X0244173Y0100451D01*
X0244140Y0100480D01*
X0244111Y0100513D01*
X0244084Y0100547D01*
X0244061Y0100584D01*
X0244041Y0100623D01*
X0244024Y0100663D01*
X0244011Y0100705D01*
X0244002Y0100747D01*
X0243996Y0100790D01*
X0243994Y0100834D01*
X0293994Y0100834D02*
X0293994Y0106834D01*
X0293996Y0106878D01*
X0294002Y0106921D01*
X0294011Y0106963D01*
X0294024Y0107005D01*
X0294041Y0107045D01*
X0294061Y0107084D01*
X0294084Y0107121D01*
X0294111Y0107155D01*
X0294140Y0107188D01*
X0294173Y0107217D01*
X0294207Y0107244D01*
X0294244Y0107267D01*
X0294283Y0107287D01*
X0294323Y0107304D01*
X0294365Y0107317D01*
X0294407Y0107326D01*
X0294450Y0107332D01*
X0294494Y0107334D01*
X0296994Y0107334D01*
X0297038Y0107332D01*
X0297081Y0107326D01*
X0297123Y0107317D01*
X0297165Y0107304D01*
X0297205Y0107287D01*
X0297244Y0107267D01*
X0297281Y0107244D01*
X0297315Y0107217D01*
X0297348Y0107188D01*
X0297377Y0107155D01*
X0297404Y0107121D01*
X0297427Y0107084D01*
X0297447Y0107045D01*
X0297464Y0107005D01*
X0297477Y0106963D01*
X0297486Y0106921D01*
X0297492Y0106878D01*
X0297494Y0106834D01*
X0297494Y0100834D01*
X0297492Y0100790D01*
X0297486Y0100747D01*
X0297477Y0100705D01*
X0297464Y0100663D01*
X0297447Y0100623D01*
X0297427Y0100584D01*
X0297404Y0100547D01*
X0297377Y0100513D01*
X0297348Y0100480D01*
X0297315Y0100451D01*
X0297281Y0100424D01*
X0297244Y0100401D01*
X0297205Y0100381D01*
X0297165Y0100364D01*
X0297123Y0100351D01*
X0297081Y0100342D01*
X0297038Y0100336D01*
X0296994Y0100334D01*
X0294494Y0100334D01*
X0294450Y0100336D01*
X0294407Y0100342D01*
X0294365Y0100351D01*
X0294323Y0100364D01*
X0294283Y0100381D01*
X0294244Y0100401D01*
X0294207Y0100424D01*
X0294173Y0100451D01*
X0294140Y0100480D01*
X0294111Y0100513D01*
X0294084Y0100547D01*
X0294061Y0100584D01*
X0294041Y0100623D01*
X0294024Y0100663D01*
X0294011Y0100705D01*
X0294002Y0100747D01*
X0293996Y0100790D01*
X0293994Y0100834D01*
X0343994Y0100834D02*
X0343994Y0106834D01*
X0343996Y0106878D01*
X0344002Y0106921D01*
X0344011Y0106963D01*
X0344024Y0107005D01*
X0344041Y0107045D01*
X0344061Y0107084D01*
X0344084Y0107121D01*
X0344111Y0107155D01*
X0344140Y0107188D01*
X0344173Y0107217D01*
X0344207Y0107244D01*
X0344244Y0107267D01*
X0344283Y0107287D01*
X0344323Y0107304D01*
X0344365Y0107317D01*
X0344407Y0107326D01*
X0344450Y0107332D01*
X0344494Y0107334D01*
X0346994Y0107334D01*
X0347038Y0107332D01*
X0347081Y0107326D01*
X0347123Y0107317D01*
X0347165Y0107304D01*
X0347205Y0107287D01*
X0347244Y0107267D01*
X0347281Y0107244D01*
X0347315Y0107217D01*
X0347348Y0107188D01*
X0347377Y0107155D01*
X0347404Y0107121D01*
X0347427Y0107084D01*
X0347447Y0107045D01*
X0347464Y0107005D01*
X0347477Y0106963D01*
X0347486Y0106921D01*
X0347492Y0106878D01*
X0347494Y0106834D01*
X0347494Y0100834D01*
X0347492Y0100790D01*
X0347486Y0100747D01*
X0347477Y0100705D01*
X0347464Y0100663D01*
X0347447Y0100623D01*
X0347427Y0100584D01*
X0347404Y0100547D01*
X0347377Y0100513D01*
X0347348Y0100480D01*
X0347315Y0100451D01*
X0347281Y0100424D01*
X0347244Y0100401D01*
X0347205Y0100381D01*
X0347165Y0100364D01*
X0347123Y0100351D01*
X0347081Y0100342D01*
X0347038Y0100336D01*
X0346994Y0100334D01*
X0344494Y0100334D01*
X0344450Y0100336D01*
X0344407Y0100342D01*
X0344365Y0100351D01*
X0344323Y0100364D01*
X0344283Y0100381D01*
X0344244Y0100401D01*
X0344207Y0100424D01*
X0344173Y0100451D01*
X0344140Y0100480D01*
X0344111Y0100513D01*
X0344084Y0100547D01*
X0344061Y0100584D01*
X0344041Y0100623D01*
X0344024Y0100663D01*
X0344011Y0100705D01*
X0344002Y0100747D01*
X0343996Y0100790D01*
X0343994Y0100834D01*
X0393994Y0100834D02*
X0393994Y0106834D01*
X0393996Y0106878D01*
X0394002Y0106921D01*
X0394011Y0106963D01*
X0394024Y0107005D01*
X0394041Y0107045D01*
X0394061Y0107084D01*
X0394084Y0107121D01*
X0394111Y0107155D01*
X0394140Y0107188D01*
X0394173Y0107217D01*
X0394207Y0107244D01*
X0394244Y0107267D01*
X0394283Y0107287D01*
X0394323Y0107304D01*
X0394365Y0107317D01*
X0394407Y0107326D01*
X0394450Y0107332D01*
X0394494Y0107334D01*
X0396994Y0107334D01*
X0397038Y0107332D01*
X0397081Y0107326D01*
X0397123Y0107317D01*
X0397165Y0107304D01*
X0397205Y0107287D01*
X0397244Y0107267D01*
X0397281Y0107244D01*
X0397315Y0107217D01*
X0397348Y0107188D01*
X0397377Y0107155D01*
X0397404Y0107121D01*
X0397427Y0107084D01*
X0397447Y0107045D01*
X0397464Y0107005D01*
X0397477Y0106963D01*
X0397486Y0106921D01*
X0397492Y0106878D01*
X0397494Y0106834D01*
X0397494Y0100834D01*
X0397492Y0100790D01*
X0397486Y0100747D01*
X0397477Y0100705D01*
X0397464Y0100663D01*
X0397447Y0100623D01*
X0397427Y0100584D01*
X0397404Y0100547D01*
X0397377Y0100513D01*
X0397348Y0100480D01*
X0397315Y0100451D01*
X0397281Y0100424D01*
X0397244Y0100401D01*
X0397205Y0100381D01*
X0397165Y0100364D01*
X0397123Y0100351D01*
X0397081Y0100342D01*
X0397038Y0100336D01*
X0396994Y0100334D01*
X0394494Y0100334D01*
X0394450Y0100336D01*
X0394407Y0100342D01*
X0394365Y0100351D01*
X0394323Y0100364D01*
X0394283Y0100381D01*
X0394244Y0100401D01*
X0394207Y0100424D01*
X0394173Y0100451D01*
X0394140Y0100480D01*
X0394111Y0100513D01*
X0394084Y0100547D01*
X0394061Y0100584D01*
X0394041Y0100623D01*
X0394024Y0100663D01*
X0394011Y0100705D01*
X0394002Y0100747D01*
X0393996Y0100790D01*
X0393994Y0100834D01*
X0394494Y0140334D02*
X0396994Y0140334D01*
X0397038Y0140336D01*
X0397081Y0140342D01*
X0397123Y0140351D01*
X0397165Y0140364D01*
X0397205Y0140381D01*
X0397244Y0140401D01*
X0397281Y0140424D01*
X0397315Y0140451D01*
X0397348Y0140480D01*
X0397377Y0140513D01*
X0397404Y0140547D01*
X0397427Y0140584D01*
X0397447Y0140623D01*
X0397464Y0140663D01*
X0397477Y0140705D01*
X0397486Y0140747D01*
X0397492Y0140790D01*
X0397494Y0140834D01*
X0397494Y0146834D01*
X0397492Y0146878D01*
X0397486Y0146921D01*
X0397477Y0146963D01*
X0397464Y0147005D01*
X0397447Y0147045D01*
X0397427Y0147084D01*
X0397404Y0147121D01*
X0397377Y0147155D01*
X0397348Y0147188D01*
X0397315Y0147217D01*
X0397281Y0147244D01*
X0397244Y0147267D01*
X0397205Y0147287D01*
X0397165Y0147304D01*
X0397123Y0147317D01*
X0397081Y0147326D01*
X0397038Y0147332D01*
X0396994Y0147334D01*
X0394494Y0147334D01*
X0394450Y0147332D01*
X0394407Y0147326D01*
X0394365Y0147317D01*
X0394323Y0147304D01*
X0394283Y0147287D01*
X0394244Y0147267D01*
X0394207Y0147244D01*
X0394173Y0147217D01*
X0394140Y0147188D01*
X0394111Y0147155D01*
X0394084Y0147121D01*
X0394061Y0147084D01*
X0394041Y0147045D01*
X0394024Y0147005D01*
X0394011Y0146963D01*
X0394002Y0146921D01*
X0393996Y0146878D01*
X0393994Y0146834D01*
X0393994Y0140834D01*
X0393996Y0140790D01*
X0394002Y0140747D01*
X0394011Y0140705D01*
X0394024Y0140663D01*
X0394041Y0140623D01*
X0394061Y0140584D01*
X0394084Y0140547D01*
X0394111Y0140513D01*
X0394140Y0140480D01*
X0394173Y0140451D01*
X0394207Y0140424D01*
X0394244Y0140401D01*
X0394283Y0140381D01*
X0394323Y0140364D01*
X0394365Y0140351D01*
X0394407Y0140342D01*
X0394450Y0140336D01*
X0394494Y0140334D01*
X0347494Y0140834D02*
X0347494Y0146834D01*
X0347492Y0146878D01*
X0347486Y0146921D01*
X0347477Y0146963D01*
X0347464Y0147005D01*
X0347447Y0147045D01*
X0347427Y0147084D01*
X0347404Y0147121D01*
X0347377Y0147155D01*
X0347348Y0147188D01*
X0347315Y0147217D01*
X0347281Y0147244D01*
X0347244Y0147267D01*
X0347205Y0147287D01*
X0347165Y0147304D01*
X0347123Y0147317D01*
X0347081Y0147326D01*
X0347038Y0147332D01*
X0346994Y0147334D01*
X0344494Y0147334D01*
X0344450Y0147332D01*
X0344407Y0147326D01*
X0344365Y0147317D01*
X0344323Y0147304D01*
X0344283Y0147287D01*
X0344244Y0147267D01*
X0344207Y0147244D01*
X0344173Y0147217D01*
X0344140Y0147188D01*
X0344111Y0147155D01*
X0344084Y0147121D01*
X0344061Y0147084D01*
X0344041Y0147045D01*
X0344024Y0147005D01*
X0344011Y0146963D01*
X0344002Y0146921D01*
X0343996Y0146878D01*
X0343994Y0146834D01*
X0343994Y0140834D01*
X0343996Y0140790D01*
X0344002Y0140747D01*
X0344011Y0140705D01*
X0344024Y0140663D01*
X0344041Y0140623D01*
X0344061Y0140584D01*
X0344084Y0140547D01*
X0344111Y0140513D01*
X0344140Y0140480D01*
X0344173Y0140451D01*
X0344207Y0140424D01*
X0344244Y0140401D01*
X0344283Y0140381D01*
X0344323Y0140364D01*
X0344365Y0140351D01*
X0344407Y0140342D01*
X0344450Y0140336D01*
X0344494Y0140334D01*
X0346994Y0140334D01*
X0347038Y0140336D01*
X0347081Y0140342D01*
X0347123Y0140351D01*
X0347165Y0140364D01*
X0347205Y0140381D01*
X0347244Y0140401D01*
X0347281Y0140424D01*
X0347315Y0140451D01*
X0347348Y0140480D01*
X0347377Y0140513D01*
X0347404Y0140547D01*
X0347427Y0140584D01*
X0347447Y0140623D01*
X0347464Y0140663D01*
X0347477Y0140705D01*
X0347486Y0140747D01*
X0347492Y0140790D01*
X0347494Y0140834D01*
X0297494Y0140834D02*
X0297494Y0146834D01*
X0297492Y0146878D01*
X0297486Y0146921D01*
X0297477Y0146963D01*
X0297464Y0147005D01*
X0297447Y0147045D01*
X0297427Y0147084D01*
X0297404Y0147121D01*
X0297377Y0147155D01*
X0297348Y0147188D01*
X0297315Y0147217D01*
X0297281Y0147244D01*
X0297244Y0147267D01*
X0297205Y0147287D01*
X0297165Y0147304D01*
X0297123Y0147317D01*
X0297081Y0147326D01*
X0297038Y0147332D01*
X0296994Y0147334D01*
X0294494Y0147334D01*
X0294450Y0147332D01*
X0294407Y0147326D01*
X0294365Y0147317D01*
X0294323Y0147304D01*
X0294283Y0147287D01*
X0294244Y0147267D01*
X0294207Y0147244D01*
X0294173Y0147217D01*
X0294140Y0147188D01*
X0294111Y0147155D01*
X0294084Y0147121D01*
X0294061Y0147084D01*
X0294041Y0147045D01*
X0294024Y0147005D01*
X0294011Y0146963D01*
X0294002Y0146921D01*
X0293996Y0146878D01*
X0293994Y0146834D01*
X0293994Y0140834D01*
X0293996Y0140790D01*
X0294002Y0140747D01*
X0294011Y0140705D01*
X0294024Y0140663D01*
X0294041Y0140623D01*
X0294061Y0140584D01*
X0294084Y0140547D01*
X0294111Y0140513D01*
X0294140Y0140480D01*
X0294173Y0140451D01*
X0294207Y0140424D01*
X0294244Y0140401D01*
X0294283Y0140381D01*
X0294323Y0140364D01*
X0294365Y0140351D01*
X0294407Y0140342D01*
X0294450Y0140336D01*
X0294494Y0140334D01*
X0296994Y0140334D01*
X0297038Y0140336D01*
X0297081Y0140342D01*
X0297123Y0140351D01*
X0297165Y0140364D01*
X0297205Y0140381D01*
X0297244Y0140401D01*
X0297281Y0140424D01*
X0297315Y0140451D01*
X0297348Y0140480D01*
X0297377Y0140513D01*
X0297404Y0140547D01*
X0297427Y0140584D01*
X0297447Y0140623D01*
X0297464Y0140663D01*
X0297477Y0140705D01*
X0297486Y0140747D01*
X0297492Y0140790D01*
X0297494Y0140834D01*
X0247494Y0140834D02*
X0247494Y0146834D01*
X0247492Y0146878D01*
X0247486Y0146921D01*
X0247477Y0146963D01*
X0247464Y0147005D01*
X0247447Y0147045D01*
X0247427Y0147084D01*
X0247404Y0147121D01*
X0247377Y0147155D01*
X0247348Y0147188D01*
X0247315Y0147217D01*
X0247281Y0147244D01*
X0247244Y0147267D01*
X0247205Y0147287D01*
X0247165Y0147304D01*
X0247123Y0147317D01*
X0247081Y0147326D01*
X0247038Y0147332D01*
X0246994Y0147334D01*
X0244494Y0147334D01*
X0244450Y0147332D01*
X0244407Y0147326D01*
X0244365Y0147317D01*
X0244323Y0147304D01*
X0244283Y0147287D01*
X0244244Y0147267D01*
X0244207Y0147244D01*
X0244173Y0147217D01*
X0244140Y0147188D01*
X0244111Y0147155D01*
X0244084Y0147121D01*
X0244061Y0147084D01*
X0244041Y0147045D01*
X0244024Y0147005D01*
X0244011Y0146963D01*
X0244002Y0146921D01*
X0243996Y0146878D01*
X0243994Y0146834D01*
X0243994Y0140834D01*
X0243996Y0140790D01*
X0244002Y0140747D01*
X0244011Y0140705D01*
X0244024Y0140663D01*
X0244041Y0140623D01*
X0244061Y0140584D01*
X0244084Y0140547D01*
X0244111Y0140513D01*
X0244140Y0140480D01*
X0244173Y0140451D01*
X0244207Y0140424D01*
X0244244Y0140401D01*
X0244283Y0140381D01*
X0244323Y0140364D01*
X0244365Y0140351D01*
X0244407Y0140342D01*
X0244450Y0140336D01*
X0244494Y0140334D01*
X0246994Y0140334D01*
X0247038Y0140336D01*
X0247081Y0140342D01*
X0247123Y0140351D01*
X0247165Y0140364D01*
X0247205Y0140381D01*
X0247244Y0140401D01*
X0247281Y0140424D01*
X0247315Y0140451D01*
X0247348Y0140480D01*
X0247377Y0140513D01*
X0247404Y0140547D01*
X0247427Y0140584D01*
X0247447Y0140623D01*
X0247464Y0140663D01*
X0247477Y0140705D01*
X0247486Y0140747D01*
X0247492Y0140790D01*
X0247494Y0140834D01*
X0197494Y0140834D02*
X0197494Y0146834D01*
X0197492Y0146878D01*
X0197486Y0146921D01*
X0197477Y0146963D01*
X0197464Y0147005D01*
X0197447Y0147045D01*
X0197427Y0147084D01*
X0197404Y0147121D01*
X0197377Y0147155D01*
X0197348Y0147188D01*
X0197315Y0147217D01*
X0197281Y0147244D01*
X0197244Y0147267D01*
X0197205Y0147287D01*
X0197165Y0147304D01*
X0197123Y0147317D01*
X0197081Y0147326D01*
X0197038Y0147332D01*
X0196994Y0147334D01*
X0194494Y0147334D01*
X0194450Y0147332D01*
X0194407Y0147326D01*
X0194365Y0147317D01*
X0194323Y0147304D01*
X0194283Y0147287D01*
X0194244Y0147267D01*
X0194207Y0147244D01*
X0194173Y0147217D01*
X0194140Y0147188D01*
X0194111Y0147155D01*
X0194084Y0147121D01*
X0194061Y0147084D01*
X0194041Y0147045D01*
X0194024Y0147005D01*
X0194011Y0146963D01*
X0194002Y0146921D01*
X0193996Y0146878D01*
X0193994Y0146834D01*
X0193994Y0140834D01*
X0193996Y0140790D01*
X0194002Y0140747D01*
X0194011Y0140705D01*
X0194024Y0140663D01*
X0194041Y0140623D01*
X0194061Y0140584D01*
X0194084Y0140547D01*
X0194111Y0140513D01*
X0194140Y0140480D01*
X0194173Y0140451D01*
X0194207Y0140424D01*
X0194244Y0140401D01*
X0194283Y0140381D01*
X0194323Y0140364D01*
X0194365Y0140351D01*
X0194407Y0140342D01*
X0194450Y0140336D01*
X0194494Y0140334D01*
X0196994Y0140334D01*
X0197038Y0140336D01*
X0197081Y0140342D01*
X0197123Y0140351D01*
X0197165Y0140364D01*
X0197205Y0140381D01*
X0197244Y0140401D01*
X0197281Y0140424D01*
X0197315Y0140451D01*
X0197348Y0140480D01*
X0197377Y0140513D01*
X0197404Y0140547D01*
X0197427Y0140584D01*
X0197447Y0140623D01*
X0197464Y0140663D01*
X0197477Y0140705D01*
X0197486Y0140747D01*
X0197492Y0140790D01*
X0197494Y0140834D01*
X0089244Y0185084D02*
X0089244Y0187584D01*
X0089242Y0187628D01*
X0089236Y0187671D01*
X0089227Y0187713D01*
X0089214Y0187755D01*
X0089197Y0187795D01*
X0089177Y0187834D01*
X0089154Y0187871D01*
X0089127Y0187905D01*
X0089098Y0187938D01*
X0089065Y0187967D01*
X0089031Y0187994D01*
X0088994Y0188017D01*
X0088955Y0188037D01*
X0088915Y0188054D01*
X0088873Y0188067D01*
X0088831Y0188076D01*
X0088788Y0188082D01*
X0088744Y0188084D01*
X0082744Y0188084D01*
X0082700Y0188082D01*
X0082657Y0188076D01*
X0082615Y0188067D01*
X0082573Y0188054D01*
X0082533Y0188037D01*
X0082494Y0188017D01*
X0082457Y0187994D01*
X0082423Y0187967D01*
X0082390Y0187938D01*
X0082361Y0187905D01*
X0082334Y0187871D01*
X0082311Y0187834D01*
X0082291Y0187795D01*
X0082274Y0187755D01*
X0082261Y0187713D01*
X0082252Y0187671D01*
X0082246Y0187628D01*
X0082244Y0187584D01*
X0082244Y0185084D01*
X0082246Y0185040D01*
X0082252Y0184997D01*
X0082261Y0184955D01*
X0082274Y0184913D01*
X0082291Y0184873D01*
X0082311Y0184834D01*
X0082334Y0184797D01*
X0082361Y0184763D01*
X0082390Y0184730D01*
X0082423Y0184701D01*
X0082457Y0184674D01*
X0082494Y0184651D01*
X0082533Y0184631D01*
X0082573Y0184614D01*
X0082615Y0184601D01*
X0082657Y0184592D01*
X0082700Y0184586D01*
X0082744Y0184584D01*
X0088744Y0184584D01*
X0088788Y0184586D01*
X0088831Y0184592D01*
X0088873Y0184601D01*
X0088915Y0184614D01*
X0088955Y0184631D01*
X0088994Y0184651D01*
X0089031Y0184674D01*
X0089065Y0184701D01*
X0089098Y0184730D01*
X0089127Y0184763D01*
X0089154Y0184797D01*
X0089177Y0184834D01*
X0089197Y0184873D01*
X0089214Y0184913D01*
X0089227Y0184955D01*
X0089236Y0184997D01*
X0089242Y0185040D01*
X0089244Y0185084D01*
X0079744Y0249584D02*
X0073744Y0249584D01*
X0073700Y0249586D01*
X0073657Y0249592D01*
X0073615Y0249601D01*
X0073573Y0249614D01*
X0073533Y0249631D01*
X0073494Y0249651D01*
X0073457Y0249674D01*
X0073423Y0249701D01*
X0073390Y0249730D01*
X0073361Y0249763D01*
X0073334Y0249797D01*
X0073311Y0249834D01*
X0073291Y0249873D01*
X0073274Y0249913D01*
X0073261Y0249955D01*
X0073252Y0249997D01*
X0073246Y0250040D01*
X0073244Y0250084D01*
X0073244Y0252584D01*
X0073246Y0252628D01*
X0073252Y0252671D01*
X0073261Y0252713D01*
X0073274Y0252755D01*
X0073291Y0252795D01*
X0073311Y0252834D01*
X0073334Y0252871D01*
X0073361Y0252905D01*
X0073390Y0252938D01*
X0073423Y0252967D01*
X0073457Y0252994D01*
X0073494Y0253017D01*
X0073533Y0253037D01*
X0073573Y0253054D01*
X0073615Y0253067D01*
X0073657Y0253076D01*
X0073700Y0253082D01*
X0073744Y0253084D01*
X0079744Y0253084D01*
X0079788Y0253082D01*
X0079831Y0253076D01*
X0079873Y0253067D01*
X0079915Y0253054D01*
X0079955Y0253037D01*
X0079994Y0253017D01*
X0080031Y0252994D01*
X0080065Y0252967D01*
X0080098Y0252938D01*
X0080127Y0252905D01*
X0080154Y0252871D01*
X0080177Y0252834D01*
X0080197Y0252795D01*
X0080214Y0252755D01*
X0080227Y0252713D01*
X0080236Y0252671D01*
X0080242Y0252628D01*
X0080244Y0252584D01*
X0080244Y0250084D01*
X0080242Y0250040D01*
X0080236Y0249997D01*
X0080227Y0249955D01*
X0080214Y0249913D01*
X0080197Y0249873D01*
X0080177Y0249834D01*
X0080154Y0249797D01*
X0080127Y0249763D01*
X0080098Y0249730D01*
X0080065Y0249701D01*
X0080031Y0249674D01*
X0079994Y0249651D01*
X0079955Y0249631D01*
X0079915Y0249614D01*
X0079873Y0249601D01*
X0079831Y0249592D01*
X0079788Y0249586D01*
X0079744Y0249584D01*
X0097994Y0285334D02*
X0100494Y0285334D01*
X0100538Y0285336D01*
X0100581Y0285342D01*
X0100623Y0285351D01*
X0100665Y0285364D01*
X0100705Y0285381D01*
X0100744Y0285401D01*
X0100781Y0285424D01*
X0100815Y0285451D01*
X0100848Y0285480D01*
X0100877Y0285513D01*
X0100904Y0285547D01*
X0100927Y0285584D01*
X0100947Y0285623D01*
X0100964Y0285663D01*
X0100977Y0285705D01*
X0100986Y0285747D01*
X0100992Y0285790D01*
X0100994Y0285834D01*
X0100994Y0291834D01*
X0100992Y0291878D01*
X0100986Y0291921D01*
X0100977Y0291963D01*
X0100964Y0292005D01*
X0100947Y0292045D01*
X0100927Y0292084D01*
X0100904Y0292121D01*
X0100877Y0292155D01*
X0100848Y0292188D01*
X0100815Y0292217D01*
X0100781Y0292244D01*
X0100744Y0292267D01*
X0100705Y0292287D01*
X0100665Y0292304D01*
X0100623Y0292317D01*
X0100581Y0292326D01*
X0100538Y0292332D01*
X0100494Y0292334D01*
X0097994Y0292334D01*
X0097950Y0292332D01*
X0097907Y0292326D01*
X0097865Y0292317D01*
X0097823Y0292304D01*
X0097783Y0292287D01*
X0097744Y0292267D01*
X0097707Y0292244D01*
X0097673Y0292217D01*
X0097640Y0292188D01*
X0097611Y0292155D01*
X0097584Y0292121D01*
X0097561Y0292084D01*
X0097541Y0292045D01*
X0097524Y0292005D01*
X0097511Y0291963D01*
X0097502Y0291921D01*
X0097496Y0291878D01*
X0097494Y0291834D01*
X0097494Y0285834D01*
X0097496Y0285790D01*
X0097502Y0285747D01*
X0097511Y0285705D01*
X0097524Y0285663D01*
X0097541Y0285623D01*
X0097561Y0285584D01*
X0097584Y0285547D01*
X0097611Y0285513D01*
X0097640Y0285480D01*
X0097673Y0285451D01*
X0097707Y0285424D01*
X0097744Y0285401D01*
X0097783Y0285381D01*
X0097823Y0285364D01*
X0097865Y0285351D01*
X0097907Y0285342D01*
X0097950Y0285336D01*
X0097994Y0285334D01*
X0106244Y0286084D02*
X0106244Y0288584D01*
X0106246Y0288628D01*
X0106252Y0288671D01*
X0106261Y0288713D01*
X0106274Y0288755D01*
X0106291Y0288795D01*
X0106311Y0288834D01*
X0106334Y0288871D01*
X0106361Y0288905D01*
X0106390Y0288938D01*
X0106423Y0288967D01*
X0106457Y0288994D01*
X0106494Y0289017D01*
X0106533Y0289037D01*
X0106573Y0289054D01*
X0106615Y0289067D01*
X0106657Y0289076D01*
X0106700Y0289082D01*
X0106744Y0289084D01*
X0112744Y0289084D01*
X0112788Y0289082D01*
X0112831Y0289076D01*
X0112873Y0289067D01*
X0112915Y0289054D01*
X0112955Y0289037D01*
X0112994Y0289017D01*
X0113031Y0288994D01*
X0113065Y0288967D01*
X0113098Y0288938D01*
X0113127Y0288905D01*
X0113154Y0288871D01*
X0113177Y0288834D01*
X0113197Y0288795D01*
X0113214Y0288755D01*
X0113227Y0288713D01*
X0113236Y0288671D01*
X0113242Y0288628D01*
X0113244Y0288584D01*
X0113244Y0286084D01*
X0113242Y0286040D01*
X0113236Y0285997D01*
X0113227Y0285955D01*
X0113214Y0285913D01*
X0113197Y0285873D01*
X0113177Y0285834D01*
X0113154Y0285797D01*
X0113127Y0285763D01*
X0113098Y0285730D01*
X0113065Y0285701D01*
X0113031Y0285674D01*
X0112994Y0285651D01*
X0112955Y0285631D01*
X0112915Y0285614D01*
X0112873Y0285601D01*
X0112831Y0285592D01*
X0112788Y0285586D01*
X0112744Y0285584D01*
X0106744Y0285584D01*
X0106700Y0285586D01*
X0106657Y0285592D01*
X0106615Y0285601D01*
X0106573Y0285614D01*
X0106533Y0285631D01*
X0106494Y0285651D01*
X0106457Y0285674D01*
X0106423Y0285701D01*
X0106390Y0285730D01*
X0106361Y0285763D01*
X0106334Y0285797D01*
X0106311Y0285834D01*
X0106291Y0285873D01*
X0106274Y0285913D01*
X0106261Y0285955D01*
X0106252Y0285997D01*
X0106246Y0286040D01*
X0106244Y0286084D01*
X0131244Y0285084D02*
X0131244Y0287584D01*
X0131246Y0287628D01*
X0131252Y0287671D01*
X0131261Y0287713D01*
X0131274Y0287755D01*
X0131291Y0287795D01*
X0131311Y0287834D01*
X0131334Y0287871D01*
X0131361Y0287905D01*
X0131390Y0287938D01*
X0131423Y0287967D01*
X0131457Y0287994D01*
X0131494Y0288017D01*
X0131533Y0288037D01*
X0131573Y0288054D01*
X0131615Y0288067D01*
X0131657Y0288076D01*
X0131700Y0288082D01*
X0131744Y0288084D01*
X0137744Y0288084D01*
X0137788Y0288082D01*
X0137831Y0288076D01*
X0137873Y0288067D01*
X0137915Y0288054D01*
X0137955Y0288037D01*
X0137994Y0288017D01*
X0138031Y0287994D01*
X0138065Y0287967D01*
X0138098Y0287938D01*
X0138127Y0287905D01*
X0138154Y0287871D01*
X0138177Y0287834D01*
X0138197Y0287795D01*
X0138214Y0287755D01*
X0138227Y0287713D01*
X0138236Y0287671D01*
X0138242Y0287628D01*
X0138244Y0287584D01*
X0138244Y0285084D01*
X0138242Y0285040D01*
X0138236Y0284997D01*
X0138227Y0284955D01*
X0138214Y0284913D01*
X0138197Y0284873D01*
X0138177Y0284834D01*
X0138154Y0284797D01*
X0138127Y0284763D01*
X0138098Y0284730D01*
X0138065Y0284701D01*
X0138031Y0284674D01*
X0137994Y0284651D01*
X0137955Y0284631D01*
X0137915Y0284614D01*
X0137873Y0284601D01*
X0137831Y0284592D01*
X0137788Y0284586D01*
X0137744Y0284584D01*
X0131744Y0284584D01*
X0131700Y0284586D01*
X0131657Y0284592D01*
X0131615Y0284601D01*
X0131573Y0284614D01*
X0131533Y0284631D01*
X0131494Y0284651D01*
X0131457Y0284674D01*
X0131423Y0284701D01*
X0131390Y0284730D01*
X0131361Y0284763D01*
X0131334Y0284797D01*
X0131311Y0284834D01*
X0131291Y0284873D01*
X0131274Y0284913D01*
X0131261Y0284955D01*
X0131252Y0284997D01*
X0131246Y0285040D01*
X0131244Y0285084D01*
X0143994Y0286834D02*
X0143994Y0280834D01*
X0143996Y0280790D01*
X0144002Y0280747D01*
X0144011Y0280705D01*
X0144024Y0280663D01*
X0144041Y0280623D01*
X0144061Y0280584D01*
X0144084Y0280547D01*
X0144111Y0280513D01*
X0144140Y0280480D01*
X0144173Y0280451D01*
X0144207Y0280424D01*
X0144244Y0280401D01*
X0144283Y0280381D01*
X0144323Y0280364D01*
X0144365Y0280351D01*
X0144407Y0280342D01*
X0144450Y0280336D01*
X0144494Y0280334D01*
X0146994Y0280334D01*
X0147038Y0280336D01*
X0147081Y0280342D01*
X0147123Y0280351D01*
X0147165Y0280364D01*
X0147205Y0280381D01*
X0147244Y0280401D01*
X0147281Y0280424D01*
X0147315Y0280451D01*
X0147348Y0280480D01*
X0147377Y0280513D01*
X0147404Y0280547D01*
X0147427Y0280584D01*
X0147447Y0280623D01*
X0147464Y0280663D01*
X0147477Y0280705D01*
X0147486Y0280747D01*
X0147492Y0280790D01*
X0147494Y0280834D01*
X0147494Y0286834D01*
X0147492Y0286878D01*
X0147486Y0286921D01*
X0147477Y0286963D01*
X0147464Y0287005D01*
X0147447Y0287045D01*
X0147427Y0287084D01*
X0147404Y0287121D01*
X0147377Y0287155D01*
X0147348Y0287188D01*
X0147315Y0287217D01*
X0147281Y0287244D01*
X0147244Y0287267D01*
X0147205Y0287287D01*
X0147165Y0287304D01*
X0147123Y0287317D01*
X0147081Y0287326D01*
X0147038Y0287332D01*
X0146994Y0287334D01*
X0144494Y0287334D01*
X0144450Y0287332D01*
X0144407Y0287326D01*
X0144365Y0287317D01*
X0144323Y0287304D01*
X0144283Y0287287D01*
X0144244Y0287267D01*
X0144207Y0287244D01*
X0144173Y0287217D01*
X0144140Y0287188D01*
X0144111Y0287155D01*
X0144084Y0287121D01*
X0144061Y0287084D01*
X0144041Y0287045D01*
X0144024Y0287005D01*
X0144011Y0286963D01*
X0144002Y0286921D01*
X0143996Y0286878D01*
X0143994Y0286834D01*
X0149494Y0300334D02*
X0151994Y0300334D01*
X0152038Y0300336D01*
X0152081Y0300342D01*
X0152123Y0300351D01*
X0152165Y0300364D01*
X0152205Y0300381D01*
X0152244Y0300401D01*
X0152281Y0300424D01*
X0152315Y0300451D01*
X0152348Y0300480D01*
X0152377Y0300513D01*
X0152404Y0300547D01*
X0152427Y0300584D01*
X0152447Y0300623D01*
X0152464Y0300663D01*
X0152477Y0300705D01*
X0152486Y0300747D01*
X0152492Y0300790D01*
X0152494Y0300834D01*
X0152494Y0306834D01*
X0152492Y0306878D01*
X0152486Y0306921D01*
X0152477Y0306963D01*
X0152464Y0307005D01*
X0152447Y0307045D01*
X0152427Y0307084D01*
X0152404Y0307121D01*
X0152377Y0307155D01*
X0152348Y0307188D01*
X0152315Y0307217D01*
X0152281Y0307244D01*
X0152244Y0307267D01*
X0152205Y0307287D01*
X0152165Y0307304D01*
X0152123Y0307317D01*
X0152081Y0307326D01*
X0152038Y0307332D01*
X0151994Y0307334D01*
X0149494Y0307334D01*
X0149450Y0307332D01*
X0149407Y0307326D01*
X0149365Y0307317D01*
X0149323Y0307304D01*
X0149283Y0307287D01*
X0149244Y0307267D01*
X0149207Y0307244D01*
X0149173Y0307217D01*
X0149140Y0307188D01*
X0149111Y0307155D01*
X0149084Y0307121D01*
X0149061Y0307084D01*
X0149041Y0307045D01*
X0149024Y0307005D01*
X0149011Y0306963D01*
X0149002Y0306921D01*
X0148996Y0306878D01*
X0148994Y0306834D01*
X0148994Y0300834D01*
X0148996Y0300790D01*
X0149002Y0300747D01*
X0149011Y0300705D01*
X0149024Y0300663D01*
X0149041Y0300623D01*
X0149061Y0300584D01*
X0149084Y0300547D01*
X0149111Y0300513D01*
X0149140Y0300480D01*
X0149173Y0300451D01*
X0149207Y0300424D01*
X0149244Y0300401D01*
X0149283Y0300381D01*
X0149323Y0300364D01*
X0149365Y0300351D01*
X0149407Y0300342D01*
X0149450Y0300336D01*
X0149494Y0300334D01*
X0150244Y0270584D02*
X0156244Y0270584D01*
X0156288Y0270582D01*
X0156331Y0270576D01*
X0156373Y0270567D01*
X0156415Y0270554D01*
X0156455Y0270537D01*
X0156494Y0270517D01*
X0156531Y0270494D01*
X0156565Y0270467D01*
X0156598Y0270438D01*
X0156627Y0270405D01*
X0156654Y0270371D01*
X0156677Y0270334D01*
X0156697Y0270295D01*
X0156714Y0270255D01*
X0156727Y0270213D01*
X0156736Y0270171D01*
X0156742Y0270128D01*
X0156744Y0270084D01*
X0156744Y0267584D01*
X0156742Y0267540D01*
X0156736Y0267497D01*
X0156727Y0267455D01*
X0156714Y0267413D01*
X0156697Y0267373D01*
X0156677Y0267334D01*
X0156654Y0267297D01*
X0156627Y0267263D01*
X0156598Y0267230D01*
X0156565Y0267201D01*
X0156531Y0267174D01*
X0156494Y0267151D01*
X0156455Y0267131D01*
X0156415Y0267114D01*
X0156373Y0267101D01*
X0156331Y0267092D01*
X0156288Y0267086D01*
X0156244Y0267084D01*
X0150244Y0267084D01*
X0150200Y0267086D01*
X0150157Y0267092D01*
X0150115Y0267101D01*
X0150073Y0267114D01*
X0150033Y0267131D01*
X0149994Y0267151D01*
X0149957Y0267174D01*
X0149923Y0267201D01*
X0149890Y0267230D01*
X0149861Y0267263D01*
X0149834Y0267297D01*
X0149811Y0267334D01*
X0149791Y0267373D01*
X0149774Y0267413D01*
X0149761Y0267455D01*
X0149752Y0267497D01*
X0149746Y0267540D01*
X0149744Y0267584D01*
X0149744Y0270084D01*
X0149746Y0270128D01*
X0149752Y0270171D01*
X0149761Y0270213D01*
X0149774Y0270255D01*
X0149791Y0270295D01*
X0149811Y0270334D01*
X0149834Y0270371D01*
X0149861Y0270405D01*
X0149890Y0270438D01*
X0149923Y0270467D01*
X0149957Y0270494D01*
X0149994Y0270517D01*
X0150033Y0270537D01*
X0150073Y0270554D01*
X0150115Y0270567D01*
X0150157Y0270576D01*
X0150200Y0270582D01*
X0150244Y0270584D01*
X0151994Y0256334D02*
X0154494Y0256334D01*
X0154538Y0256332D01*
X0154581Y0256326D01*
X0154623Y0256317D01*
X0154665Y0256304D01*
X0154705Y0256287D01*
X0154744Y0256267D01*
X0154781Y0256244D01*
X0154815Y0256217D01*
X0154848Y0256188D01*
X0154877Y0256155D01*
X0154904Y0256121D01*
X0154927Y0256084D01*
X0154947Y0256045D01*
X0154964Y0256005D01*
X0154977Y0255963D01*
X0154986Y0255921D01*
X0154992Y0255878D01*
X0154994Y0255834D01*
X0154994Y0249834D01*
X0154992Y0249790D01*
X0154986Y0249747D01*
X0154977Y0249705D01*
X0154964Y0249663D01*
X0154947Y0249623D01*
X0154927Y0249584D01*
X0154904Y0249547D01*
X0154877Y0249513D01*
X0154848Y0249480D01*
X0154815Y0249451D01*
X0154781Y0249424D01*
X0154744Y0249401D01*
X0154705Y0249381D01*
X0154665Y0249364D01*
X0154623Y0249351D01*
X0154581Y0249342D01*
X0154538Y0249336D01*
X0154494Y0249334D01*
X0151994Y0249334D01*
X0151950Y0249336D01*
X0151907Y0249342D01*
X0151865Y0249351D01*
X0151823Y0249364D01*
X0151783Y0249381D01*
X0151744Y0249401D01*
X0151707Y0249424D01*
X0151673Y0249451D01*
X0151640Y0249480D01*
X0151611Y0249513D01*
X0151584Y0249547D01*
X0151561Y0249584D01*
X0151541Y0249623D01*
X0151524Y0249663D01*
X0151511Y0249705D01*
X0151502Y0249747D01*
X0151496Y0249790D01*
X0151494Y0249834D01*
X0151494Y0255834D01*
X0151496Y0255878D01*
X0151502Y0255921D01*
X0151511Y0255963D01*
X0151524Y0256005D01*
X0151541Y0256045D01*
X0151561Y0256084D01*
X0151584Y0256121D01*
X0151611Y0256155D01*
X0151640Y0256188D01*
X0151673Y0256217D01*
X0151707Y0256244D01*
X0151744Y0256267D01*
X0151783Y0256287D01*
X0151823Y0256304D01*
X0151865Y0256317D01*
X0151907Y0256326D01*
X0151950Y0256332D01*
X0151994Y0256334D01*
X0178794Y0257004D02*
X0181930Y0253868D01*
X0180362Y0253868D02*
X0180362Y0257004D01*
X0181930Y0257004D02*
X0178794Y0253868D01*
X0178794Y0255436D02*
X0181930Y0255436D01*
X0197244Y0260084D02*
X0197244Y0262584D01*
X0197246Y0262628D01*
X0197252Y0262671D01*
X0197261Y0262713D01*
X0197274Y0262755D01*
X0197291Y0262795D01*
X0197311Y0262834D01*
X0197334Y0262871D01*
X0197361Y0262905D01*
X0197390Y0262938D01*
X0197423Y0262967D01*
X0197457Y0262994D01*
X0197494Y0263017D01*
X0197533Y0263037D01*
X0197573Y0263054D01*
X0197615Y0263067D01*
X0197657Y0263076D01*
X0197700Y0263082D01*
X0197744Y0263084D01*
X0203744Y0263084D01*
X0203788Y0263082D01*
X0203831Y0263076D01*
X0203873Y0263067D01*
X0203915Y0263054D01*
X0203955Y0263037D01*
X0203994Y0263017D01*
X0204031Y0262994D01*
X0204065Y0262967D01*
X0204098Y0262938D01*
X0204127Y0262905D01*
X0204154Y0262871D01*
X0204177Y0262834D01*
X0204197Y0262795D01*
X0204214Y0262755D01*
X0204227Y0262713D01*
X0204236Y0262671D01*
X0204242Y0262628D01*
X0204244Y0262584D01*
X0204244Y0260084D01*
X0204242Y0260040D01*
X0204236Y0259997D01*
X0204227Y0259955D01*
X0204214Y0259913D01*
X0204197Y0259873D01*
X0204177Y0259834D01*
X0204154Y0259797D01*
X0204127Y0259763D01*
X0204098Y0259730D01*
X0204065Y0259701D01*
X0204031Y0259674D01*
X0203994Y0259651D01*
X0203955Y0259631D01*
X0203915Y0259614D01*
X0203873Y0259601D01*
X0203831Y0259592D01*
X0203788Y0259586D01*
X0203744Y0259584D01*
X0197744Y0259584D01*
X0197700Y0259586D01*
X0197657Y0259592D01*
X0197615Y0259601D01*
X0197573Y0259614D01*
X0197533Y0259631D01*
X0197494Y0259651D01*
X0197457Y0259674D01*
X0197423Y0259701D01*
X0197390Y0259730D01*
X0197361Y0259763D01*
X0197334Y0259797D01*
X0197311Y0259834D01*
X0197291Y0259873D01*
X0197274Y0259913D01*
X0197261Y0259955D01*
X0197252Y0259997D01*
X0197246Y0260040D01*
X0197244Y0260084D01*
X0278794Y0257004D02*
X0281930Y0253868D01*
X0280362Y0253868D02*
X0280362Y0257004D01*
X0281930Y0257004D02*
X0278794Y0253868D01*
X0278794Y0255436D02*
X0281930Y0255436D01*
X0297244Y0260084D02*
X0297244Y0262584D01*
X0297246Y0262628D01*
X0297252Y0262671D01*
X0297261Y0262713D01*
X0297274Y0262755D01*
X0297291Y0262795D01*
X0297311Y0262834D01*
X0297334Y0262871D01*
X0297361Y0262905D01*
X0297390Y0262938D01*
X0297423Y0262967D01*
X0297457Y0262994D01*
X0297494Y0263017D01*
X0297533Y0263037D01*
X0297573Y0263054D01*
X0297615Y0263067D01*
X0297657Y0263076D01*
X0297700Y0263082D01*
X0297744Y0263084D01*
X0303744Y0263084D01*
X0303788Y0263082D01*
X0303831Y0263076D01*
X0303873Y0263067D01*
X0303915Y0263054D01*
X0303955Y0263037D01*
X0303994Y0263017D01*
X0304031Y0262994D01*
X0304065Y0262967D01*
X0304098Y0262938D01*
X0304127Y0262905D01*
X0304154Y0262871D01*
X0304177Y0262834D01*
X0304197Y0262795D01*
X0304214Y0262755D01*
X0304227Y0262713D01*
X0304236Y0262671D01*
X0304242Y0262628D01*
X0304244Y0262584D01*
X0304244Y0260084D01*
X0304242Y0260040D01*
X0304236Y0259997D01*
X0304227Y0259955D01*
X0304214Y0259913D01*
X0304197Y0259873D01*
X0304177Y0259834D01*
X0304154Y0259797D01*
X0304127Y0259763D01*
X0304098Y0259730D01*
X0304065Y0259701D01*
X0304031Y0259674D01*
X0303994Y0259651D01*
X0303955Y0259631D01*
X0303915Y0259614D01*
X0303873Y0259601D01*
X0303831Y0259592D01*
X0303788Y0259586D01*
X0303744Y0259584D01*
X0297744Y0259584D01*
X0297700Y0259586D01*
X0297657Y0259592D01*
X0297615Y0259601D01*
X0297573Y0259614D01*
X0297533Y0259631D01*
X0297494Y0259651D01*
X0297457Y0259674D01*
X0297423Y0259701D01*
X0297390Y0259730D01*
X0297361Y0259763D01*
X0297334Y0259797D01*
X0297311Y0259834D01*
X0297291Y0259873D01*
X0297274Y0259913D01*
X0297261Y0259955D01*
X0297252Y0259997D01*
X0297246Y0260040D01*
X0297244Y0260084D01*
X0373794Y0257004D02*
X0376930Y0253868D01*
X0375362Y0253868D02*
X0375362Y0257004D01*
X0376930Y0257004D02*
X0373794Y0253868D01*
X0373794Y0255436D02*
X0376930Y0255436D01*
X0392244Y0260084D02*
X0392244Y0262584D01*
X0392246Y0262628D01*
X0392252Y0262671D01*
X0392261Y0262713D01*
X0392274Y0262755D01*
X0392291Y0262795D01*
X0392311Y0262834D01*
X0392334Y0262871D01*
X0392361Y0262905D01*
X0392390Y0262938D01*
X0392423Y0262967D01*
X0392457Y0262994D01*
X0392494Y0263017D01*
X0392533Y0263037D01*
X0392573Y0263054D01*
X0392615Y0263067D01*
X0392657Y0263076D01*
X0392700Y0263082D01*
X0392744Y0263084D01*
X0398744Y0263084D01*
X0398788Y0263082D01*
X0398831Y0263076D01*
X0398873Y0263067D01*
X0398915Y0263054D01*
X0398955Y0263037D01*
X0398994Y0263017D01*
X0399031Y0262994D01*
X0399065Y0262967D01*
X0399098Y0262938D01*
X0399127Y0262905D01*
X0399154Y0262871D01*
X0399177Y0262834D01*
X0399197Y0262795D01*
X0399214Y0262755D01*
X0399227Y0262713D01*
X0399236Y0262671D01*
X0399242Y0262628D01*
X0399244Y0262584D01*
X0399244Y0260084D01*
X0399242Y0260040D01*
X0399236Y0259997D01*
X0399227Y0259955D01*
X0399214Y0259913D01*
X0399197Y0259873D01*
X0399177Y0259834D01*
X0399154Y0259797D01*
X0399127Y0259763D01*
X0399098Y0259730D01*
X0399065Y0259701D01*
X0399031Y0259674D01*
X0398994Y0259651D01*
X0398955Y0259631D01*
X0398915Y0259614D01*
X0398873Y0259601D01*
X0398831Y0259592D01*
X0398788Y0259586D01*
X0398744Y0259584D01*
X0392744Y0259584D01*
X0392700Y0259586D01*
X0392657Y0259592D01*
X0392615Y0259601D01*
X0392573Y0259614D01*
X0392533Y0259631D01*
X0392494Y0259651D01*
X0392457Y0259674D01*
X0392423Y0259701D01*
X0392390Y0259730D01*
X0392361Y0259763D01*
X0392334Y0259797D01*
X0392311Y0259834D01*
X0392291Y0259873D01*
X0392274Y0259913D01*
X0392261Y0259955D01*
X0392252Y0259997D01*
X0392246Y0260040D01*
X0392244Y0260084D01*
X0079244Y0297584D02*
X0079244Y0300084D01*
X0079242Y0300128D01*
X0079236Y0300171D01*
X0079227Y0300213D01*
X0079214Y0300255D01*
X0079197Y0300295D01*
X0079177Y0300334D01*
X0079154Y0300371D01*
X0079127Y0300405D01*
X0079098Y0300438D01*
X0079065Y0300467D01*
X0079031Y0300494D01*
X0078994Y0300517D01*
X0078955Y0300537D01*
X0078915Y0300554D01*
X0078873Y0300567D01*
X0078831Y0300576D01*
X0078788Y0300582D01*
X0078744Y0300584D01*
X0072744Y0300584D01*
X0072700Y0300582D01*
X0072657Y0300576D01*
X0072615Y0300567D01*
X0072573Y0300554D01*
X0072533Y0300537D01*
X0072494Y0300517D01*
X0072457Y0300494D01*
X0072423Y0300467D01*
X0072390Y0300438D01*
X0072361Y0300405D01*
X0072334Y0300371D01*
X0072311Y0300334D01*
X0072291Y0300295D01*
X0072274Y0300255D01*
X0072261Y0300213D01*
X0072252Y0300171D01*
X0072246Y0300128D01*
X0072244Y0300084D01*
X0072244Y0297584D01*
X0072246Y0297540D01*
X0072252Y0297497D01*
X0072261Y0297455D01*
X0072274Y0297413D01*
X0072291Y0297373D01*
X0072311Y0297334D01*
X0072334Y0297297D01*
X0072361Y0297263D01*
X0072390Y0297230D01*
X0072423Y0297201D01*
X0072457Y0297174D01*
X0072494Y0297151D01*
X0072533Y0297131D01*
X0072573Y0297114D01*
X0072615Y0297101D01*
X0072657Y0297092D01*
X0072700Y0297086D01*
X0072744Y0297084D01*
X0078744Y0297084D01*
X0078788Y0297086D01*
X0078831Y0297092D01*
X0078873Y0297101D01*
X0078915Y0297114D01*
X0078955Y0297131D01*
X0078994Y0297151D01*
X0079031Y0297174D01*
X0079065Y0297201D01*
X0079098Y0297230D01*
X0079127Y0297263D01*
X0079154Y0297297D01*
X0079177Y0297334D01*
X0079197Y0297373D01*
X0079214Y0297413D01*
X0079227Y0297455D01*
X0079236Y0297497D01*
X0079242Y0297540D01*
X0079244Y0297584D01*
X0078744Y0304584D02*
X0072744Y0304584D01*
X0072700Y0304586D01*
X0072657Y0304592D01*
X0072615Y0304601D01*
X0072573Y0304614D01*
X0072533Y0304631D01*
X0072494Y0304651D01*
X0072457Y0304674D01*
X0072423Y0304701D01*
X0072390Y0304730D01*
X0072361Y0304763D01*
X0072334Y0304797D01*
X0072311Y0304834D01*
X0072291Y0304873D01*
X0072274Y0304913D01*
X0072261Y0304955D01*
X0072252Y0304997D01*
X0072246Y0305040D01*
X0072244Y0305084D01*
X0072244Y0307584D01*
X0072246Y0307628D01*
X0072252Y0307671D01*
X0072261Y0307713D01*
X0072274Y0307755D01*
X0072291Y0307795D01*
X0072311Y0307834D01*
X0072334Y0307871D01*
X0072361Y0307905D01*
X0072390Y0307938D01*
X0072423Y0307967D01*
X0072457Y0307994D01*
X0072494Y0308017D01*
X0072533Y0308037D01*
X0072573Y0308054D01*
X0072615Y0308067D01*
X0072657Y0308076D01*
X0072700Y0308082D01*
X0072744Y0308084D01*
X0078744Y0308084D01*
X0078788Y0308082D01*
X0078831Y0308076D01*
X0078873Y0308067D01*
X0078915Y0308054D01*
X0078955Y0308037D01*
X0078994Y0308017D01*
X0079031Y0307994D01*
X0079065Y0307967D01*
X0079098Y0307938D01*
X0079127Y0307905D01*
X0079154Y0307871D01*
X0079177Y0307834D01*
X0079197Y0307795D01*
X0079214Y0307755D01*
X0079227Y0307713D01*
X0079236Y0307671D01*
X0079242Y0307628D01*
X0079244Y0307584D01*
X0079244Y0305084D01*
X0079242Y0305040D01*
X0079236Y0304997D01*
X0079227Y0304955D01*
X0079214Y0304913D01*
X0079197Y0304873D01*
X0079177Y0304834D01*
X0079154Y0304797D01*
X0079127Y0304763D01*
X0079098Y0304730D01*
X0079065Y0304701D01*
X0079031Y0304674D01*
X0078994Y0304651D01*
X0078955Y0304631D01*
X0078915Y0304614D01*
X0078873Y0304601D01*
X0078831Y0304592D01*
X0078788Y0304586D01*
X0078744Y0304584D01*
X0078744Y0312084D02*
X0072744Y0312084D01*
X0072700Y0312086D01*
X0072657Y0312092D01*
X0072615Y0312101D01*
X0072573Y0312114D01*
X0072533Y0312131D01*
X0072494Y0312151D01*
X0072457Y0312174D01*
X0072423Y0312201D01*
X0072390Y0312230D01*
X0072361Y0312263D01*
X0072334Y0312297D01*
X0072311Y0312334D01*
X0072291Y0312373D01*
X0072274Y0312413D01*
X0072261Y0312455D01*
X0072252Y0312497D01*
X0072246Y0312540D01*
X0072244Y0312584D01*
X0072244Y0315084D01*
X0072246Y0315128D01*
X0072252Y0315171D01*
X0072261Y0315213D01*
X0072274Y0315255D01*
X0072291Y0315295D01*
X0072311Y0315334D01*
X0072334Y0315371D01*
X0072361Y0315405D01*
X0072390Y0315438D01*
X0072423Y0315467D01*
X0072457Y0315494D01*
X0072494Y0315517D01*
X0072533Y0315537D01*
X0072573Y0315554D01*
X0072615Y0315567D01*
X0072657Y0315576D01*
X0072700Y0315582D01*
X0072744Y0315584D01*
X0078744Y0315584D01*
X0078788Y0315582D01*
X0078831Y0315576D01*
X0078873Y0315567D01*
X0078915Y0315554D01*
X0078955Y0315537D01*
X0078994Y0315517D01*
X0079031Y0315494D01*
X0079065Y0315467D01*
X0079098Y0315438D01*
X0079127Y0315405D01*
X0079154Y0315371D01*
X0079177Y0315334D01*
X0079197Y0315295D01*
X0079214Y0315255D01*
X0079227Y0315213D01*
X0079236Y0315171D01*
X0079242Y0315128D01*
X0079244Y0315084D01*
X0079244Y0312584D01*
X0079242Y0312540D01*
X0079236Y0312497D01*
X0079227Y0312455D01*
X0079214Y0312413D01*
X0079197Y0312373D01*
X0079177Y0312334D01*
X0079154Y0312297D01*
X0079127Y0312263D01*
X0079098Y0312230D01*
X0079065Y0312201D01*
X0079031Y0312174D01*
X0078994Y0312151D01*
X0078955Y0312131D01*
X0078915Y0312114D01*
X0078873Y0312101D01*
X0078831Y0312092D01*
X0078788Y0312086D01*
X0078744Y0312084D01*
D12*
X0075718Y0316534D02*
X0074684Y0316534D01*
X0074167Y0317051D01*
X0074167Y0318086D02*
X0075201Y0318603D01*
X0075718Y0318603D01*
X0076235Y0318086D01*
X0076235Y0317051D01*
X0075718Y0316534D01*
X0074167Y0318086D02*
X0074167Y0319637D01*
X0076235Y0319637D01*
X0073012Y0319120D02*
X0073012Y0318086D01*
X0072495Y0317569D01*
X0070944Y0317569D01*
X0071978Y0317569D02*
X0073012Y0316534D01*
X0070944Y0316534D02*
X0070944Y0319637D01*
X0072495Y0319637D01*
X0073012Y0319120D01*
X0083444Y0319051D02*
X0083961Y0318534D01*
X0084995Y0318534D01*
X0085512Y0319051D01*
X0085512Y0321120D01*
X0084995Y0321637D01*
X0083961Y0321637D01*
X0083444Y0321120D01*
X0083444Y0319051D01*
X0086667Y0318534D02*
X0086667Y0321637D01*
X0088735Y0318534D01*
X0088735Y0321637D01*
X0074273Y0303637D02*
X0073238Y0303637D01*
X0072721Y0303120D01*
X0071567Y0303120D02*
X0071567Y0302086D01*
X0071050Y0301569D01*
X0069498Y0301569D01*
X0069498Y0300534D02*
X0069498Y0303637D01*
X0071050Y0303637D01*
X0071567Y0303120D01*
X0070533Y0301569D02*
X0071567Y0300534D01*
X0072721Y0300534D02*
X0074790Y0302603D01*
X0074790Y0303120D01*
X0074273Y0303637D01*
X0074790Y0300534D02*
X0072721Y0300534D01*
X0073246Y0296138D02*
X0071711Y0296138D01*
X0070944Y0295371D01*
X0070944Y0292302D01*
X0071711Y0291534D01*
X0073246Y0291534D01*
X0074013Y0292302D01*
X0075548Y0292302D02*
X0076315Y0291534D01*
X0077850Y0291534D01*
X0078617Y0292302D01*
X0078617Y0295371D01*
X0077850Y0296138D01*
X0076315Y0296138D01*
X0075548Y0295371D01*
X0075548Y0294604D01*
X0076315Y0293836D01*
X0078617Y0293836D01*
X0074013Y0295371D02*
X0073246Y0296138D01*
X0080441Y0285791D02*
X0083544Y0285791D01*
X0083544Y0284757D02*
X0083544Y0286826D01*
X0081476Y0284757D02*
X0080441Y0285791D01*
X0083544Y0283603D02*
X0083544Y0281534D01*
X0080441Y0281534D01*
X0092940Y0283594D02*
X0093707Y0282827D01*
X0096777Y0282827D01*
X0097544Y0283594D01*
X0097544Y0285128D01*
X0096777Y0285896D01*
X0096777Y0287430D02*
X0097544Y0287430D01*
X0096777Y0287430D02*
X0093707Y0290500D01*
X0092940Y0290500D01*
X0092940Y0287430D01*
X0093707Y0285896D02*
X0092940Y0285128D01*
X0092940Y0283594D01*
X0098590Y0274552D02*
X0098590Y0270715D01*
X0099357Y0269948D01*
X0100892Y0269948D01*
X0101659Y0270715D01*
X0101659Y0274552D01*
X0103194Y0273017D02*
X0104728Y0274552D01*
X0104728Y0269948D01*
X0103194Y0269948D02*
X0106263Y0269948D01*
X0084790Y0264034D02*
X0082721Y0264034D01*
X0083755Y0264034D02*
X0083755Y0267137D01*
X0082721Y0266103D01*
X0081567Y0264034D02*
X0079498Y0264034D01*
X0080533Y0264034D02*
X0080533Y0267137D01*
X0079498Y0266103D01*
X0078344Y0266620D02*
X0078344Y0265586D01*
X0077827Y0265069D01*
X0076276Y0265069D01*
X0077310Y0265069D02*
X0078344Y0264034D01*
X0076276Y0264034D02*
X0076276Y0267137D01*
X0077827Y0267137D01*
X0078344Y0266620D01*
X0069044Y0266640D02*
X0069044Y0265089D01*
X0065941Y0265089D01*
X0065941Y0266640D01*
X0066458Y0267157D01*
X0066976Y0267157D01*
X0067493Y0266640D01*
X0067493Y0265089D01*
X0068010Y0263935D02*
X0068527Y0263935D01*
X0069044Y0263417D01*
X0069044Y0262383D01*
X0068527Y0261866D01*
X0068527Y0260712D02*
X0065941Y0260712D01*
X0066458Y0261866D02*
X0065941Y0262383D01*
X0065941Y0263417D01*
X0066458Y0263935D01*
X0067493Y0263417D02*
X0068010Y0263935D01*
X0067493Y0263417D02*
X0067493Y0262383D01*
X0066976Y0261866D01*
X0066458Y0261866D01*
X0068527Y0260712D02*
X0069044Y0260195D01*
X0069044Y0259160D01*
X0068527Y0258643D01*
X0065941Y0258643D01*
X0064044Y0251826D02*
X0064044Y0249757D01*
X0064044Y0250791D02*
X0060941Y0250791D01*
X0061976Y0249757D01*
X0061458Y0248603D02*
X0063527Y0246534D01*
X0064044Y0246534D01*
X0064044Y0248603D01*
X0061458Y0248603D02*
X0060941Y0248603D01*
X0060941Y0246534D01*
X0075498Y0246051D02*
X0076016Y0245534D01*
X0077050Y0245534D01*
X0077567Y0246051D01*
X0078721Y0246051D02*
X0079238Y0245534D01*
X0080273Y0245534D01*
X0080790Y0246051D01*
X0080790Y0247086D01*
X0080273Y0247603D01*
X0079755Y0247603D01*
X0078721Y0247086D01*
X0078721Y0248637D01*
X0080790Y0248637D01*
X0081567Y0251534D02*
X0080533Y0252569D01*
X0081050Y0252569D02*
X0079498Y0252569D01*
X0079498Y0251534D02*
X0079498Y0254637D01*
X0081050Y0254637D01*
X0081567Y0254120D01*
X0081567Y0253086D01*
X0081050Y0252569D01*
X0082721Y0253086D02*
X0084790Y0253086D01*
X0084273Y0254637D02*
X0082721Y0253086D01*
X0084273Y0251534D02*
X0084273Y0254637D01*
X0077567Y0248120D02*
X0077050Y0248637D01*
X0076016Y0248637D01*
X0075498Y0248120D01*
X0075498Y0246051D01*
X0069044Y0266640D02*
X0068527Y0267157D01*
X0068010Y0267157D01*
X0067493Y0266640D01*
X0066976Y0268312D02*
X0065941Y0269346D01*
X0069044Y0269346D01*
X0069044Y0268312D02*
X0069044Y0270380D01*
X0065544Y0277589D02*
X0065544Y0279657D01*
X0065544Y0280812D02*
X0063476Y0282880D01*
X0062958Y0282880D01*
X0062441Y0282363D01*
X0062441Y0281329D01*
X0062958Y0280812D01*
X0062958Y0279657D02*
X0065027Y0277589D01*
X0065544Y0277589D01*
X0062441Y0277589D02*
X0062441Y0279657D01*
X0062958Y0279657D01*
X0065544Y0280812D02*
X0065544Y0282880D01*
X0053544Y0289534D02*
X0050441Y0289534D01*
X0050441Y0291603D01*
X0051476Y0292757D02*
X0050441Y0293791D01*
X0053544Y0293791D01*
X0053544Y0292757D02*
X0053544Y0294826D01*
X0051993Y0290569D02*
X0051993Y0289534D01*
X0041544Y0289586D02*
X0041027Y0290103D01*
X0041544Y0289586D02*
X0041544Y0288551D01*
X0041027Y0288034D01*
X0038958Y0288034D01*
X0038441Y0288551D01*
X0038441Y0289586D01*
X0038958Y0290103D01*
X0039476Y0291257D02*
X0038441Y0292291D01*
X0041544Y0292291D01*
X0041544Y0291257D02*
X0041544Y0293326D01*
X0039993Y0294480D02*
X0039993Y0296548D01*
X0041544Y0296031D02*
X0038441Y0296031D01*
X0039993Y0294480D01*
X0106944Y0295371D02*
X0106944Y0292302D01*
X0107711Y0291534D01*
X0109246Y0291534D01*
X0110013Y0292302D01*
X0111548Y0292302D02*
X0112315Y0291534D01*
X0113850Y0291534D01*
X0114617Y0292302D01*
X0114617Y0293069D01*
X0113850Y0293836D01*
X0111548Y0293836D01*
X0111548Y0292302D01*
X0111548Y0293836D02*
X0113082Y0295371D01*
X0114617Y0296138D01*
X0110013Y0295371D02*
X0109246Y0296138D01*
X0107711Y0296138D01*
X0106944Y0295371D01*
X0128444Y0293371D02*
X0128444Y0290302D01*
X0129211Y0289534D01*
X0130746Y0289534D01*
X0131513Y0290302D01*
X0133048Y0289534D02*
X0136117Y0289534D01*
X0134582Y0289534D02*
X0134582Y0294138D01*
X0133048Y0292604D01*
X0131513Y0293371D02*
X0130746Y0294138D01*
X0129211Y0294138D01*
X0128444Y0293371D01*
X0137652Y0292604D02*
X0139186Y0294138D01*
X0139186Y0289534D01*
X0137652Y0289534D02*
X0140721Y0289534D01*
X0148441Y0287363D02*
X0148958Y0287880D01*
X0151027Y0285812D01*
X0151544Y0286329D01*
X0151544Y0287363D01*
X0151027Y0287880D01*
X0148958Y0287880D01*
X0148441Y0287363D02*
X0148441Y0286329D01*
X0148958Y0285812D01*
X0151027Y0285812D01*
X0151544Y0284657D02*
X0151544Y0282589D01*
X0151544Y0283623D02*
X0148441Y0283623D01*
X0149476Y0282589D01*
X0149993Y0281435D02*
X0150510Y0280917D01*
X0150510Y0279366D01*
X0151544Y0279366D02*
X0148441Y0279366D01*
X0148441Y0280917D01*
X0148958Y0281435D01*
X0149993Y0281435D01*
X0150510Y0280400D02*
X0151544Y0281435D01*
X0151236Y0276138D02*
X0153538Y0276138D01*
X0154305Y0275371D01*
X0154305Y0273836D01*
X0153538Y0273069D01*
X0151236Y0273069D01*
X0151236Y0271534D02*
X0151236Y0276138D01*
X0152771Y0273069D02*
X0154305Y0271534D01*
X0155840Y0272302D02*
X0155840Y0273069D01*
X0156607Y0273836D01*
X0158142Y0273836D01*
X0158909Y0273069D01*
X0158909Y0272302D01*
X0158142Y0271534D01*
X0156607Y0271534D01*
X0155840Y0272302D01*
X0156607Y0273836D02*
X0155840Y0274604D01*
X0155840Y0275371D01*
X0156607Y0276138D01*
X0158142Y0276138D01*
X0158909Y0275371D01*
X0158909Y0274604D01*
X0158142Y0273836D01*
X0158919Y0262638D02*
X0160454Y0262638D01*
X0161221Y0261871D01*
X0158152Y0258802D01*
X0158919Y0258034D01*
X0160454Y0258034D01*
X0161221Y0258802D01*
X0161221Y0261871D01*
X0158919Y0262638D02*
X0158152Y0261871D01*
X0158152Y0258802D01*
X0156617Y0258034D02*
X0153548Y0258034D01*
X0155082Y0258034D02*
X0155082Y0262638D01*
X0153548Y0261104D01*
X0152013Y0261871D02*
X0151246Y0262638D01*
X0149711Y0262638D01*
X0148944Y0261871D01*
X0148944Y0258802D01*
X0149711Y0258034D01*
X0151246Y0258034D01*
X0152013Y0258802D01*
X0164941Y0254863D02*
X0164941Y0253829D01*
X0165458Y0253312D01*
X0164941Y0252157D02*
X0164941Y0250089D01*
X0166493Y0250089D01*
X0165976Y0251123D01*
X0165976Y0251640D01*
X0166493Y0252157D01*
X0167527Y0252157D01*
X0168044Y0251640D01*
X0168044Y0250606D01*
X0167527Y0250089D01*
X0168044Y0248935D02*
X0167010Y0247900D01*
X0167010Y0248417D02*
X0167010Y0246866D01*
X0168044Y0246866D02*
X0164941Y0246866D01*
X0164941Y0248417D01*
X0165458Y0248935D01*
X0166493Y0248935D01*
X0167010Y0248417D01*
X0168044Y0253312D02*
X0165976Y0255380D01*
X0165458Y0255380D01*
X0164941Y0254863D01*
X0168044Y0255380D02*
X0168044Y0253312D01*
X0172941Y0269812D02*
X0176044Y0269812D01*
X0176044Y0271880D01*
X0195944Y0266620D02*
X0195944Y0264551D01*
X0196461Y0264034D01*
X0197495Y0264034D01*
X0198012Y0264551D01*
X0199167Y0264551D02*
X0199684Y0264034D01*
X0200718Y0264034D01*
X0201235Y0264551D01*
X0201235Y0265069D01*
X0200718Y0265586D01*
X0200201Y0265586D01*
X0200718Y0265586D02*
X0201235Y0266103D01*
X0201235Y0266620D01*
X0200718Y0267137D01*
X0199684Y0267137D01*
X0199167Y0266620D01*
X0198012Y0266620D02*
X0197495Y0267137D01*
X0196461Y0267137D01*
X0195944Y0266620D01*
X0202389Y0265586D02*
X0204458Y0265586D01*
X0203941Y0267137D02*
X0202389Y0265586D01*
X0203941Y0264034D02*
X0203941Y0267137D01*
X0156544Y0303106D02*
X0156027Y0302589D01*
X0153958Y0302589D01*
X0153441Y0303106D01*
X0153441Y0304140D01*
X0153958Y0304657D01*
X0154993Y0305812D02*
X0154993Y0307880D01*
X0156544Y0307363D02*
X0153441Y0307363D01*
X0154993Y0305812D01*
X0156027Y0304657D02*
X0156544Y0304140D01*
X0156544Y0303106D01*
X0135718Y0311534D02*
X0135718Y0314637D01*
X0134167Y0313086D01*
X0136235Y0313086D01*
X0133012Y0312051D02*
X0133012Y0314637D01*
X0130944Y0314637D02*
X0130944Y0312051D01*
X0131461Y0311534D01*
X0132495Y0311534D01*
X0133012Y0312051D01*
X0150458Y0235380D02*
X0150976Y0235380D01*
X0151493Y0234863D01*
X0152010Y0235380D01*
X0152527Y0235380D01*
X0153044Y0234863D01*
X0153044Y0233829D01*
X0152527Y0233312D01*
X0152527Y0232157D02*
X0153044Y0231640D01*
X0153044Y0230606D01*
X0152527Y0230089D01*
X0151493Y0230089D02*
X0150976Y0231123D01*
X0150976Y0231640D01*
X0151493Y0232157D01*
X0152527Y0232157D01*
X0151493Y0230089D02*
X0149941Y0230089D01*
X0149941Y0232157D01*
X0150458Y0233312D02*
X0149941Y0233829D01*
X0149941Y0234863D01*
X0150458Y0235380D01*
X0151493Y0234863D02*
X0151493Y0234346D01*
X0151493Y0228935D02*
X0152010Y0228417D01*
X0152010Y0226866D01*
X0153044Y0226866D02*
X0149941Y0226866D01*
X0149941Y0228417D01*
X0150458Y0228935D01*
X0151493Y0228935D01*
X0152010Y0227900D02*
X0153044Y0228935D01*
X0134409Y0215371D02*
X0134409Y0214604D01*
X0133642Y0213836D01*
X0134409Y0213069D01*
X0134409Y0212302D01*
X0133642Y0211534D01*
X0132107Y0211534D01*
X0131340Y0212302D01*
X0129805Y0211534D02*
X0126736Y0211534D01*
X0128271Y0211534D02*
X0128271Y0216138D01*
X0126736Y0214604D01*
X0125201Y0215371D02*
X0124434Y0216138D01*
X0122899Y0216138D01*
X0122132Y0215371D01*
X0122132Y0212302D01*
X0122899Y0211534D01*
X0124434Y0211534D01*
X0125201Y0212302D01*
X0131340Y0215371D02*
X0132107Y0216138D01*
X0133642Y0216138D01*
X0134409Y0215371D01*
X0133642Y0213836D02*
X0132875Y0213836D01*
X0116221Y0214604D02*
X0116221Y0215371D01*
X0115454Y0216138D01*
X0113919Y0216138D01*
X0113152Y0215371D01*
X0116221Y0214604D02*
X0113152Y0211534D01*
X0116221Y0211534D01*
X0111617Y0211534D02*
X0108548Y0211534D01*
X0110082Y0211534D02*
X0110082Y0216138D01*
X0108548Y0214604D01*
X0107013Y0215371D02*
X0106246Y0216138D01*
X0104711Y0216138D01*
X0103944Y0215371D01*
X0103944Y0212302D01*
X0104711Y0211534D01*
X0106246Y0211534D01*
X0107013Y0212302D01*
X0109944Y0192137D02*
X0109944Y0191620D01*
X0110978Y0190586D01*
X0110978Y0189034D01*
X0110978Y0190586D02*
X0112012Y0191620D01*
X0112012Y0192137D01*
X0113167Y0191103D02*
X0114201Y0192137D01*
X0114201Y0189034D01*
X0113167Y0189034D02*
X0115235Y0189034D01*
X0086235Y0181534D02*
X0084167Y0181534D01*
X0085201Y0181534D02*
X0085201Y0184637D01*
X0084167Y0183603D01*
X0083012Y0184120D02*
X0083012Y0183086D01*
X0082495Y0182569D01*
X0080944Y0182569D01*
X0081978Y0182569D02*
X0083012Y0181534D01*
X0080944Y0181534D02*
X0080944Y0184637D01*
X0082495Y0184637D01*
X0083012Y0184120D01*
X0076409Y0187034D02*
X0073340Y0187034D01*
X0076409Y0190104D01*
X0076409Y0190871D01*
X0075642Y0191638D01*
X0074107Y0191638D01*
X0073340Y0190871D01*
X0071805Y0190871D02*
X0071038Y0191638D01*
X0068736Y0191638D01*
X0068736Y0187034D01*
X0071038Y0187034D01*
X0071805Y0187802D01*
X0071805Y0190871D01*
X0064044Y0212589D02*
X0060941Y0212589D01*
X0062493Y0213106D02*
X0064044Y0214657D01*
X0064044Y0215812D02*
X0064044Y0217880D01*
X0064044Y0216846D02*
X0060941Y0216846D01*
X0061976Y0215812D01*
X0060941Y0214657D02*
X0063010Y0212589D01*
X0188441Y0147880D02*
X0188441Y0145812D01*
X0189993Y0145812D01*
X0189476Y0146846D01*
X0189476Y0147363D01*
X0189993Y0147880D01*
X0191027Y0147880D01*
X0191544Y0147363D01*
X0191544Y0146329D01*
X0191027Y0145812D01*
X0191544Y0144657D02*
X0191544Y0142589D01*
X0191544Y0143623D02*
X0188441Y0143623D01*
X0189476Y0142589D01*
X0188958Y0141435D02*
X0188441Y0140917D01*
X0188441Y0139883D01*
X0188958Y0139366D01*
X0191027Y0139366D01*
X0191544Y0139883D01*
X0191544Y0140917D01*
X0191027Y0141435D01*
X0193441Y0151534D02*
X0193441Y0153086D01*
X0193958Y0153603D01*
X0194993Y0153603D01*
X0195510Y0153086D01*
X0195510Y0151534D01*
X0196544Y0151534D02*
X0193441Y0151534D01*
X0195510Y0152569D02*
X0196544Y0153603D01*
X0196544Y0154757D02*
X0196544Y0156826D01*
X0196544Y0155791D02*
X0193441Y0155791D01*
X0194476Y0154757D01*
X0194993Y0157980D02*
X0194993Y0160048D01*
X0196544Y0159531D02*
X0193441Y0159531D01*
X0194993Y0157980D01*
X0203441Y0160048D02*
X0203958Y0159014D01*
X0204993Y0157980D01*
X0204993Y0159531D01*
X0205510Y0160048D01*
X0206027Y0160048D01*
X0206544Y0159531D01*
X0206544Y0158497D01*
X0206027Y0157980D01*
X0204993Y0157980D01*
X0206544Y0156826D02*
X0206544Y0154757D01*
X0206544Y0155791D02*
X0203441Y0155791D01*
X0204476Y0154757D01*
X0204993Y0153603D02*
X0205510Y0153086D01*
X0205510Y0151534D01*
X0206544Y0151534D02*
X0203441Y0151534D01*
X0203441Y0153086D01*
X0203958Y0153603D01*
X0204993Y0153603D01*
X0205510Y0152569D02*
X0206544Y0153603D01*
X0211846Y0147421D02*
X0212613Y0145886D01*
X0214147Y0144352D01*
X0214147Y0146654D01*
X0214915Y0147421D01*
X0215682Y0147421D01*
X0216449Y0146654D01*
X0216449Y0145119D01*
X0215682Y0144352D01*
X0214147Y0144352D01*
X0212613Y0142817D02*
X0211846Y0142050D01*
X0211846Y0140515D01*
X0212613Y0139748D01*
X0215682Y0139748D01*
X0216449Y0140515D01*
X0216449Y0142050D01*
X0215682Y0142817D01*
X0216449Y0138213D02*
X0216449Y0136678D01*
X0216449Y0137446D02*
X0211846Y0137446D01*
X0211846Y0138213D02*
X0211846Y0136678D01*
X0203958Y0120048D02*
X0203441Y0120048D01*
X0203441Y0117980D01*
X0203958Y0120048D02*
X0206027Y0117980D01*
X0206544Y0117980D01*
X0206544Y0116826D02*
X0206544Y0114757D01*
X0206544Y0115791D02*
X0203441Y0115791D01*
X0204476Y0114757D01*
X0204993Y0113603D02*
X0205510Y0113086D01*
X0205510Y0111534D01*
X0206544Y0111534D02*
X0203441Y0111534D01*
X0203441Y0113086D01*
X0203958Y0113603D01*
X0204993Y0113603D01*
X0205510Y0112569D02*
X0206544Y0113603D01*
X0212613Y0107421D02*
X0211846Y0106654D01*
X0211846Y0105119D01*
X0212613Y0104352D01*
X0213380Y0104352D01*
X0214147Y0105119D01*
X0214147Y0107421D01*
X0212613Y0107421D02*
X0215682Y0107421D01*
X0216449Y0106654D01*
X0216449Y0105119D01*
X0215682Y0104352D01*
X0215682Y0102817D02*
X0216449Y0102050D01*
X0216449Y0100515D01*
X0215682Y0099748D01*
X0212613Y0099748D01*
X0211846Y0100515D01*
X0211846Y0102050D01*
X0212613Y0102817D01*
X0211846Y0098213D02*
X0211846Y0096678D01*
X0211846Y0097446D02*
X0216449Y0097446D01*
X0216449Y0098213D02*
X0216449Y0096678D01*
X0196544Y0111534D02*
X0193441Y0111534D01*
X0193441Y0113086D01*
X0193958Y0113603D01*
X0194993Y0113603D01*
X0195510Y0113086D01*
X0195510Y0111534D01*
X0195510Y0112569D02*
X0196544Y0113603D01*
X0196544Y0114757D02*
X0196544Y0116826D01*
X0196544Y0115791D02*
X0193441Y0115791D01*
X0194476Y0114757D01*
X0194993Y0117980D02*
X0193441Y0117980D01*
X0193441Y0120048D01*
X0194476Y0119531D02*
X0194476Y0119014D01*
X0194993Y0117980D01*
X0196027Y0117980D02*
X0196544Y0118497D01*
X0196544Y0119531D01*
X0196027Y0120048D01*
X0194993Y0120048D01*
X0194476Y0119531D01*
X0191027Y0107880D02*
X0191544Y0107363D01*
X0191544Y0106329D01*
X0191027Y0105812D01*
X0191027Y0104657D02*
X0191544Y0104140D01*
X0191544Y0103106D01*
X0191027Y0102589D01*
X0188958Y0102589D01*
X0188441Y0103106D01*
X0188441Y0104140D01*
X0188958Y0104657D01*
X0188958Y0105812D02*
X0188441Y0106329D01*
X0188441Y0107363D01*
X0188958Y0107880D01*
X0189476Y0107880D01*
X0189993Y0107363D01*
X0190510Y0107880D01*
X0191027Y0107880D01*
X0189993Y0107363D02*
X0189993Y0106846D01*
X0194993Y0080048D02*
X0194993Y0077980D01*
X0193441Y0079531D01*
X0196544Y0079531D01*
X0196027Y0076826D02*
X0196544Y0076308D01*
X0196544Y0075274D01*
X0196027Y0074757D01*
X0196544Y0073603D02*
X0195510Y0072569D01*
X0195510Y0073086D02*
X0195510Y0071534D01*
X0196544Y0071534D02*
X0193441Y0071534D01*
X0193441Y0073086D01*
X0193958Y0073603D01*
X0194993Y0073603D01*
X0195510Y0073086D01*
X0193958Y0074757D02*
X0193441Y0075274D01*
X0193441Y0076308D01*
X0193958Y0076826D01*
X0194476Y0076826D01*
X0194993Y0076308D01*
X0195510Y0076826D01*
X0196027Y0076826D01*
X0194993Y0076308D02*
X0194993Y0075791D01*
X0203441Y0075791D02*
X0206544Y0075791D01*
X0206544Y0074757D02*
X0206544Y0076826D01*
X0206544Y0077980D02*
X0204476Y0080048D01*
X0203958Y0080048D01*
X0203441Y0079531D01*
X0203441Y0078497D01*
X0203958Y0077980D01*
X0203441Y0075791D02*
X0204476Y0074757D01*
X0204993Y0073603D02*
X0205510Y0073086D01*
X0205510Y0071534D01*
X0206544Y0071534D02*
X0203441Y0071534D01*
X0203441Y0073086D01*
X0203958Y0073603D01*
X0204993Y0073603D01*
X0205510Y0072569D02*
X0206544Y0073603D01*
X0206544Y0077980D02*
X0206544Y0080048D01*
X0211846Y0067421D02*
X0212613Y0067421D01*
X0215682Y0064352D01*
X0216449Y0064352D01*
X0215682Y0062817D02*
X0216449Y0062050D01*
X0216449Y0060515D01*
X0215682Y0059748D01*
X0212613Y0059748D01*
X0211846Y0060515D01*
X0211846Y0062050D01*
X0212613Y0062817D01*
X0211846Y0064352D02*
X0211846Y0067421D01*
X0211846Y0058213D02*
X0211846Y0056678D01*
X0211846Y0057446D02*
X0216449Y0057446D01*
X0216449Y0058213D02*
X0216449Y0056678D01*
X0206027Y0040048D02*
X0206544Y0039531D01*
X0206544Y0038497D01*
X0206027Y0037980D01*
X0206544Y0036826D02*
X0206544Y0034757D01*
X0206544Y0035791D02*
X0203441Y0035791D01*
X0204476Y0034757D01*
X0204993Y0033603D02*
X0205510Y0033086D01*
X0205510Y0031534D01*
X0206544Y0031534D02*
X0203441Y0031534D01*
X0203441Y0033086D01*
X0203958Y0033603D01*
X0204993Y0033603D01*
X0205510Y0032569D02*
X0206544Y0033603D01*
X0203958Y0037980D02*
X0203441Y0038497D01*
X0203441Y0039531D01*
X0203958Y0040048D01*
X0204476Y0040048D01*
X0204993Y0039531D01*
X0205510Y0040048D01*
X0206027Y0040048D01*
X0204993Y0039531D02*
X0204993Y0039014D01*
X0196544Y0038497D02*
X0196027Y0037980D01*
X0196544Y0038497D02*
X0196544Y0039531D01*
X0196027Y0040048D01*
X0194993Y0040048D01*
X0194476Y0039531D01*
X0194476Y0039014D01*
X0194993Y0037980D01*
X0193441Y0037980D01*
X0193441Y0040048D01*
X0193958Y0036826D02*
X0194476Y0036826D01*
X0194993Y0036308D01*
X0195510Y0036826D01*
X0196027Y0036826D01*
X0196544Y0036308D01*
X0196544Y0035274D01*
X0196027Y0034757D01*
X0196544Y0033603D02*
X0195510Y0032569D01*
X0195510Y0033086D02*
X0195510Y0031534D01*
X0196544Y0031534D02*
X0193441Y0031534D01*
X0193441Y0033086D01*
X0193958Y0033603D01*
X0194993Y0033603D01*
X0195510Y0033086D01*
X0193958Y0034757D02*
X0193441Y0035274D01*
X0193441Y0036308D01*
X0193958Y0036826D01*
X0194993Y0036308D02*
X0194993Y0035791D01*
X0191544Y0027880D02*
X0191544Y0025812D01*
X0191544Y0026846D02*
X0188441Y0026846D01*
X0189476Y0025812D01*
X0188958Y0024657D02*
X0188441Y0024140D01*
X0188441Y0023106D01*
X0188958Y0022589D01*
X0191027Y0022589D01*
X0191544Y0023106D01*
X0191544Y0024140D01*
X0191027Y0024657D01*
X0211846Y0025119D02*
X0211846Y0026654D01*
X0212613Y0027421D01*
X0213380Y0027421D01*
X0214147Y0026654D01*
X0214147Y0025119D01*
X0213380Y0024352D01*
X0212613Y0024352D01*
X0211846Y0025119D01*
X0214147Y0025119D02*
X0214915Y0024352D01*
X0215682Y0024352D01*
X0216449Y0025119D01*
X0216449Y0026654D01*
X0215682Y0027421D01*
X0214915Y0027421D01*
X0214147Y0026654D01*
X0212613Y0022817D02*
X0211846Y0022050D01*
X0211846Y0020515D01*
X0212613Y0019748D01*
X0215682Y0019748D01*
X0216449Y0020515D01*
X0216449Y0022050D01*
X0215682Y0022817D01*
X0216449Y0018213D02*
X0216449Y0016678D01*
X0216449Y0017446D02*
X0211846Y0017446D01*
X0211846Y0018213D02*
X0211846Y0016678D01*
X0238441Y0019883D02*
X0238958Y0019366D01*
X0241027Y0019366D01*
X0241544Y0019883D01*
X0241544Y0020917D01*
X0241027Y0021435D01*
X0241544Y0022589D02*
X0241544Y0024657D01*
X0241544Y0023623D02*
X0238441Y0023623D01*
X0239476Y0022589D01*
X0238958Y0021435D02*
X0238441Y0020917D01*
X0238441Y0019883D01*
X0239993Y0025812D02*
X0239993Y0027363D01*
X0240510Y0027880D01*
X0241027Y0027880D01*
X0241544Y0027363D01*
X0241544Y0026329D01*
X0241027Y0025812D01*
X0239993Y0025812D01*
X0238958Y0026846D01*
X0238441Y0027880D01*
X0243441Y0031534D02*
X0243441Y0033086D01*
X0243958Y0033603D01*
X0244993Y0033603D01*
X0245510Y0033086D01*
X0245510Y0031534D01*
X0246544Y0031534D02*
X0243441Y0031534D01*
X0245510Y0032569D02*
X0246544Y0033603D01*
X0246544Y0034757D02*
X0244476Y0036826D01*
X0243958Y0036826D01*
X0243441Y0036308D01*
X0243441Y0035274D01*
X0243958Y0034757D01*
X0246544Y0034757D02*
X0246544Y0036826D01*
X0246544Y0037980D02*
X0246544Y0040048D01*
X0246544Y0039014D02*
X0243441Y0039014D01*
X0244476Y0037980D01*
X0253441Y0038497D02*
X0253958Y0037980D01*
X0254476Y0037980D01*
X0254993Y0038497D01*
X0254993Y0040048D01*
X0256027Y0040048D02*
X0253958Y0040048D01*
X0253441Y0039531D01*
X0253441Y0038497D01*
X0256027Y0037980D02*
X0256544Y0038497D01*
X0256544Y0039531D01*
X0256027Y0040048D01*
X0256544Y0036826D02*
X0256544Y0034757D01*
X0256544Y0035791D02*
X0253441Y0035791D01*
X0254476Y0034757D01*
X0254993Y0033603D02*
X0255510Y0033086D01*
X0255510Y0031534D01*
X0256544Y0031534D02*
X0253441Y0031534D01*
X0253441Y0033086D01*
X0253958Y0033603D01*
X0254993Y0033603D01*
X0255510Y0032569D02*
X0256544Y0033603D01*
X0261846Y0026654D02*
X0264147Y0024352D01*
X0264147Y0027421D01*
X0261846Y0026654D02*
X0266449Y0026654D01*
X0265682Y0022817D02*
X0266449Y0022050D01*
X0266449Y0020515D01*
X0265682Y0019748D01*
X0262613Y0019748D01*
X0261846Y0020515D01*
X0261846Y0022050D01*
X0262613Y0022817D01*
X0261846Y0018213D02*
X0261846Y0016678D01*
X0261846Y0017446D02*
X0266449Y0017446D01*
X0266449Y0018213D02*
X0266449Y0016678D01*
X0288441Y0019883D02*
X0288958Y0019366D01*
X0291027Y0019366D01*
X0291544Y0019883D01*
X0291544Y0020917D01*
X0291027Y0021435D01*
X0291544Y0022589D02*
X0289476Y0024657D01*
X0288958Y0024657D01*
X0288441Y0024140D01*
X0288441Y0023106D01*
X0288958Y0022589D01*
X0288958Y0021435D02*
X0288441Y0020917D01*
X0288441Y0019883D01*
X0291544Y0022589D02*
X0291544Y0024657D01*
X0291027Y0025812D02*
X0288958Y0027880D01*
X0291027Y0027880D01*
X0291544Y0027363D01*
X0291544Y0026329D01*
X0291027Y0025812D01*
X0288958Y0025812D01*
X0288441Y0026329D01*
X0288441Y0027363D01*
X0288958Y0027880D01*
X0293441Y0031534D02*
X0293441Y0033086D01*
X0293958Y0033603D01*
X0294993Y0033603D01*
X0295510Y0033086D01*
X0295510Y0031534D01*
X0296544Y0031534D02*
X0293441Y0031534D01*
X0295510Y0032569D02*
X0296544Y0033603D01*
X0296544Y0034757D02*
X0294476Y0036826D01*
X0293958Y0036826D01*
X0293441Y0036308D01*
X0293441Y0035274D01*
X0293958Y0034757D01*
X0296544Y0034757D02*
X0296544Y0036826D01*
X0296027Y0037980D02*
X0296544Y0038497D01*
X0296544Y0039531D01*
X0296027Y0040048D01*
X0295510Y0040048D01*
X0294993Y0039531D01*
X0294993Y0039014D01*
X0294993Y0039531D02*
X0294476Y0040048D01*
X0293958Y0040048D01*
X0293441Y0039531D01*
X0293441Y0038497D01*
X0293958Y0037980D01*
X0303441Y0037980D02*
X0304993Y0037980D01*
X0304476Y0039014D01*
X0304476Y0039531D01*
X0304993Y0040048D01*
X0306027Y0040048D01*
X0306544Y0039531D01*
X0306544Y0038497D01*
X0306027Y0037980D01*
X0306544Y0036826D02*
X0306544Y0034757D01*
X0304476Y0036826D01*
X0303958Y0036826D01*
X0303441Y0036308D01*
X0303441Y0035274D01*
X0303958Y0034757D01*
X0303958Y0033603D02*
X0304993Y0033603D01*
X0305510Y0033086D01*
X0305510Y0031534D01*
X0306544Y0031534D02*
X0303441Y0031534D01*
X0303441Y0033086D01*
X0303958Y0033603D01*
X0305510Y0032569D02*
X0306544Y0033603D01*
X0303441Y0037980D02*
X0303441Y0040048D01*
X0311846Y0052075D02*
X0311846Y0053609D01*
X0311846Y0052842D02*
X0316449Y0052842D01*
X0316449Y0052075D02*
X0316449Y0053609D01*
X0315682Y0055144D02*
X0316449Y0055911D01*
X0316449Y0057446D01*
X0315682Y0058213D01*
X0316449Y0059748D02*
X0316449Y0062817D01*
X0316449Y0061282D02*
X0311846Y0061282D01*
X0313380Y0059748D01*
X0312613Y0058213D02*
X0311846Y0057446D01*
X0311846Y0055911D01*
X0312613Y0055144D01*
X0315682Y0055144D01*
X0316449Y0064352D02*
X0316449Y0067421D01*
X0316449Y0065886D02*
X0311846Y0065886D01*
X0313380Y0064352D01*
X0306544Y0071534D02*
X0303441Y0071534D01*
X0303441Y0073086D01*
X0303958Y0073603D01*
X0304993Y0073603D01*
X0305510Y0073086D01*
X0305510Y0071534D01*
X0305510Y0072569D02*
X0306544Y0073603D01*
X0306544Y0074757D02*
X0304476Y0076826D01*
X0303958Y0076826D01*
X0303441Y0076308D01*
X0303441Y0075274D01*
X0303958Y0074757D01*
X0306544Y0074757D02*
X0306544Y0076826D01*
X0304993Y0077980D02*
X0304993Y0080048D01*
X0306544Y0079531D02*
X0303441Y0079531D01*
X0304993Y0077980D01*
X0296544Y0077980D02*
X0294476Y0080048D01*
X0293958Y0080048D01*
X0293441Y0079531D01*
X0293441Y0078497D01*
X0293958Y0077980D01*
X0293958Y0076826D02*
X0293441Y0076308D01*
X0293441Y0075274D01*
X0293958Y0074757D01*
X0293958Y0073603D02*
X0294993Y0073603D01*
X0295510Y0073086D01*
X0295510Y0071534D01*
X0296544Y0071534D02*
X0293441Y0071534D01*
X0293441Y0073086D01*
X0293958Y0073603D01*
X0295510Y0072569D02*
X0296544Y0073603D01*
X0296544Y0074757D02*
X0294476Y0076826D01*
X0293958Y0076826D01*
X0296544Y0076826D02*
X0296544Y0074757D01*
X0296544Y0077980D02*
X0296544Y0080048D01*
X0311846Y0092075D02*
X0311846Y0093609D01*
X0311846Y0092842D02*
X0316449Y0092842D01*
X0316449Y0092075D02*
X0316449Y0093609D01*
X0315682Y0095144D02*
X0316449Y0095911D01*
X0316449Y0097446D01*
X0315682Y0098213D01*
X0316449Y0099748D02*
X0316449Y0102817D01*
X0316449Y0101282D02*
X0311846Y0101282D01*
X0313380Y0099748D01*
X0312613Y0098213D02*
X0311846Y0097446D01*
X0311846Y0095911D01*
X0312613Y0095144D01*
X0315682Y0095144D01*
X0315682Y0104352D02*
X0316449Y0105119D01*
X0316449Y0106654D01*
X0315682Y0107421D01*
X0314915Y0107421D01*
X0314147Y0106654D01*
X0314147Y0105886D01*
X0314147Y0106654D02*
X0313380Y0107421D01*
X0312613Y0107421D01*
X0311846Y0106654D01*
X0311846Y0105119D01*
X0312613Y0104352D01*
X0306544Y0111534D02*
X0303441Y0111534D01*
X0303441Y0113086D01*
X0303958Y0113603D01*
X0304993Y0113603D01*
X0305510Y0113086D01*
X0305510Y0111534D01*
X0305510Y0112569D02*
X0306544Y0113603D01*
X0306544Y0114757D02*
X0304476Y0116826D01*
X0303958Y0116826D01*
X0303441Y0116308D01*
X0303441Y0115274D01*
X0303958Y0114757D01*
X0306544Y0114757D02*
X0306544Y0116826D01*
X0306544Y0117980D02*
X0306027Y0117980D01*
X0303958Y0120048D01*
X0303441Y0120048D01*
X0303441Y0117980D01*
X0296544Y0118497D02*
X0296544Y0119531D01*
X0296027Y0120048D01*
X0293958Y0120048D01*
X0293441Y0119531D01*
X0293441Y0118497D01*
X0293958Y0117980D01*
X0294476Y0117980D01*
X0294993Y0118497D01*
X0294993Y0120048D01*
X0296544Y0118497D02*
X0296027Y0117980D01*
X0296544Y0116826D02*
X0296544Y0114757D01*
X0294476Y0116826D01*
X0293958Y0116826D01*
X0293441Y0116308D01*
X0293441Y0115274D01*
X0293958Y0114757D01*
X0293958Y0113603D02*
X0294993Y0113603D01*
X0295510Y0113086D01*
X0295510Y0111534D01*
X0296544Y0111534D02*
X0293441Y0111534D01*
X0293441Y0113086D01*
X0293958Y0113603D01*
X0295510Y0112569D02*
X0296544Y0113603D01*
X0291544Y0107880D02*
X0291544Y0105812D01*
X0289476Y0107880D01*
X0288958Y0107880D01*
X0288441Y0107363D01*
X0288441Y0106329D01*
X0288958Y0105812D01*
X0288958Y0104657D02*
X0288441Y0104140D01*
X0288441Y0103106D01*
X0288958Y0102589D01*
X0288958Y0101435D02*
X0288441Y0100917D01*
X0288441Y0099883D01*
X0288958Y0099366D01*
X0291027Y0099366D01*
X0291544Y0099883D01*
X0291544Y0100917D01*
X0291027Y0101435D01*
X0291544Y0102589D02*
X0289476Y0104657D01*
X0288958Y0104657D01*
X0291544Y0104657D02*
X0291544Y0102589D01*
X0266449Y0102050D02*
X0265682Y0102817D01*
X0266449Y0102050D02*
X0266449Y0100515D01*
X0265682Y0099748D01*
X0262613Y0099748D01*
X0261846Y0100515D01*
X0261846Y0102050D01*
X0262613Y0102817D01*
X0261846Y0104352D02*
X0264147Y0104352D01*
X0263380Y0105886D01*
X0263380Y0106654D01*
X0264147Y0107421D01*
X0265682Y0107421D01*
X0266449Y0106654D01*
X0266449Y0105119D01*
X0265682Y0104352D01*
X0261846Y0104352D02*
X0261846Y0107421D01*
X0256544Y0111534D02*
X0253441Y0111534D01*
X0253441Y0113086D01*
X0253958Y0113603D01*
X0254993Y0113603D01*
X0255510Y0113086D01*
X0255510Y0111534D01*
X0255510Y0112569D02*
X0256544Y0113603D01*
X0254993Y0114757D02*
X0254993Y0116826D01*
X0254993Y0117980D02*
X0254476Y0119014D01*
X0254476Y0119531D01*
X0254993Y0120048D01*
X0256027Y0120048D01*
X0256544Y0119531D01*
X0256544Y0118497D01*
X0256027Y0117980D01*
X0254993Y0117980D02*
X0253441Y0117980D01*
X0253441Y0120048D01*
X0253441Y0116308D02*
X0254993Y0114757D01*
X0256544Y0116308D02*
X0253441Y0116308D01*
X0246544Y0116308D02*
X0243441Y0116308D01*
X0244993Y0114757D01*
X0244993Y0116826D01*
X0246027Y0117980D02*
X0246544Y0117980D01*
X0246027Y0117980D02*
X0243958Y0120048D01*
X0243441Y0120048D01*
X0243441Y0117980D01*
X0243958Y0113603D02*
X0244993Y0113603D01*
X0245510Y0113086D01*
X0245510Y0111534D01*
X0246544Y0111534D02*
X0243441Y0111534D01*
X0243441Y0113086D01*
X0243958Y0113603D01*
X0245510Y0112569D02*
X0246544Y0113603D01*
X0241027Y0107880D02*
X0241544Y0107363D01*
X0241544Y0106329D01*
X0241027Y0105812D01*
X0240510Y0105812D01*
X0239993Y0106329D01*
X0239993Y0107363D01*
X0240510Y0107880D01*
X0241027Y0107880D01*
X0239993Y0107363D02*
X0239476Y0107880D01*
X0238958Y0107880D01*
X0238441Y0107363D01*
X0238441Y0106329D01*
X0238958Y0105812D01*
X0239476Y0105812D01*
X0239993Y0106329D01*
X0241544Y0104657D02*
X0241544Y0102589D01*
X0241544Y0103623D02*
X0238441Y0103623D01*
X0239476Y0102589D01*
X0238958Y0101435D02*
X0238441Y0100917D01*
X0238441Y0099883D01*
X0238958Y0099366D01*
X0241027Y0099366D01*
X0241544Y0099883D01*
X0241544Y0100917D01*
X0241027Y0101435D01*
X0261846Y0098213D02*
X0261846Y0096678D01*
X0261846Y0097446D02*
X0266449Y0097446D01*
X0266449Y0098213D02*
X0266449Y0096678D01*
X0256027Y0080048D02*
X0255510Y0080048D01*
X0254993Y0079531D01*
X0254993Y0078497D01*
X0254476Y0077980D01*
X0253958Y0077980D01*
X0253441Y0078497D01*
X0253441Y0079531D01*
X0253958Y0080048D01*
X0254476Y0080048D01*
X0254993Y0079531D01*
X0254993Y0078497D02*
X0255510Y0077980D01*
X0256027Y0077980D01*
X0256544Y0078497D01*
X0256544Y0079531D01*
X0256027Y0080048D01*
X0256544Y0076826D02*
X0256544Y0074757D01*
X0256544Y0075791D02*
X0253441Y0075791D01*
X0254476Y0074757D01*
X0254993Y0073603D02*
X0255510Y0073086D01*
X0255510Y0071534D01*
X0256544Y0071534D02*
X0253441Y0071534D01*
X0253441Y0073086D01*
X0253958Y0073603D01*
X0254993Y0073603D01*
X0255510Y0072569D02*
X0256544Y0073603D01*
X0262613Y0067421D02*
X0263380Y0067421D01*
X0264147Y0066654D01*
X0264915Y0067421D01*
X0265682Y0067421D01*
X0266449Y0066654D01*
X0266449Y0065119D01*
X0265682Y0064352D01*
X0265682Y0062817D02*
X0266449Y0062050D01*
X0266449Y0060515D01*
X0265682Y0059748D01*
X0262613Y0059748D01*
X0261846Y0060515D01*
X0261846Y0062050D01*
X0262613Y0062817D01*
X0262613Y0064352D02*
X0261846Y0065119D01*
X0261846Y0066654D01*
X0262613Y0067421D01*
X0264147Y0066654D02*
X0264147Y0065886D01*
X0261846Y0058213D02*
X0261846Y0056678D01*
X0261846Y0057446D02*
X0266449Y0057446D01*
X0266449Y0058213D02*
X0266449Y0056678D01*
X0288441Y0059883D02*
X0288958Y0059366D01*
X0291027Y0059366D01*
X0291544Y0059883D01*
X0291544Y0060917D01*
X0291027Y0061435D01*
X0291544Y0062589D02*
X0289476Y0064657D01*
X0288958Y0064657D01*
X0288441Y0064140D01*
X0288441Y0063106D01*
X0288958Y0062589D01*
X0288958Y0061435D02*
X0288441Y0060917D01*
X0288441Y0059883D01*
X0291544Y0062589D02*
X0291544Y0064657D01*
X0291544Y0065812D02*
X0291544Y0067880D01*
X0291544Y0066846D02*
X0288441Y0066846D01*
X0289476Y0065812D01*
X0246544Y0071534D02*
X0243441Y0071534D01*
X0243441Y0073086D01*
X0243958Y0073603D01*
X0244993Y0073603D01*
X0245510Y0073086D01*
X0245510Y0071534D01*
X0245510Y0072569D02*
X0246544Y0073603D01*
X0246544Y0074757D02*
X0244476Y0076826D01*
X0243958Y0076826D01*
X0243441Y0076308D01*
X0243441Y0075274D01*
X0243958Y0074757D01*
X0246544Y0074757D02*
X0246544Y0076826D01*
X0246027Y0077980D02*
X0246544Y0078497D01*
X0246544Y0079531D01*
X0246027Y0080048D01*
X0243958Y0080048D01*
X0246027Y0077980D01*
X0243958Y0077980D01*
X0243441Y0078497D01*
X0243441Y0079531D01*
X0243958Y0080048D01*
X0238958Y0067880D02*
X0241027Y0065812D01*
X0241544Y0065812D01*
X0241544Y0064657D02*
X0241544Y0062589D01*
X0241544Y0063623D02*
X0238441Y0063623D01*
X0239476Y0062589D01*
X0238958Y0061435D02*
X0238441Y0060917D01*
X0238441Y0059883D01*
X0238958Y0059366D01*
X0241027Y0059366D01*
X0241544Y0059883D01*
X0241544Y0060917D01*
X0241027Y0061435D01*
X0238441Y0065812D02*
X0238441Y0067880D01*
X0238958Y0067880D01*
X0191544Y0067880D02*
X0191544Y0065812D01*
X0189476Y0067880D01*
X0188958Y0067880D01*
X0188441Y0067363D01*
X0188441Y0066329D01*
X0188958Y0065812D01*
X0188958Y0064657D02*
X0188441Y0064140D01*
X0188441Y0063106D01*
X0188958Y0062589D01*
X0191027Y0062589D01*
X0191544Y0063106D01*
X0191544Y0064140D01*
X0191027Y0064657D01*
X0261846Y0136678D02*
X0261846Y0138213D01*
X0261846Y0137446D02*
X0266449Y0137446D01*
X0266449Y0138213D02*
X0266449Y0136678D01*
X0265682Y0139748D02*
X0262613Y0139748D01*
X0261846Y0140515D01*
X0261846Y0142050D01*
X0262613Y0142817D01*
X0262613Y0144352D02*
X0261846Y0145119D01*
X0261846Y0146654D01*
X0262613Y0147421D01*
X0263380Y0147421D01*
X0266449Y0144352D01*
X0266449Y0147421D01*
X0265682Y0142817D02*
X0266449Y0142050D01*
X0266449Y0140515D01*
X0265682Y0139748D01*
X0256544Y0151534D02*
X0253441Y0151534D01*
X0253441Y0153086D01*
X0253958Y0153603D01*
X0254993Y0153603D01*
X0255510Y0153086D01*
X0255510Y0151534D01*
X0255510Y0152569D02*
X0256544Y0153603D01*
X0254993Y0154757D02*
X0254993Y0156826D01*
X0254993Y0157980D02*
X0254993Y0160048D01*
X0256544Y0159531D02*
X0253441Y0159531D01*
X0254993Y0157980D01*
X0256544Y0156308D02*
X0253441Y0156308D01*
X0254993Y0154757D01*
X0246544Y0153603D02*
X0245510Y0152569D01*
X0245510Y0153086D02*
X0245510Y0151534D01*
X0246544Y0151534D02*
X0243441Y0151534D01*
X0243441Y0153086D01*
X0243958Y0153603D01*
X0244993Y0153603D01*
X0245510Y0153086D01*
X0244993Y0154757D02*
X0244993Y0156826D01*
X0244993Y0157980D02*
X0244993Y0159531D01*
X0245510Y0160048D01*
X0246027Y0160048D01*
X0246544Y0159531D01*
X0246544Y0158497D01*
X0246027Y0157980D01*
X0244993Y0157980D01*
X0243958Y0159014D01*
X0243441Y0160048D01*
X0243441Y0156308D02*
X0244993Y0154757D01*
X0246544Y0156308D02*
X0243441Y0156308D01*
X0241027Y0147880D02*
X0238958Y0147880D01*
X0238441Y0147363D01*
X0238441Y0146329D01*
X0238958Y0145812D01*
X0239476Y0145812D01*
X0239993Y0146329D01*
X0239993Y0147880D01*
X0241027Y0147880D02*
X0241544Y0147363D01*
X0241544Y0146329D01*
X0241027Y0145812D01*
X0241544Y0144657D02*
X0241544Y0142589D01*
X0241544Y0143623D02*
X0238441Y0143623D01*
X0239476Y0142589D01*
X0238958Y0141435D02*
X0238441Y0140917D01*
X0238441Y0139883D01*
X0238958Y0139366D01*
X0241027Y0139366D01*
X0241544Y0139883D01*
X0241544Y0140917D01*
X0241027Y0141435D01*
X0288441Y0140917D02*
X0288441Y0139883D01*
X0288958Y0139366D01*
X0291027Y0139366D01*
X0291544Y0139883D01*
X0291544Y0140917D01*
X0291027Y0141435D01*
X0291544Y0142589D02*
X0289476Y0144657D01*
X0288958Y0144657D01*
X0288441Y0144140D01*
X0288441Y0143106D01*
X0288958Y0142589D01*
X0288958Y0141435D02*
X0288441Y0140917D01*
X0291544Y0142589D02*
X0291544Y0144657D01*
X0291027Y0145812D02*
X0291544Y0146329D01*
X0291544Y0147363D01*
X0291027Y0147880D01*
X0290510Y0147880D01*
X0289993Y0147363D01*
X0289993Y0146846D01*
X0289993Y0147363D02*
X0289476Y0147880D01*
X0288958Y0147880D01*
X0288441Y0147363D01*
X0288441Y0146329D01*
X0288958Y0145812D01*
X0293441Y0151534D02*
X0293441Y0153086D01*
X0293958Y0153603D01*
X0294993Y0153603D01*
X0295510Y0153086D01*
X0295510Y0151534D01*
X0296544Y0151534D02*
X0293441Y0151534D01*
X0295510Y0152569D02*
X0296544Y0153603D01*
X0296544Y0154757D02*
X0294476Y0156826D01*
X0293958Y0156826D01*
X0293441Y0156308D01*
X0293441Y0155274D01*
X0293958Y0154757D01*
X0296544Y0154757D02*
X0296544Y0156826D01*
X0296027Y0157980D02*
X0295510Y0157980D01*
X0294993Y0158497D01*
X0294993Y0159531D01*
X0295510Y0160048D01*
X0296027Y0160048D01*
X0296544Y0159531D01*
X0296544Y0158497D01*
X0296027Y0157980D01*
X0294993Y0158497D02*
X0294476Y0157980D01*
X0293958Y0157980D01*
X0293441Y0158497D01*
X0293441Y0159531D01*
X0293958Y0160048D01*
X0294476Y0160048D01*
X0294993Y0159531D01*
X0303441Y0160048D02*
X0303958Y0159014D01*
X0304993Y0157980D01*
X0304993Y0159531D01*
X0305510Y0160048D01*
X0306027Y0160048D01*
X0306544Y0159531D01*
X0306544Y0158497D01*
X0306027Y0157980D01*
X0304993Y0157980D01*
X0304476Y0156826D02*
X0303958Y0156826D01*
X0303441Y0156308D01*
X0303441Y0155274D01*
X0303958Y0154757D01*
X0303958Y0153603D02*
X0304993Y0153603D01*
X0305510Y0153086D01*
X0305510Y0151534D01*
X0306544Y0151534D02*
X0303441Y0151534D01*
X0303441Y0153086D01*
X0303958Y0153603D01*
X0305510Y0152569D02*
X0306544Y0153603D01*
X0306544Y0154757D02*
X0304476Y0156826D01*
X0306544Y0156826D02*
X0306544Y0154757D01*
X0312613Y0147421D02*
X0315682Y0144352D01*
X0316449Y0145119D01*
X0316449Y0146654D01*
X0315682Y0147421D01*
X0312613Y0147421D01*
X0311846Y0146654D01*
X0311846Y0145119D01*
X0312613Y0144352D01*
X0315682Y0144352D01*
X0316449Y0142817D02*
X0316449Y0139748D01*
X0316449Y0141282D02*
X0311846Y0141282D01*
X0313380Y0139748D01*
X0312613Y0138213D02*
X0311846Y0137446D01*
X0311846Y0135911D01*
X0312613Y0135144D01*
X0315682Y0135144D01*
X0316449Y0135911D01*
X0316449Y0137446D01*
X0315682Y0138213D01*
X0316449Y0133609D02*
X0316449Y0132075D01*
X0316449Y0132842D02*
X0311846Y0132842D01*
X0311846Y0132075D02*
X0311846Y0133609D01*
X0338441Y0139883D02*
X0338958Y0139366D01*
X0341027Y0139366D01*
X0341544Y0139883D01*
X0341544Y0140917D01*
X0341027Y0141435D01*
X0341544Y0142589D02*
X0339476Y0144657D01*
X0338958Y0144657D01*
X0338441Y0144140D01*
X0338441Y0143106D01*
X0338958Y0142589D01*
X0338958Y0141435D02*
X0338441Y0140917D01*
X0338441Y0139883D01*
X0341544Y0142589D02*
X0341544Y0144657D01*
X0341544Y0145812D02*
X0341027Y0145812D01*
X0338958Y0147880D01*
X0338441Y0147880D01*
X0338441Y0145812D01*
X0343441Y0151534D02*
X0343441Y0153086D01*
X0343958Y0153603D01*
X0344993Y0153603D01*
X0345510Y0153086D01*
X0345510Y0151534D01*
X0346544Y0151534D02*
X0343441Y0151534D01*
X0345510Y0152569D02*
X0346544Y0153603D01*
X0344993Y0154757D02*
X0344993Y0156826D01*
X0344476Y0157980D02*
X0344993Y0158497D01*
X0344993Y0160048D01*
X0346027Y0160048D02*
X0343958Y0160048D01*
X0343441Y0159531D01*
X0343441Y0158497D01*
X0343958Y0157980D01*
X0344476Y0157980D01*
X0346027Y0157980D02*
X0346544Y0158497D01*
X0346544Y0159531D01*
X0346027Y0160048D01*
X0346544Y0156308D02*
X0343441Y0156308D01*
X0344993Y0154757D01*
X0353441Y0154757D02*
X0354993Y0154757D01*
X0354476Y0155791D01*
X0354476Y0156308D01*
X0354993Y0156826D01*
X0356027Y0156826D01*
X0356544Y0156308D01*
X0356544Y0155274D01*
X0356027Y0154757D01*
X0356544Y0153603D02*
X0355510Y0152569D01*
X0355510Y0153086D02*
X0355510Y0151534D01*
X0356544Y0151534D02*
X0353441Y0151534D01*
X0353441Y0153086D01*
X0353958Y0153603D01*
X0354993Y0153603D01*
X0355510Y0153086D01*
X0353441Y0154757D02*
X0353441Y0156826D01*
X0354476Y0157980D02*
X0353441Y0159014D01*
X0356544Y0159014D01*
X0356544Y0157980D02*
X0356544Y0160048D01*
X0361846Y0146654D02*
X0364147Y0144352D01*
X0364147Y0147421D01*
X0361846Y0146654D02*
X0366449Y0146654D01*
X0366449Y0142817D02*
X0366449Y0139748D01*
X0366449Y0141282D02*
X0361846Y0141282D01*
X0363380Y0139748D01*
X0362613Y0138213D02*
X0361846Y0137446D01*
X0361846Y0135911D01*
X0362613Y0135144D01*
X0365682Y0135144D01*
X0366449Y0135911D01*
X0366449Y0137446D01*
X0365682Y0138213D01*
X0366449Y0133609D02*
X0366449Y0132075D01*
X0366449Y0132842D02*
X0361846Y0132842D01*
X0361846Y0132075D02*
X0361846Y0133609D01*
X0356027Y0120048D02*
X0353958Y0120048D01*
X0356027Y0117980D01*
X0356544Y0118497D01*
X0356544Y0119531D01*
X0356027Y0120048D01*
X0356027Y0117980D02*
X0353958Y0117980D01*
X0353441Y0118497D01*
X0353441Y0119531D01*
X0353958Y0120048D01*
X0353441Y0116826D02*
X0353441Y0114757D01*
X0354993Y0114757D01*
X0354476Y0115791D01*
X0354476Y0116308D01*
X0354993Y0116826D01*
X0356027Y0116826D01*
X0356544Y0116308D01*
X0356544Y0115274D01*
X0356027Y0114757D01*
X0356544Y0113603D02*
X0355510Y0112569D01*
X0355510Y0113086D02*
X0355510Y0111534D01*
X0356544Y0111534D02*
X0353441Y0111534D01*
X0353441Y0113086D01*
X0353958Y0113603D01*
X0354993Y0113603D01*
X0355510Y0113086D01*
X0361846Y0107421D02*
X0362613Y0107421D01*
X0365682Y0104352D01*
X0366449Y0104352D01*
X0366449Y0102817D02*
X0366449Y0099748D01*
X0366449Y0101282D02*
X0361846Y0101282D01*
X0363380Y0099748D01*
X0362613Y0098213D02*
X0361846Y0097446D01*
X0361846Y0095911D01*
X0362613Y0095144D01*
X0365682Y0095144D01*
X0366449Y0095911D01*
X0366449Y0097446D01*
X0365682Y0098213D01*
X0366449Y0093609D02*
X0366449Y0092075D01*
X0366449Y0092842D02*
X0361846Y0092842D01*
X0361846Y0092075D02*
X0361846Y0093609D01*
X0361846Y0104352D02*
X0361846Y0107421D01*
X0346544Y0111534D02*
X0343441Y0111534D01*
X0343441Y0113086D01*
X0343958Y0113603D01*
X0344993Y0113603D01*
X0345510Y0113086D01*
X0345510Y0111534D01*
X0345510Y0112569D02*
X0346544Y0113603D01*
X0344993Y0114757D02*
X0344993Y0116826D01*
X0345510Y0117980D02*
X0344993Y0118497D01*
X0344993Y0119531D01*
X0345510Y0120048D01*
X0346027Y0120048D01*
X0346544Y0119531D01*
X0346544Y0118497D01*
X0346027Y0117980D01*
X0345510Y0117980D01*
X0344993Y0118497D02*
X0344476Y0117980D01*
X0343958Y0117980D01*
X0343441Y0118497D01*
X0343441Y0119531D01*
X0343958Y0120048D01*
X0344476Y0120048D01*
X0344993Y0119531D01*
X0346544Y0116308D02*
X0343441Y0116308D01*
X0344993Y0114757D01*
X0341027Y0107880D02*
X0340510Y0107880D01*
X0339993Y0107363D01*
X0339993Y0105812D01*
X0341027Y0105812D01*
X0341544Y0106329D01*
X0341544Y0107363D01*
X0341027Y0107880D01*
X0338958Y0106846D02*
X0339993Y0105812D01*
X0339476Y0104657D02*
X0338958Y0104657D01*
X0338441Y0104140D01*
X0338441Y0103106D01*
X0338958Y0102589D01*
X0338958Y0101435D02*
X0338441Y0100917D01*
X0338441Y0099883D01*
X0338958Y0099366D01*
X0341027Y0099366D01*
X0341544Y0099883D01*
X0341544Y0100917D01*
X0341027Y0101435D01*
X0341544Y0102589D02*
X0339476Y0104657D01*
X0341544Y0104657D02*
X0341544Y0102589D01*
X0338958Y0106846D02*
X0338441Y0107880D01*
X0343958Y0080048D02*
X0343441Y0079531D01*
X0343441Y0078497D01*
X0343958Y0077980D01*
X0343958Y0076826D02*
X0344476Y0076826D01*
X0344993Y0076308D01*
X0345510Y0076826D01*
X0346027Y0076826D01*
X0346544Y0076308D01*
X0346544Y0075274D01*
X0346027Y0074757D01*
X0346544Y0073603D02*
X0345510Y0072569D01*
X0345510Y0073086D02*
X0345510Y0071534D01*
X0346544Y0071534D02*
X0343441Y0071534D01*
X0343441Y0073086D01*
X0343958Y0073603D01*
X0344993Y0073603D01*
X0345510Y0073086D01*
X0343958Y0074757D02*
X0343441Y0075274D01*
X0343441Y0076308D01*
X0343958Y0076826D01*
X0344993Y0076308D02*
X0344993Y0075791D01*
X0346544Y0077980D02*
X0344476Y0080048D01*
X0343958Y0080048D01*
X0346544Y0080048D02*
X0346544Y0077980D01*
X0353441Y0078497D02*
X0353441Y0079531D01*
X0353958Y0080048D01*
X0356027Y0077980D01*
X0356544Y0078497D01*
X0356544Y0079531D01*
X0356027Y0080048D01*
X0353958Y0080048D01*
X0353441Y0078497D02*
X0353958Y0077980D01*
X0356027Y0077980D01*
X0356027Y0076826D02*
X0356544Y0076308D01*
X0356544Y0075274D01*
X0356027Y0074757D01*
X0356544Y0073603D02*
X0355510Y0072569D01*
X0355510Y0073086D02*
X0355510Y0071534D01*
X0356544Y0071534D02*
X0353441Y0071534D01*
X0353441Y0073086D01*
X0353958Y0073603D01*
X0354993Y0073603D01*
X0355510Y0073086D01*
X0353958Y0074757D02*
X0353441Y0075274D01*
X0353441Y0076308D01*
X0353958Y0076826D01*
X0354476Y0076826D01*
X0354993Y0076308D01*
X0355510Y0076826D01*
X0356027Y0076826D01*
X0354993Y0076308D02*
X0354993Y0075791D01*
X0361846Y0067421D02*
X0361846Y0064352D01*
X0364147Y0064352D01*
X0363380Y0065886D01*
X0363380Y0066654D01*
X0364147Y0067421D01*
X0365682Y0067421D01*
X0366449Y0066654D01*
X0366449Y0065119D01*
X0365682Y0064352D01*
X0366449Y0062817D02*
X0366449Y0059748D01*
X0366449Y0061282D02*
X0361846Y0061282D01*
X0363380Y0059748D01*
X0362613Y0058213D02*
X0361846Y0057446D01*
X0361846Y0055911D01*
X0362613Y0055144D01*
X0365682Y0055144D01*
X0366449Y0055911D01*
X0366449Y0057446D01*
X0365682Y0058213D01*
X0366449Y0053609D02*
X0366449Y0052075D01*
X0366449Y0052842D02*
X0361846Y0052842D01*
X0361846Y0052075D02*
X0361846Y0053609D01*
X0356544Y0040048D02*
X0356544Y0037980D01*
X0356544Y0039014D02*
X0353441Y0039014D01*
X0354476Y0037980D01*
X0354476Y0036826D02*
X0354993Y0036308D01*
X0355510Y0036826D01*
X0356027Y0036826D01*
X0356544Y0036308D01*
X0356544Y0035274D01*
X0356027Y0034757D01*
X0356544Y0033603D02*
X0355510Y0032569D01*
X0355510Y0033086D02*
X0355510Y0031534D01*
X0356544Y0031534D02*
X0353441Y0031534D01*
X0353441Y0033086D01*
X0353958Y0033603D01*
X0354993Y0033603D01*
X0355510Y0033086D01*
X0353958Y0034757D02*
X0353441Y0035274D01*
X0353441Y0036308D01*
X0353958Y0036826D01*
X0354476Y0036826D01*
X0354993Y0036308D02*
X0354993Y0035791D01*
X0346544Y0035274D02*
X0346027Y0034757D01*
X0346544Y0035274D02*
X0346544Y0036308D01*
X0346027Y0036826D01*
X0345510Y0036826D01*
X0344993Y0036308D01*
X0344993Y0035791D01*
X0344993Y0036308D02*
X0344476Y0036826D01*
X0343958Y0036826D01*
X0343441Y0036308D01*
X0343441Y0035274D01*
X0343958Y0034757D01*
X0343958Y0033603D02*
X0344993Y0033603D01*
X0345510Y0033086D01*
X0345510Y0031534D01*
X0346544Y0031534D02*
X0343441Y0031534D01*
X0343441Y0033086D01*
X0343958Y0033603D01*
X0345510Y0032569D02*
X0346544Y0033603D01*
X0346027Y0037980D02*
X0346544Y0038497D01*
X0346544Y0039531D01*
X0346027Y0040048D01*
X0345510Y0040048D01*
X0344993Y0039531D01*
X0344993Y0039014D01*
X0344993Y0039531D02*
X0344476Y0040048D01*
X0343958Y0040048D01*
X0343441Y0039531D01*
X0343441Y0038497D01*
X0343958Y0037980D01*
X0339993Y0027880D02*
X0339993Y0025812D01*
X0338441Y0027363D01*
X0341544Y0027363D01*
X0341544Y0024657D02*
X0341544Y0022589D01*
X0339476Y0024657D01*
X0338958Y0024657D01*
X0338441Y0024140D01*
X0338441Y0023106D01*
X0338958Y0022589D01*
X0338958Y0021435D02*
X0338441Y0020917D01*
X0338441Y0019883D01*
X0338958Y0019366D01*
X0341027Y0019366D01*
X0341544Y0019883D01*
X0341544Y0020917D01*
X0341027Y0021435D01*
X0361846Y0021282D02*
X0363380Y0019748D01*
X0362613Y0018213D02*
X0361846Y0017446D01*
X0361846Y0015911D01*
X0362613Y0015144D01*
X0365682Y0015144D01*
X0366449Y0015911D01*
X0366449Y0017446D01*
X0365682Y0018213D01*
X0366449Y0019748D02*
X0366449Y0022817D01*
X0366449Y0021282D02*
X0361846Y0021282D01*
X0364147Y0024352D02*
X0364147Y0026654D01*
X0364915Y0027421D01*
X0365682Y0027421D01*
X0366449Y0026654D01*
X0366449Y0025119D01*
X0365682Y0024352D01*
X0364147Y0024352D01*
X0362613Y0025886D01*
X0361846Y0027421D01*
X0361846Y0013609D02*
X0361846Y0012075D01*
X0361846Y0012842D02*
X0366449Y0012842D01*
X0366449Y0012075D02*
X0366449Y0013609D01*
X0388441Y0019883D02*
X0388958Y0019366D01*
X0391027Y0019366D01*
X0391544Y0019883D01*
X0391544Y0020917D01*
X0391027Y0021435D01*
X0391544Y0022589D02*
X0389476Y0024657D01*
X0388958Y0024657D01*
X0388441Y0024140D01*
X0388441Y0023106D01*
X0388958Y0022589D01*
X0388958Y0021435D02*
X0388441Y0020917D01*
X0388441Y0019883D01*
X0391544Y0022589D02*
X0391544Y0024657D01*
X0391027Y0025812D02*
X0390510Y0025812D01*
X0389993Y0026329D01*
X0389993Y0027363D01*
X0390510Y0027880D01*
X0391027Y0027880D01*
X0391544Y0027363D01*
X0391544Y0026329D01*
X0391027Y0025812D01*
X0389993Y0026329D02*
X0389476Y0025812D01*
X0388958Y0025812D01*
X0388441Y0026329D01*
X0388441Y0027363D01*
X0388958Y0027880D01*
X0389476Y0027880D01*
X0389993Y0027363D01*
X0393441Y0031534D02*
X0393441Y0033086D01*
X0393958Y0033603D01*
X0394993Y0033603D01*
X0395510Y0033086D01*
X0395510Y0031534D01*
X0396544Y0031534D02*
X0393441Y0031534D01*
X0395510Y0032569D02*
X0396544Y0033603D01*
X0396027Y0034757D02*
X0396544Y0035274D01*
X0396544Y0036308D01*
X0396027Y0036826D01*
X0395510Y0036826D01*
X0394993Y0036308D01*
X0394993Y0035791D01*
X0394993Y0036308D02*
X0394476Y0036826D01*
X0393958Y0036826D01*
X0393441Y0036308D01*
X0393441Y0035274D01*
X0393958Y0034757D01*
X0393441Y0037980D02*
X0393441Y0040048D01*
X0393958Y0040048D01*
X0396027Y0037980D01*
X0396544Y0037980D01*
X0403441Y0038497D02*
X0403958Y0037980D01*
X0404476Y0037980D01*
X0404993Y0038497D01*
X0404993Y0040048D01*
X0406027Y0040048D02*
X0403958Y0040048D01*
X0403441Y0039531D01*
X0403441Y0038497D01*
X0403958Y0036826D02*
X0404476Y0036826D01*
X0404993Y0036308D01*
X0405510Y0036826D01*
X0406027Y0036826D01*
X0406544Y0036308D01*
X0406544Y0035274D01*
X0406027Y0034757D01*
X0406544Y0033603D02*
X0405510Y0032569D01*
X0405510Y0033086D02*
X0405510Y0031534D01*
X0406544Y0031534D02*
X0403441Y0031534D01*
X0403441Y0033086D01*
X0403958Y0033603D01*
X0404993Y0033603D01*
X0405510Y0033086D01*
X0403958Y0034757D02*
X0403441Y0035274D01*
X0403441Y0036308D01*
X0403958Y0036826D01*
X0404993Y0036308D02*
X0404993Y0035791D01*
X0406027Y0037980D02*
X0406544Y0038497D01*
X0406544Y0039531D01*
X0406027Y0040048D01*
X0411846Y0052075D02*
X0411846Y0053609D01*
X0411846Y0052842D02*
X0416449Y0052842D01*
X0416449Y0052075D02*
X0416449Y0053609D01*
X0415682Y0055144D02*
X0416449Y0055911D01*
X0416449Y0057446D01*
X0415682Y0058213D01*
X0416449Y0059748D02*
X0416449Y0062817D01*
X0416449Y0061282D02*
X0411846Y0061282D01*
X0413380Y0059748D01*
X0412613Y0058213D02*
X0411846Y0057446D01*
X0411846Y0055911D01*
X0412613Y0055144D01*
X0415682Y0055144D01*
X0415682Y0064352D02*
X0416449Y0065119D01*
X0416449Y0066654D01*
X0415682Y0067421D01*
X0412613Y0067421D01*
X0411846Y0066654D01*
X0411846Y0065119D01*
X0412613Y0064352D01*
X0413380Y0064352D01*
X0414147Y0065119D01*
X0414147Y0067421D01*
X0406544Y0071534D02*
X0403441Y0071534D01*
X0403441Y0073086D01*
X0403958Y0073603D01*
X0404993Y0073603D01*
X0405510Y0073086D01*
X0405510Y0071534D01*
X0405510Y0072569D02*
X0406544Y0073603D01*
X0406027Y0074757D02*
X0406544Y0075274D01*
X0406544Y0076308D01*
X0406027Y0076826D01*
X0405510Y0076826D01*
X0404993Y0076308D01*
X0404993Y0075791D01*
X0404993Y0076308D02*
X0404476Y0076826D01*
X0403958Y0076826D01*
X0403441Y0076308D01*
X0403441Y0075274D01*
X0403958Y0074757D01*
X0403958Y0077980D02*
X0404476Y0077980D01*
X0404993Y0078497D01*
X0404993Y0079531D01*
X0405510Y0080048D01*
X0406027Y0080048D01*
X0406544Y0079531D01*
X0406544Y0078497D01*
X0406027Y0077980D01*
X0405510Y0077980D01*
X0404993Y0078497D01*
X0404993Y0079531D02*
X0404476Y0080048D01*
X0403958Y0080048D01*
X0403441Y0079531D01*
X0403441Y0078497D01*
X0403958Y0077980D01*
X0396544Y0078497D02*
X0396544Y0079531D01*
X0396027Y0080048D01*
X0395510Y0080048D01*
X0394993Y0079531D01*
X0394993Y0077980D01*
X0396027Y0077980D01*
X0396544Y0078497D01*
X0394993Y0077980D02*
X0393958Y0079014D01*
X0393441Y0080048D01*
X0393958Y0076826D02*
X0394476Y0076826D01*
X0394993Y0076308D01*
X0395510Y0076826D01*
X0396027Y0076826D01*
X0396544Y0076308D01*
X0396544Y0075274D01*
X0396027Y0074757D01*
X0396544Y0073603D02*
X0395510Y0072569D01*
X0395510Y0073086D02*
X0395510Y0071534D01*
X0396544Y0071534D02*
X0393441Y0071534D01*
X0393441Y0073086D01*
X0393958Y0073603D01*
X0394993Y0073603D01*
X0395510Y0073086D01*
X0393958Y0074757D02*
X0393441Y0075274D01*
X0393441Y0076308D01*
X0393958Y0076826D01*
X0394993Y0076308D02*
X0394993Y0075791D01*
X0391027Y0070380D02*
X0388958Y0070380D01*
X0388441Y0069863D01*
X0388441Y0068829D01*
X0388958Y0068312D01*
X0389476Y0068312D01*
X0389993Y0068829D01*
X0389993Y0070380D01*
X0391027Y0070380D02*
X0391544Y0069863D01*
X0391544Y0068829D01*
X0391027Y0068312D01*
X0391544Y0067157D02*
X0391544Y0065089D01*
X0389476Y0067157D01*
X0388958Y0067157D01*
X0388441Y0066640D01*
X0388441Y0065606D01*
X0388958Y0065089D01*
X0388958Y0063935D02*
X0388441Y0063417D01*
X0388441Y0062383D01*
X0388958Y0061866D01*
X0391027Y0061866D01*
X0391544Y0062383D01*
X0391544Y0063417D01*
X0391027Y0063935D01*
X0411846Y0092075D02*
X0411846Y0093609D01*
X0411846Y0092842D02*
X0416449Y0092842D01*
X0416449Y0092075D02*
X0416449Y0093609D01*
X0415682Y0095144D02*
X0416449Y0095911D01*
X0416449Y0097446D01*
X0415682Y0098213D01*
X0416449Y0099748D02*
X0413380Y0102817D01*
X0412613Y0102817D01*
X0411846Y0102050D01*
X0411846Y0100515D01*
X0412613Y0099748D01*
X0412613Y0098213D02*
X0411846Y0097446D01*
X0411846Y0095911D01*
X0412613Y0095144D01*
X0415682Y0095144D01*
X0416449Y0099748D02*
X0416449Y0102817D01*
X0416449Y0104352D02*
X0416449Y0107421D01*
X0416449Y0105886D02*
X0411846Y0105886D01*
X0413380Y0104352D01*
X0406544Y0111534D02*
X0403441Y0111534D01*
X0403441Y0113086D01*
X0403958Y0113603D01*
X0404993Y0113603D01*
X0405510Y0113086D01*
X0405510Y0111534D01*
X0405510Y0112569D02*
X0406544Y0113603D01*
X0404993Y0114757D02*
X0404993Y0116826D01*
X0404476Y0117980D02*
X0403441Y0119014D01*
X0406544Y0119014D01*
X0406544Y0117980D02*
X0406544Y0120048D01*
X0406544Y0116308D02*
X0403441Y0116308D01*
X0404993Y0114757D01*
X0396544Y0113603D02*
X0395510Y0112569D01*
X0395510Y0113086D02*
X0395510Y0111534D01*
X0396544Y0111534D02*
X0393441Y0111534D01*
X0393441Y0113086D01*
X0393958Y0113603D01*
X0394993Y0113603D01*
X0395510Y0113086D01*
X0394993Y0114757D02*
X0394993Y0116826D01*
X0396027Y0117980D02*
X0396544Y0118497D01*
X0396544Y0119531D01*
X0396027Y0120048D01*
X0395510Y0120048D01*
X0394993Y0119531D01*
X0394993Y0119014D01*
X0394993Y0119531D02*
X0394476Y0120048D01*
X0393958Y0120048D01*
X0393441Y0119531D01*
X0393441Y0118497D01*
X0393958Y0117980D01*
X0393441Y0116308D02*
X0394993Y0114757D01*
X0396544Y0116308D02*
X0393441Y0116308D01*
X0391027Y0107880D02*
X0391544Y0107363D01*
X0391544Y0106329D01*
X0391027Y0105812D01*
X0388958Y0107880D01*
X0391027Y0107880D01*
X0391027Y0105812D02*
X0388958Y0105812D01*
X0388441Y0106329D01*
X0388441Y0107363D01*
X0388958Y0107880D01*
X0388958Y0104657D02*
X0388441Y0104140D01*
X0388441Y0103106D01*
X0388958Y0102589D01*
X0388958Y0101435D02*
X0388441Y0100917D01*
X0388441Y0099883D01*
X0388958Y0099366D01*
X0391027Y0099366D01*
X0391544Y0099883D01*
X0391544Y0100917D01*
X0391027Y0101435D01*
X0391027Y0102589D02*
X0391544Y0103106D01*
X0391544Y0104140D01*
X0391027Y0104657D01*
X0390510Y0104657D01*
X0389993Y0104140D01*
X0389993Y0103623D01*
X0389993Y0104140D02*
X0389476Y0104657D01*
X0388958Y0104657D01*
X0411846Y0132075D02*
X0411846Y0133609D01*
X0411846Y0132842D02*
X0416449Y0132842D01*
X0416449Y0132075D02*
X0416449Y0133609D01*
X0415682Y0135144D02*
X0416449Y0135911D01*
X0416449Y0137446D01*
X0415682Y0138213D01*
X0416449Y0139748D02*
X0416449Y0142817D01*
X0416449Y0141282D02*
X0411846Y0141282D01*
X0413380Y0139748D01*
X0412613Y0138213D02*
X0411846Y0137446D01*
X0411846Y0135911D01*
X0412613Y0135144D01*
X0415682Y0135144D01*
X0415682Y0144352D02*
X0414915Y0144352D01*
X0414147Y0145119D01*
X0414147Y0146654D01*
X0414915Y0147421D01*
X0415682Y0147421D01*
X0416449Y0146654D01*
X0416449Y0145119D01*
X0415682Y0144352D01*
X0414147Y0145119D02*
X0413380Y0144352D01*
X0412613Y0144352D01*
X0411846Y0145119D01*
X0411846Y0146654D01*
X0412613Y0147421D01*
X0413380Y0147421D01*
X0414147Y0146654D01*
X0406544Y0151534D02*
X0403441Y0151534D01*
X0403441Y0153086D01*
X0403958Y0153603D01*
X0404993Y0153603D01*
X0405510Y0153086D01*
X0405510Y0151534D01*
X0405510Y0152569D02*
X0406544Y0153603D01*
X0404993Y0154757D02*
X0404993Y0156826D01*
X0406027Y0157980D02*
X0403958Y0160048D01*
X0406027Y0160048D01*
X0406544Y0159531D01*
X0406544Y0158497D01*
X0406027Y0157980D01*
X0403958Y0157980D01*
X0403441Y0158497D01*
X0403441Y0159531D01*
X0403958Y0160048D01*
X0403441Y0156308D02*
X0404993Y0154757D01*
X0406544Y0156308D02*
X0403441Y0156308D01*
X0396544Y0156308D02*
X0393441Y0156308D01*
X0394993Y0154757D01*
X0394993Y0156826D01*
X0393958Y0157980D02*
X0393441Y0158497D01*
X0393441Y0159531D01*
X0393958Y0160048D01*
X0394476Y0160048D01*
X0396544Y0157980D01*
X0396544Y0160048D01*
X0396544Y0153603D02*
X0395510Y0152569D01*
X0395510Y0153086D02*
X0395510Y0151534D01*
X0396544Y0151534D02*
X0393441Y0151534D01*
X0393441Y0153086D01*
X0393958Y0153603D01*
X0394993Y0153603D01*
X0395510Y0153086D01*
X0391544Y0147880D02*
X0391544Y0145812D01*
X0391544Y0146846D02*
X0388441Y0146846D01*
X0389476Y0145812D01*
X0389476Y0144657D02*
X0389993Y0144140D01*
X0390510Y0144657D01*
X0391027Y0144657D01*
X0391544Y0144140D01*
X0391544Y0143106D01*
X0391027Y0142589D01*
X0391027Y0141435D02*
X0391544Y0140917D01*
X0391544Y0139883D01*
X0391027Y0139366D01*
X0388958Y0139366D01*
X0388441Y0139883D01*
X0388441Y0140917D01*
X0388958Y0141435D01*
X0388958Y0142589D02*
X0388441Y0143106D01*
X0388441Y0144140D01*
X0388958Y0144657D01*
X0389476Y0144657D01*
X0389993Y0144140D02*
X0389993Y0143623D01*
X0338527Y0067880D02*
X0339044Y0067363D01*
X0339044Y0066329D01*
X0338527Y0065812D01*
X0337493Y0065812D02*
X0336976Y0066846D01*
X0336976Y0067363D01*
X0337493Y0067880D01*
X0338527Y0067880D01*
X0337493Y0065812D02*
X0335941Y0065812D01*
X0335941Y0067880D01*
X0336458Y0064657D02*
X0335941Y0064140D01*
X0335941Y0063106D01*
X0336458Y0062589D01*
X0336458Y0061435D02*
X0335941Y0060917D01*
X0335941Y0059883D01*
X0336458Y0059366D01*
X0338527Y0059366D01*
X0339044Y0059883D01*
X0339044Y0060917D01*
X0338527Y0061435D01*
X0339044Y0062589D02*
X0336976Y0064657D01*
X0336458Y0064657D01*
X0339044Y0064657D02*
X0339044Y0062589D01*
X0316449Y0027421D02*
X0316449Y0024352D01*
X0313380Y0027421D01*
X0312613Y0027421D01*
X0311846Y0026654D01*
X0311846Y0025119D01*
X0312613Y0024352D01*
X0311846Y0021282D02*
X0316449Y0021282D01*
X0316449Y0019748D02*
X0316449Y0022817D01*
X0313380Y0019748D02*
X0311846Y0021282D01*
X0312613Y0018213D02*
X0311846Y0017446D01*
X0311846Y0015911D01*
X0312613Y0015144D01*
X0315682Y0015144D01*
X0316449Y0015911D01*
X0316449Y0017446D01*
X0315682Y0018213D01*
X0316449Y0013609D02*
X0316449Y0012075D01*
X0316449Y0012842D02*
X0311846Y0012842D01*
X0311846Y0012075D02*
X0311846Y0013609D01*
X0411846Y0013609D02*
X0411846Y0012075D01*
X0411846Y0012842D02*
X0416449Y0012842D01*
X0416449Y0012075D02*
X0416449Y0013609D01*
X0415682Y0015144D02*
X0416449Y0015911D01*
X0416449Y0017446D01*
X0415682Y0018213D01*
X0416449Y0019748D02*
X0413380Y0022817D01*
X0412613Y0022817D01*
X0411846Y0022050D01*
X0411846Y0020515D01*
X0412613Y0019748D01*
X0412613Y0018213D02*
X0411846Y0017446D01*
X0411846Y0015911D01*
X0412613Y0015144D01*
X0415682Y0015144D01*
X0416449Y0019748D02*
X0416449Y0022817D01*
X0415682Y0024352D02*
X0412613Y0027421D01*
X0415682Y0027421D01*
X0416449Y0026654D01*
X0416449Y0025119D01*
X0415682Y0024352D01*
X0412613Y0024352D01*
X0411846Y0025119D01*
X0411846Y0026654D01*
X0412613Y0027421D01*
X0399458Y0264034D02*
X0397389Y0264034D01*
X0399458Y0266103D01*
X0399458Y0266620D01*
X0398941Y0267137D01*
X0397907Y0267137D01*
X0397389Y0266620D01*
X0396235Y0266620D02*
X0396235Y0266103D01*
X0395718Y0265586D01*
X0396235Y0265069D01*
X0396235Y0264551D01*
X0395718Y0264034D01*
X0394684Y0264034D01*
X0394167Y0264551D01*
X0393012Y0264551D02*
X0392495Y0264034D01*
X0391461Y0264034D01*
X0390944Y0264551D01*
X0390944Y0266620D01*
X0391461Y0267137D01*
X0392495Y0267137D01*
X0393012Y0266620D01*
X0394167Y0266620D02*
X0394684Y0267137D01*
X0395718Y0267137D01*
X0396235Y0266620D01*
X0395718Y0265586D02*
X0395201Y0265586D01*
X0304458Y0265069D02*
X0304458Y0264551D01*
X0303941Y0264034D01*
X0302907Y0264034D01*
X0302389Y0264551D01*
X0301235Y0264551D02*
X0300718Y0264034D01*
X0299684Y0264034D01*
X0299167Y0264551D01*
X0298012Y0264551D02*
X0297495Y0264034D01*
X0296461Y0264034D01*
X0295944Y0264551D01*
X0295944Y0266620D01*
X0296461Y0267137D01*
X0297495Y0267137D01*
X0298012Y0266620D01*
X0299167Y0266620D02*
X0299684Y0267137D01*
X0300718Y0267137D01*
X0301235Y0266620D01*
X0301235Y0266103D01*
X0300718Y0265586D01*
X0301235Y0265069D01*
X0301235Y0264551D01*
X0300718Y0265586D02*
X0300201Y0265586D01*
X0302389Y0266620D02*
X0302907Y0267137D01*
X0303941Y0267137D01*
X0304458Y0266620D01*
X0304458Y0266103D01*
X0303941Y0265586D01*
X0304458Y0265069D01*
X0303941Y0265586D02*
X0303424Y0265586D01*
D13*
X0171744Y0271584D02*
X0171744Y0259084D01*
X0164744Y0259084D01*
X0164744Y0271584D01*
X0171744Y0271584D01*
X0170244Y0266084D02*
X0167994Y0264834D01*
X0169244Y0266084D01*
X0167744Y0265084D01*
X0168244Y0266084D01*
X0167244Y0265334D01*
X0167244Y0266084D01*
X0166244Y0266084D01*
X0167244Y0265334D01*
X0168244Y0264584D01*
X0170244Y0266084D01*
X0169244Y0266084D01*
X0168244Y0266084D01*
X0167244Y0266084D01*
X0163244Y0254334D02*
X0158244Y0254334D01*
X0158244Y0243334D01*
X0163244Y0243334D01*
X0163244Y0254334D01*
X0148244Y0234334D02*
X0143244Y0234334D01*
X0143244Y0223334D01*
X0148244Y0223334D01*
X0148244Y0234334D01*
X0133744Y0221334D02*
X0133744Y0216334D01*
X0122744Y0216334D01*
X0122744Y0221334D01*
X0133744Y0221334D01*
X0129586Y0207634D02*
X0109901Y0207634D01*
X0109901Y0206059D01*
X0117244Y0206334D02*
X0117244Y0201334D01*
X0115244Y0201334D01*
X0117244Y0201334D02*
X0117244Y0196334D01*
X0118744Y0197334D02*
X0120744Y0197334D01*
X0120744Y0205334D01*
X0118744Y0205334D01*
X0118744Y0197334D01*
X0122244Y0196334D02*
X0122244Y0201334D01*
X0124244Y0201334D01*
X0122244Y0201334D02*
X0122244Y0206334D01*
X0129586Y0206059D02*
X0129586Y0207634D01*
X0129586Y0196610D02*
X0129586Y0195035D01*
X0109901Y0195035D01*
X0109901Y0196610D01*
X0100744Y0203834D02*
X0070744Y0203834D01*
X0070744Y0223834D01*
X0100744Y0223834D01*
X0100744Y0203834D01*
X0088894Y0199287D02*
X0082594Y0199287D01*
X0084244Y0196334D02*
X0087244Y0194334D01*
X0087244Y0198334D01*
X0084244Y0196334D01*
X0084334Y0196275D02*
X0087244Y0196275D01*
X0087244Y0196773D02*
X0084902Y0196773D01*
X0085650Y0197272D02*
X0087244Y0197272D01*
X0087244Y0197770D02*
X0086398Y0197770D01*
X0086744Y0197834D02*
X0086744Y0194834D01*
X0086577Y0194779D02*
X0087244Y0194779D01*
X0087244Y0195278D02*
X0085829Y0195278D01*
X0085081Y0195776D02*
X0087244Y0195776D01*
X0087244Y0198269D02*
X0087145Y0198269D01*
X0088894Y0193382D02*
X0082988Y0193382D01*
X0070494Y0204335D02*
X0070494Y0205086D01*
X0069743Y0205836D01*
X0065990Y0205836D01*
X0065990Y0205086D02*
X0065990Y0206587D01*
X0068242Y0208188D02*
X0065990Y0210440D01*
X0070494Y0210440D01*
X0068242Y0211191D02*
X0068242Y0208188D01*
X0070494Y0204335D02*
X0069743Y0203584D01*
X0060244Y0196834D02*
X0036244Y0196834D01*
X0036244Y0220834D01*
X0060244Y0220834D01*
X0060244Y0196834D01*
X0105244Y0216334D02*
X0105244Y0221334D01*
X0116244Y0221334D01*
X0116244Y0216334D01*
X0105244Y0216334D01*
X0070744Y0248334D02*
X0065744Y0248334D01*
X0065744Y0259334D01*
X0070744Y0259334D01*
X0070744Y0248334D01*
X0072744Y0256334D02*
X0072744Y0261334D01*
X0083744Y0261334D01*
X0083744Y0256334D01*
X0072744Y0256334D01*
X0060744Y0255960D02*
X0060744Y0252023D01*
X0052476Y0248874D02*
X0045390Y0248874D01*
X0033972Y0248874D02*
X0024917Y0248874D01*
X0024744Y0248834D02*
X0024744Y0278834D01*
X0024917Y0278795D02*
X0033579Y0278795D01*
X0045390Y0278795D02*
X0052476Y0278795D01*
X0060744Y0275645D02*
X0060744Y0271708D01*
X0065744Y0270834D02*
X0070744Y0270834D01*
X0070744Y0281834D01*
X0065744Y0281834D01*
X0065744Y0270834D01*
X0072744Y0268834D02*
X0072744Y0273834D01*
X0083744Y0273834D01*
X0083744Y0268834D01*
X0072744Y0268834D01*
X0084744Y0282334D02*
X0084744Y0295334D01*
X0091744Y0295334D01*
X0091744Y0282334D01*
X0084744Y0282334D01*
X0067744Y0287334D02*
X0054744Y0287334D01*
X0054744Y0311334D01*
X0067744Y0311334D01*
X0067744Y0287334D01*
X0048994Y0287084D02*
X0042494Y0287084D01*
X0042494Y0303584D01*
X0048994Y0303584D01*
X0048994Y0287084D01*
X0045744Y0293584D02*
X0045744Y0295584D01*
X0046744Y0294584D02*
X0044744Y0294584D01*
X0084494Y0310334D02*
X0084494Y0317334D01*
X0096994Y0317334D01*
X0096994Y0310334D01*
X0084494Y0310334D01*
X0089994Y0311834D02*
X0090744Y0312834D01*
X0089994Y0312834D01*
X0089994Y0311834D01*
X0089994Y0312834D02*
X0089994Y0313834D01*
X0090744Y0312834D01*
X0091494Y0313834D01*
X0089994Y0315834D01*
X0091244Y0313584D01*
X0089994Y0314834D01*
X0090994Y0313334D01*
X0089994Y0313834D01*
X0089994Y0314834D01*
X0089994Y0315834D01*
X0198244Y0164334D02*
X0203244Y0164334D01*
X0203244Y0153334D01*
X0198244Y0153334D01*
X0198244Y0164334D01*
X0208244Y0164334D02*
X0213244Y0164334D01*
X0213244Y0153334D01*
X0208244Y0153334D01*
X0208244Y0164334D01*
X0248244Y0164334D02*
X0248244Y0153334D01*
X0253244Y0153334D01*
X0253244Y0164334D01*
X0248244Y0164334D01*
X0258244Y0164334D02*
X0263244Y0164334D01*
X0263244Y0153334D01*
X0258244Y0153334D01*
X0258244Y0164334D01*
X0298244Y0164334D02*
X0298244Y0153334D01*
X0303244Y0153334D01*
X0303244Y0164334D01*
X0298244Y0164334D01*
X0308244Y0164334D02*
X0308244Y0153334D01*
X0313244Y0153334D01*
X0313244Y0164334D01*
X0308244Y0164334D01*
X0348244Y0164334D02*
X0348244Y0153334D01*
X0353244Y0153334D01*
X0353244Y0164334D01*
X0348244Y0164334D01*
X0358244Y0164334D02*
X0363244Y0164334D01*
X0363244Y0153334D01*
X0358244Y0153334D01*
X0358244Y0164334D01*
X0398244Y0164334D02*
X0398244Y0153334D01*
X0403244Y0153334D01*
X0403244Y0164334D01*
X0398244Y0164334D01*
X0408244Y0164334D02*
X0413244Y0164334D01*
X0413244Y0153334D01*
X0408244Y0153334D01*
X0408244Y0164334D01*
X0408244Y0124334D02*
X0413244Y0124334D01*
X0413244Y0113334D01*
X0408244Y0113334D01*
X0408244Y0124334D01*
X0403244Y0124334D02*
X0398244Y0124334D01*
X0398244Y0113334D01*
X0403244Y0113334D01*
X0403244Y0124334D01*
X0363244Y0124334D02*
X0363244Y0113334D01*
X0358244Y0113334D01*
X0358244Y0124334D01*
X0363244Y0124334D01*
X0353244Y0124334D02*
X0348244Y0124334D01*
X0348244Y0113334D01*
X0353244Y0113334D01*
X0353244Y0124334D01*
X0313244Y0124334D02*
X0313244Y0113334D01*
X0308244Y0113334D01*
X0308244Y0124334D01*
X0313244Y0124334D01*
X0303244Y0124334D02*
X0303244Y0113334D01*
X0298244Y0113334D01*
X0298244Y0124334D01*
X0303244Y0124334D01*
X0263244Y0124334D02*
X0263244Y0113334D01*
X0258244Y0113334D01*
X0258244Y0124334D01*
X0263244Y0124334D01*
X0253244Y0124334D02*
X0248244Y0124334D01*
X0248244Y0113334D01*
X0253244Y0113334D01*
X0253244Y0124334D01*
X0213244Y0124334D02*
X0213244Y0113334D01*
X0208244Y0113334D01*
X0208244Y0124334D01*
X0213244Y0124334D01*
X0203244Y0124334D02*
X0198244Y0124334D01*
X0198244Y0113334D01*
X0203244Y0113334D01*
X0203244Y0124334D01*
X0203244Y0084334D02*
X0198244Y0084334D01*
X0198244Y0073334D01*
X0203244Y0073334D01*
X0203244Y0084334D01*
X0208244Y0084334D02*
X0213244Y0084334D01*
X0213244Y0073334D01*
X0208244Y0073334D01*
X0208244Y0084334D01*
X0248244Y0084334D02*
X0248244Y0073334D01*
X0253244Y0073334D01*
X0253244Y0084334D01*
X0248244Y0084334D01*
X0258244Y0084334D02*
X0263244Y0084334D01*
X0263244Y0073334D01*
X0258244Y0073334D01*
X0258244Y0084334D01*
X0298244Y0084334D02*
X0298244Y0073334D01*
X0303244Y0073334D01*
X0303244Y0084334D01*
X0298244Y0084334D01*
X0308244Y0084334D02*
X0308244Y0073334D01*
X0313244Y0073334D01*
X0313244Y0084334D01*
X0308244Y0084334D01*
X0348244Y0084334D02*
X0348244Y0073334D01*
X0353244Y0073334D01*
X0353244Y0084334D01*
X0348244Y0084334D01*
X0358244Y0084334D02*
X0363244Y0084334D01*
X0363244Y0073334D01*
X0358244Y0073334D01*
X0358244Y0084334D01*
X0398244Y0084334D02*
X0398244Y0073334D01*
X0403244Y0073334D01*
X0403244Y0084334D01*
X0398244Y0084334D01*
X0408244Y0084334D02*
X0413244Y0084334D01*
X0413244Y0073334D01*
X0408244Y0073334D01*
X0408244Y0084334D01*
X0408244Y0044334D02*
X0413244Y0044334D01*
X0413244Y0033334D01*
X0408244Y0033334D01*
X0408244Y0044334D01*
X0403244Y0044334D02*
X0398244Y0044334D01*
X0398244Y0033334D01*
X0403244Y0033334D01*
X0403244Y0044334D01*
X0363244Y0044334D02*
X0363244Y0033334D01*
X0358244Y0033334D01*
X0358244Y0044334D01*
X0363244Y0044334D01*
X0353244Y0044334D02*
X0348244Y0044334D01*
X0348244Y0033334D01*
X0353244Y0033334D01*
X0353244Y0044334D01*
X0313244Y0044334D02*
X0313244Y0033334D01*
X0308244Y0033334D01*
X0308244Y0044334D01*
X0313244Y0044334D01*
X0303244Y0044334D02*
X0303244Y0033334D01*
X0298244Y0033334D01*
X0298244Y0044334D01*
X0303244Y0044334D01*
X0263244Y0044334D02*
X0263244Y0033334D01*
X0258244Y0033334D01*
X0258244Y0044334D01*
X0263244Y0044334D01*
X0253244Y0044334D02*
X0248244Y0044334D01*
X0248244Y0033334D01*
X0253244Y0033334D01*
X0253244Y0044334D01*
X0213244Y0044334D02*
X0213244Y0033334D01*
X0208244Y0033334D01*
X0208244Y0044334D01*
X0213244Y0044334D01*
X0203244Y0044334D02*
X0198244Y0044334D01*
X0198244Y0033334D01*
X0203244Y0033334D01*
X0203244Y0044334D01*
D14*
X0139642Y0237437D02*
X0101846Y0237437D01*
X0101846Y0273657D01*
X0103421Y0275232D01*
X0139642Y0275232D01*
X0139642Y0237437D01*
X0180044Y0260469D02*
X0181278Y0259234D01*
X0183747Y0259234D01*
X0184981Y0260469D01*
X0184981Y0266641D01*
X0187594Y0265406D02*
X0188829Y0266641D01*
X0191298Y0266641D01*
X0192532Y0265406D01*
X0192532Y0264172D01*
X0187594Y0259234D01*
X0192532Y0259234D01*
X0180044Y0260469D02*
X0180044Y0266641D01*
X0275044Y0266641D02*
X0275044Y0260469D01*
X0276278Y0259234D01*
X0278747Y0259234D01*
X0279981Y0260469D01*
X0279981Y0266641D01*
X0282594Y0266641D02*
X0282594Y0262938D01*
X0285063Y0264172D01*
X0286298Y0264172D01*
X0287532Y0262938D01*
X0287532Y0260469D01*
X0286298Y0259234D01*
X0283829Y0259234D01*
X0282594Y0260469D01*
X0282594Y0266641D02*
X0287532Y0266641D01*
X0370044Y0266641D02*
X0370044Y0260469D01*
X0371278Y0259234D01*
X0373747Y0259234D01*
X0374981Y0260469D01*
X0374981Y0266641D01*
X0377594Y0265406D02*
X0378829Y0266641D01*
X0381298Y0266641D01*
X0382532Y0265406D01*
X0382532Y0264172D01*
X0381298Y0262938D01*
X0382532Y0261703D01*
X0382532Y0260469D01*
X0381298Y0259234D01*
X0378829Y0259234D01*
X0377594Y0260469D01*
X0380063Y0262938D02*
X0381298Y0262938D01*
D15*
X0098244Y0276334D03*
D16*
X0132553Y0298126D02*
X0132553Y0298608D01*
X0132553Y0298126D02*
X0138934Y0298126D01*
X0138934Y0298608D01*
X0138934Y0301778D02*
X0138934Y0305891D01*
X0138934Y0309061D02*
X0138934Y0309543D01*
X0132553Y0309543D01*
X0132553Y0309061D01*
X0132553Y0305891D02*
X0132553Y0305518D01*
X0132553Y0302151D02*
X0132553Y0301778D01*
X0185744Y0254534D02*
X0185744Y0253634D01*
X0185744Y0254534D02*
X0199544Y0254534D01*
X0201944Y0254534D01*
X0215744Y0254534D01*
X0215744Y0253634D01*
X0201944Y0254534D02*
X0201942Y0254465D01*
X0201936Y0254397D01*
X0201926Y0254329D01*
X0201913Y0254262D01*
X0201895Y0254196D01*
X0201874Y0254131D01*
X0201849Y0254067D01*
X0201821Y0254005D01*
X0201789Y0253944D01*
X0201754Y0253885D01*
X0201715Y0253829D01*
X0201673Y0253774D01*
X0201628Y0253723D01*
X0201580Y0253673D01*
X0201530Y0253627D01*
X0201477Y0253584D01*
X0201421Y0253543D01*
X0201364Y0253506D01*
X0201304Y0253473D01*
X0201242Y0253442D01*
X0201179Y0253416D01*
X0201115Y0253393D01*
X0201049Y0253373D01*
X0200982Y0253358D01*
X0200915Y0253346D01*
X0200847Y0253338D01*
X0200778Y0253334D01*
X0200710Y0253334D01*
X0200641Y0253338D01*
X0200573Y0253346D01*
X0200506Y0253358D01*
X0200439Y0253373D01*
X0200373Y0253393D01*
X0200309Y0253416D01*
X0200246Y0253442D01*
X0200184Y0253473D01*
X0200124Y0253506D01*
X0200067Y0253543D01*
X0200011Y0253584D01*
X0199958Y0253627D01*
X0199908Y0253673D01*
X0199860Y0253723D01*
X0199815Y0253774D01*
X0199773Y0253829D01*
X0199734Y0253885D01*
X0199699Y0253944D01*
X0199667Y0254005D01*
X0199639Y0254067D01*
X0199614Y0254131D01*
X0199593Y0254196D01*
X0199575Y0254262D01*
X0199562Y0254329D01*
X0199552Y0254397D01*
X0199546Y0254465D01*
X0199544Y0254534D01*
X0224344Y0231334D02*
X0228444Y0231334D01*
X0273244Y0206334D02*
X0277244Y0206334D01*
X0285744Y0194034D02*
X0285744Y0193134D01*
X0315744Y0193134D01*
X0315744Y0194034D01*
X0324344Y0231334D02*
X0328444Y0231334D01*
X0315744Y0253634D02*
X0315744Y0254534D01*
X0301944Y0254534D01*
X0299544Y0254534D01*
X0285744Y0254534D01*
X0285744Y0253634D01*
X0299544Y0254534D02*
X0299546Y0254465D01*
X0299552Y0254397D01*
X0299562Y0254329D01*
X0299575Y0254262D01*
X0299593Y0254196D01*
X0299614Y0254131D01*
X0299639Y0254067D01*
X0299667Y0254005D01*
X0299699Y0253944D01*
X0299734Y0253885D01*
X0299773Y0253829D01*
X0299815Y0253774D01*
X0299860Y0253723D01*
X0299908Y0253673D01*
X0299958Y0253627D01*
X0300011Y0253584D01*
X0300067Y0253543D01*
X0300124Y0253506D01*
X0300184Y0253473D01*
X0300246Y0253442D01*
X0300309Y0253416D01*
X0300373Y0253393D01*
X0300439Y0253373D01*
X0300506Y0253358D01*
X0300573Y0253346D01*
X0300641Y0253338D01*
X0300710Y0253334D01*
X0300778Y0253334D01*
X0300847Y0253338D01*
X0300915Y0253346D01*
X0300982Y0253358D01*
X0301049Y0253373D01*
X0301115Y0253393D01*
X0301179Y0253416D01*
X0301242Y0253442D01*
X0301304Y0253473D01*
X0301364Y0253506D01*
X0301421Y0253543D01*
X0301477Y0253584D01*
X0301530Y0253627D01*
X0301580Y0253673D01*
X0301628Y0253723D01*
X0301673Y0253774D01*
X0301715Y0253829D01*
X0301754Y0253885D01*
X0301789Y0253944D01*
X0301821Y0254005D01*
X0301849Y0254067D01*
X0301874Y0254131D01*
X0301895Y0254196D01*
X0301913Y0254262D01*
X0301926Y0254329D01*
X0301936Y0254397D01*
X0301942Y0254465D01*
X0301944Y0254534D01*
X0368244Y0206334D02*
X0372244Y0206334D01*
X0380744Y0194034D02*
X0380744Y0193134D01*
X0410744Y0193134D01*
X0410744Y0194034D01*
X0419344Y0231334D02*
X0423444Y0231334D01*
X0410744Y0253634D02*
X0410744Y0254534D01*
X0396944Y0254534D01*
X0394544Y0254534D01*
X0380744Y0254534D01*
X0380744Y0253634D01*
X0394544Y0254534D02*
X0394546Y0254465D01*
X0394552Y0254397D01*
X0394562Y0254329D01*
X0394575Y0254262D01*
X0394593Y0254196D01*
X0394614Y0254131D01*
X0394639Y0254067D01*
X0394667Y0254005D01*
X0394699Y0253944D01*
X0394734Y0253885D01*
X0394773Y0253829D01*
X0394815Y0253774D01*
X0394860Y0253723D01*
X0394908Y0253673D01*
X0394958Y0253627D01*
X0395011Y0253584D01*
X0395067Y0253543D01*
X0395124Y0253506D01*
X0395184Y0253473D01*
X0395246Y0253442D01*
X0395309Y0253416D01*
X0395373Y0253393D01*
X0395439Y0253373D01*
X0395506Y0253358D01*
X0395573Y0253346D01*
X0395641Y0253338D01*
X0395710Y0253334D01*
X0395778Y0253334D01*
X0395847Y0253338D01*
X0395915Y0253346D01*
X0395982Y0253358D01*
X0396049Y0253373D01*
X0396115Y0253393D01*
X0396179Y0253416D01*
X0396242Y0253442D01*
X0396304Y0253473D01*
X0396364Y0253506D01*
X0396421Y0253543D01*
X0396477Y0253584D01*
X0396530Y0253627D01*
X0396580Y0253673D01*
X0396628Y0253723D01*
X0396673Y0253774D01*
X0396715Y0253829D01*
X0396754Y0253885D01*
X0396789Y0253944D01*
X0396821Y0254005D01*
X0396849Y0254067D01*
X0396874Y0254131D01*
X0396895Y0254196D01*
X0396913Y0254262D01*
X0396926Y0254329D01*
X0396936Y0254397D01*
X0396942Y0254465D01*
X0396944Y0254534D01*
X0215744Y0194034D02*
X0215744Y0193134D01*
X0185744Y0193134D01*
X0185744Y0194034D01*
X0177244Y0206334D02*
X0173244Y0206334D01*
D17*
X0210360Y0148451D03*
X0260360Y0148451D03*
X0310360Y0148451D03*
X0360360Y0148451D03*
X0410360Y0148451D03*
X0410360Y0108451D03*
X0360360Y0108451D03*
X0310360Y0108451D03*
X0260360Y0108451D03*
X0210360Y0108451D03*
X0210360Y0068451D03*
X0260360Y0068451D03*
X0310360Y0068451D03*
X0360360Y0068451D03*
X0410360Y0068451D03*
X0410360Y0028451D03*
X0360360Y0028451D03*
X0310360Y0028451D03*
X0260360Y0028451D03*
X0210360Y0028451D03*
M02*
